<svg xmlns="http://www.w3.org/2000/svg" viewBox="0 0 3459.64 1070.48"><defs><style>.cls-1,.cls-2{fill:#fff;}.cls-2{fill-rule:evenodd;}</style></defs><g id="Camada_1-3" data-name="Camada 1"><path class="cls-1" d="M2400.94,812.08l-.18,24.29a44.66,44.66,0,1,1-44.65-44.65h32.15V756h12.68Zm-44.83-7.86a32.06,32.06,0,1,0,32.15,32.15V804.22Z"/><path class="cls-1" d="M2504.11,842.8H2428a32.53,32.53,0,0,0,31.62,25.9,32,32,0,0,0,23.39-10l10.54,7.14a44.75,44.75,0,1,1,10.54-23Zm-75.91-12.68h63.05a32.25,32.25,0,0,0-31.61-25.72A31.85,31.85,0,0,0,2428.2,830.12Z"/><path class="cls-1" d="M2566,868.34a13.14,13.14,0,0,0,10-12.68A13,13,0,0,0,2566,843h-22.15c-13.93,0-25.54-11.79-25.54-25.72a25.62,25.62,0,0,1,24.82-25.54h40V804.4h-40a12.87,12.87,0,0,0,.72,25.72h19.29A25.46,25.46,0,1,1,2563,881h-37.15V868.34Z"/><path class="cls-1" d="M2615.24,768.67v12.69h-12.68V768.67Zm0,23.05V881h-12.68V791.72Z"/><path class="cls-1" d="M2718.59,836.37v35.55a44.67,44.67,0,0,1-44.65,44.65c-7.86.18-15.9,0-23.76,0v-12.5h23.76a32.89,32.89,0,0,0,30.9-23h-30.9a44.66,44.66,0,1,1,44.65-44.66Zm-44.65-32a32.06,32.06,0,1,0,0,64.12h32V836.37A31.94,31.94,0,0,0,2673.94,804.4Z"/><path class="cls-1" d="M2768.53,791.89a36.06,36.06,0,0,1,36.08,33.94V881h-12.5c0-18.22-.18-36.44-.18-54.66a23.46,23.46,0,0,0-46.8,0V881h-12.68v-55.2A36.05,36.05,0,0,1,2768.53,791.89Z"/><path class="cls-1" d="M2919.75,868.34a13.14,13.14,0,0,0,10-12.68,13,13,0,0,0-10-12.68H2897.6c-13.94,0-25.55-11.79-25.55-25.72a25.63,25.63,0,0,1,24.83-25.54h40V804.4h-40a12.87,12.87,0,0,0,.72,25.72h19.29a25.46,25.46,0,1,1-.18,50.91h-37.15V868.34Z"/><path class="cls-1" d="M3001.12,869.24v12.5a44.82,44.82,0,0,1-44.83-44.65l.18-80.21H2969v34.84h26.44v12.5H2969v32.87A32.36,32.36,0,0,0,3001.12,869.24Z"/><path class="cls-1" d="M3015,846.91V791.72h12.68c0,18.22,0,36.43.18,54.65a23.34,23.34,0,0,0,23.4,22,23.57,23.57,0,0,0,23.4-22V791.72h12.68v55.19a36.23,36.23,0,0,1-72.34,0Z"/><path class="cls-1" d="M3190.67,812.08l-.18,24.29a44.66,44.66,0,1,1-44.65-44.65H3178V756h12.68Zm-44.83-7.86A32.06,32.06,0,1,0,3178,836.37V804.22Z"/><path class="cls-1" d="M3217.21,768.67v12.69h-12.68V768.67Zm0,23.05V881h-12.68V791.72Z"/><path class="cls-1" d="M3231.07,836.37a45.28,45.28,0,1,1,45.37,45.19A45.44,45.44,0,0,1,3231.07,836.37Zm77.88,0a32.6,32.6,0,1,0-32.51,32.51A32.67,32.67,0,0,0,3309,836.37Z"/><path class="cls-1" d="M1393.18,317.74q81.79,0,137,56.78t55.15,150.17q0,93.4-55.15,150.17t-137,56.78q-68.94,0-109.39-42.24V829.25a37.51,37.51,0,0,1-11,27.22,36,36,0,0,1-26.66,11.26h-99.27V371.23a44.65,44.65,0,0,1,13.33-32.37,43.9,43.9,0,0,1,32.63-13.61h84.57l-67.11,96.67Q1301.26,317.73,1393.18,317.74Zm-88.25,276.87q23.89,25.33,59.75,25.34t58.83-25.34q23-25.33,23-69.45t-23-69.93q-23-25.8-58.83-25.8t-59.29,25.8Q1282,481.06,1282,525.16T1304.93,594.61Z"/><path class="cls-1" d="M1718.57,398.45q48.71-49.74,90.54-65.23t94.22-15.48v126.7q-18.39-1.86-30.33-1.88-44.13,0-69.4,23.94t-25.28,74.61V689.4q0,15-9.65,25.34t-24.36,10.33h-103v-367q0-14.09,9.65-23.47a31.29,31.29,0,0,1,22.52-9.38h98.35Z"/><path class="cls-1" d="M2043.05,280.2q-36.78,0-60.21-21.12t-23.44-53q0-31.89,23.44-53t60.21-21.12q24.81,0,44.12,8.92t29.41,25.34q10.11,16.44,10.11,38t-10.11,39q-10.12,17.38-29.41,27.22T2043.05,280.2Zm-69,393.25V325.25H2066q19.29,0,32.63,13.13T2112,371.23V725.07h-87.33a48.23,48.23,0,0,1-35.85-15Q1974.1,695.05,1974.1,673.45Z"/><path class="cls-1" d="M2692.92,317.74q46.89,0,81.81,18.3t55.61,59.13Q2851,436,2851,496.06v229h-137V518.59q0-81.66-59.74-81.66-20.24,0-35.39,9.39T2595,475.88q-8.75,20.21-8.74,50.22V683.77a40.16,40.16,0,0,1-11.95,29.1q-12,12.21-28.49,12.2h-97.44V518.59q0-81.66-58.83-81.66-32.17,0-51,22.53t-18.85,66.64V693.16a31,31,0,0,1-9.19,22.52,29.75,29.75,0,0,1-22.06,9.39H2182.76V360.91a34.06,34.06,0,0,1,10.57-25.34,34.9,34.9,0,0,1,25.28-10.32h94.68l-44.12,77q73.53-84.48,161.78-84.47,59.75,0,98.35,31.91-18.39,36.6-24.81,64.76Q2562.39,317.75,2692.92,317.74Z"/><path class="cls-1" d="M3331.77,525.16q0,2.82-1.84,34.72H3045a121.35,121.35,0,0,0,6.44,16q23.9,48.81,90.08,48.8,50.55,0,90.08-34.72l51.48,54.43q9.18,9.4,8.27,23a29.12,29.12,0,0,1-12,22Q3226,731.64,3136.9,731.64q-103,0-166.38-58.19t-63.43-149.23q0-90.11,61.13-148.29t154-58.19q90.07,0,149.83,55.84T3331.77,525.16Zm-284-57.25q-.93,2.8-33.55,8.91t-32.63,9.86h221.53q-5.52-31.9-26.66-50.22t-53.31-18.3Q3068,418.16,3047.73,467.91Z"/><path class="cls-1" d="M933.78,409.9Q914.55,379.08,892.84,350c.32.42.65.84,1,1.27q-5-19.5-11-39.52c-21.69-72.3-82.13-125.66-155.27-142.57q-11-2.55-22-4.8c.84.61,1.66,1.24,2.5,1.85q-27.08-19.94-55.67-37.82C608.66,101.17,556.37,89.86,505.45,98a201.18,201.18,0,0,0-63.74,21.47c-25.75,13.87-49.81,28.18-72.45,43.11,1.11-.73,2.19-1.47,3.31-2.2q-21.65,3.89-43.1,8.84c-73.05,16.89-133.61,70.35-155.27,142.57-7.17,23.91-13.26,47.18-18.28,70,.58-.93,1.18-1.83,1.76-2.76-11.74,18.58-23.12,38.07-34.21,58.67a201.37,201.37,0,0,0-21.85,66c-7.45,50.28,4,101.54,30.83,144.56q10.62,17,22,33.48c-.32-.46-.65-.91-1-1.38,5.44,26.48,12.35,53.52,20.72,81.43,21.68,72.29,82.13,125.66,155.27,142.57q31.89,7.38,64.21,12.35l-.21-.15q10.13,6.74,20.45,13.18c43.64,27.24,95.91,38.55,146.82,30.46a201,201,0,0,0,63.78-21.49q20.24-10.89,39.13-22.18l-.27.17q32.25-5,64.15-12.34C800.58,887.49,861.14,834,882.8,761.81c7.32-24.43,13.52-48.19,18.61-71.49-.66,1-1.33,2-2,3,15-22.74,29.4-46.92,43.34-72.8a201.49,201.49,0,0,0,21.86-66.1C972.05,504.13,960.64,452.91,933.78,409.9Zm-274,496.75a874.89,874.89,0,0,1-262.19.06A874.61,874.61,0,0,1,163.3,676.1c-20.2-99.33-19.39-190.2,2.44-290.22,56.91-90.5,122.55-157.73,210.75-215.56a874.93,874.93,0,0,1,324.61,3.89A874.79,874.79,0,0,1,884.16,355.93C913.59,471.44,916.08,573,891.6,686.14,830.36,779.43,758.59,847.45,659.77,906.65ZM162.86,675.47q-2.88-4.17-5.69-8.37Q160,671.3,162.86,675.47Zm-7.32-10.79q-3-4.53-6-9.11C151.54,658.62,153.52,661.66,155.54,664.68ZM884.82,339.41c.81,1,1.6,2.1,2.4,3.15C886.42,341.51,885.63,340.46,884.82,339.41Zm14.38,37.3q-2.62-3.72-5.28-7.42Q896.58,373,899.2,376.71ZM891.56,366q-3-4.14-6-8.23Q888.57,361.87,891.56,366Zm-18.82-51.22q2.21,7.35,4.27,14.61c.49.62,1,1.25,1.46,1.88a885.56,885.56,0,0,0-153.26-152l.36.28C796.45,196.06,852.63,247.72,872.74,314.78ZM718.19,173.87c-1-.74-2-1.49-2.94-2.23C716.24,172.38,717.21,173.13,718.19,173.87Zm-18.12-.42c-2.17-1.59-4.36-3.16-6.55-4.74C695.71,170.29,697.9,171.86,700.07,173.45ZM690,166.18q-3.33-2.37-6.68-4.69Q686.66,163.82,690,166.18Zm-243.3-37.49C508.36,95.47,585,98.74,646.75,137.33q17.28,10.78,34,22.37A885.92,885.92,0,0,0,399.06,156C414.28,146.71,430.11,137.62,446.69,128.69Zm-67.06,39.58c1.81-1.18,3.62-2.35,5.45-3.51C383.25,165.92,381.44,167.09,379.63,168.27ZM391,161c2.06-1.29,4.12-2.58,6.2-3.86C395.14,158.43,393.08,159.72,391,161ZM184.26,314.77c20.12-67.1,76.59-118.94,147.57-135.35q9.27-2.14,18.58-4.08l.8-.56c-72.45,50.66-129.7,109-179.64,183,.43-.65.86-1.31,1.3-1.95Q178,335.59,184.26,314.77ZM362.62,167c-1.57,1.06-3.12,2.13-4.68,3.19C359.5,169.09,361.05,168,362.62,167ZM166.23,365.76c-1,1.47-1.94,2.93-2.9,4.41C164.29,368.69,165.26,367.23,166.23,365.76Zm-1.7,22q-2.47,4-4.94,8Q162,391.77,164.53,387.79Zm-7.8,12.71q-2.58,4.28-5.11,8.6C153.31,406.22,155,403.34,156.73,400.5Zm-24,42.16c5.62-10.45,11.32-20.58,17.09-30.48-14.87,82.3-15.3,159.77-1.3,241.79q-3.62-5.6-7.15-11.25C102.72,580.85,99.46,504.42,132.72,442.66Zm30,250.82c-.59-.81-1.18-1.62-1.76-2.44C161.5,691.86,162.09,692.67,162.68,693.48ZM331.83,894.15C260.77,877.72,204.41,826,184.26,758.79q-8.65-28.83-15.19-56.44l-.44-.61A885.61,885.61,0,0,0,375.54,904.35l-2.47-1.72Q352.37,898.9,331.83,894.15Zm51.25,15.44,2.74,1.84Zm25.15,4.1c2.51,1.63,5,3.22,7.57,4.82C413.27,916.91,410.74,915.32,408.23,913.69Zm-10.38-6.8c2.52,1.67,5,3.32,7.59,5C402.9,910.21,400.37,908.56,397.85,906.89Zm221.69,22.6c-61.67,33.22-138.25,30-200.06-8.64l-1-.66a886.11,886.11,0,0,0,217.36.34C630.45,923.53,625.05,926.52,619.54,929.49Zm40-22.72c-2.16,1.29-4.36,2.57-6.54,3.85C655.22,909.34,657.42,908.06,659.58,906.77ZM647.34,914c-2.4,1.39-4.85,2.77-7.28,4.15C642.49,916.74,644.94,915.36,647.34,914Zm225.4-155.18c-20.12,67.11-76.59,118.94-147.58,135.36q-18.93,4.38-38,7.9c-1.27.81-2.57,1.61-3.85,2.42C767,851.56,831.32,790.87,886.52,712.25c-.52.74-1,1.51-1.56,2.25Q879.5,736.3,872.74,758.79Zm-202,153.43c1.71-1,3.43-2.07,5.11-3.11C674.21,910.15,672.49,911.19,670.78,912.22ZM891.24,705.45c1.15-1.68,2.31-3.36,3.45-5.06C893.55,702.09,892.39,703.77,891.24,705.45Zm2.29-22.25q2.1-3.24,4.19-6.52Q895.64,680,893.53,683.2ZM901.34,671c1.37-2.2,2.74-4.4,4.11-6.62C904.08,666.56,902.71,668.76,901.34,671Zm32.17-55.44q-12.91,24-26.36,46c17.37-96,15.09-185.45-6.83-283.21q12.72,18.24,24.55,37.14C963.51,477.34,966.78,553.76,933.51,615.52Z"/><path class="cls-1" d="M583.77,255.81q-79.68,0-158.56,88.44l58.17-82.07H410.07a38.47,38.47,0,0,0-28.28,11.55,37.54,37.54,0,0,0-11.56,27.49v421.5h86.06A32.66,32.66,0,0,0,489,690.06V571.33q35.06,35.86,94.81,35.86,70.92,0,118.72-48.21T750.3,431.5q0-79.29-47.81-127.49T583.77,255.81Zm26.3,235.05q-19.92,21.51-51,21.51t-51.39-21.51q-20.32-21.51-20.32-59t20.32-59.36q20.31-21.92,51.39-21.92t51,21.92Q630,394.44,630,431.9T610.07,490.86Z"/><path class="cls-2" d="M583.77,255.81q70.92,0,118.72,48.2T750.3,431.5q0,79.28-47.81,127.48T583.77,607.19q-59.76,0-94.81-35.86V690.06a32.66,32.66,0,0,1-32.67,32.66H370.23V301.22a37.54,37.54,0,0,1,11.56-27.49,38.47,38.47,0,0,1,28.28-11.55h73.31l-58.17,82.07q78.89-88.44,158.56-88.44ZM507.68,490.86q20.32,21.51,51.39,21.51t51-21.51Q630,469.35,630,431.9t-19.92-59.36q-19.92-21.92-51-21.92t-51.39,21.92q-20.32,21.9-20.32,59.36T507.68,490.86Z"/><polygon class="cls-2" points="365.84 774.45 358.64 752.17 351.45 774.45 328.04 774.41 347.01 788.13 339.73 810.38 358.64 796.59 377.56 810.38 370.28 788.13 389.25 774.41 365.84 774.45"/><polygon class="cls-2" points="453.72 774.45 446.53 752.17 439.34 774.45 415.93 774.41 434.89 788.13 427.62 810.38 446.53 796.59 465.44 810.38 458.16 788.13 477.13 774.41 453.72 774.45"/><polygon class="cls-2" points="540.53 774.45 533.34 752.17 526.15 774.45 502.74 774.41 521.71 788.13 514.43 810.38 533.34 796.59 552.25 810.38 544.98 788.13 563.94 774.41 540.53 774.45"/><polygon class="cls-2" points="627.6 774.45 620.41 752.17 613.22 774.45 589.81 774.41 608.77 788.13 601.5 810.38 620.41 796.59 639.32 810.38 632.04 788.13 651.01 774.41 627.6 774.45"/><polygon class="cls-2" points="738.19 774.41 714.78 774.45 707.59 752.17 700.39 774.45 676.98 774.41 695.95 788.13 688.67 810.38 707.59 796.59 726.5 810.38 719.22 788.13 738.19 774.41"/></g></svg>