<svg xmlns="http://www.w3.org/2000/svg" viewBox="0 0 850.39 850.39"><defs><style>.cls-1,.cls-2{fill:#111;}.cls-2{fill-rule:evenodd;}</style></defs><g id="Camada_1-3" data-name="Camada 1"><path class="cls-1" d="M709.3,340.68q-13.63-21.85-29-42.47c.23.3.46.6.68.91q-3.54-13.83-7.8-28C657.77,219.83,614.92,182,563.05,170q-7.8-1.8-15.63-3.4l1.77,1.31q-19.2-14.13-39.47-26.82c-31-19.32-68-27.34-104.14-21.59a142.46,142.46,0,0,0-45.2,15.22c-18.26,9.84-35.31,20-51.37,30.57l2.34-1.56Q296,166.48,280.8,170c-51.8,12-94.75,49.89-110.1,101.09-5.09,17-9.41,33.46-13,49.65.42-.66.84-1.3,1.25-2-8.32,13.17-16.39,27-24.26,41.6a143.08,143.08,0,0,0-15.49,46.83c-5.28,35.65,2.81,72,21.86,102.51q7.53,12,15.6,23.74c-.23-.33-.46-.65-.68-1,3.86,18.77,8.75,37.95,14.69,57.74,15.37,51.26,58.24,89.1,110.09,101.09q22.62,5.24,45.54,8.75l-.15-.1q7.19,4.77,14.5,9.34c30.94,19.32,68,27.34,104.11,21.6A142.76,142.76,0,0,0,490,715.67q14.36-7.73,27.75-15.73l-.2.12q22.88-3.52,45.49-8.75c51.8-12,94.74-49.89,110.1-101.09,5.19-17.33,9.59-34.17,13.19-50.7-.46.72-.94,1.41-1.4,2.12,10.64-16.13,20.84-33.27,30.73-51.62a142.9,142.9,0,0,0,15.5-46.88C736.44,407.5,728.34,371.18,709.3,340.68ZM515,692.92a620.64,620.64,0,0,1-185.92,0A620.19,620.19,0,0,1,163,529.44C148.64,459,149.22,394.57,164.7,323.65c40.36-64.17,86.89-111.84,149.44-152.85a620.33,620.33,0,0,1,230.17,2.76A620.84,620.84,0,0,1,674.12,302.41c20.87,81.91,22.63,153.91,5.27,234.15C636,602.71,585.08,650.94,515,692.92ZM162.65,529q-2-3-4-5.94Q160.63,526,162.65,529Zm-5.18-7.65c-1.43-2.14-2.84-4.29-4.25-6.45C154.63,517.05,156,519.2,157.47,521.34ZM674.59,290.7l1.7,2.23Zm10.19,26.45q-1.86-2.64-3.74-5.27Q682.92,314.51,684.78,317.15Zm-5.41-7.6c-1.42-1.95-2.85-3.9-4.29-5.83C676.52,305.65,678,307.6,679.37,309.55ZM666,273.23q1.56,5.22,3,10.36l1,1.33A628.06,628.06,0,0,0,561.41,177.13l.25.19C611.92,189.05,651.76,225.68,666,273.23ZM556.43,173.32l-2.08-1.58Zm-12.85-.3c-1.54-1.13-3.09-2.24-4.64-3.36C540.49,170.78,542,171.89,543.58,173Zm-7.15-5.16-4.73-3.32ZM363.91,141.28c43.74-23.55,98-21.23,141.86,6.13q12.26,7.65,24.11,15.86a628.12,628.12,0,0,0-199.74-2.6Q346.33,150.76,363.91,141.28Zm-47.54,28.06c1.28-.83,2.56-1.66,3.86-2.48C318.93,167.68,317.65,168.51,316.37,169.34Zm8.07-5.14c1.46-.92,2.92-1.83,4.4-2.74C327.36,162.37,325.9,163.28,324.44,164.2Zm-146.61,109c14.27-47.58,54.31-84.34,104.64-96q6.57-1.51,13.17-2.89l.57-.39c-51.37,35.92-92,77.3-127.38,129.73l.92-1.39Q173.41,288,177.83,273.23ZM304.3,168.42,301,170.68ZM165,309.39c-.68,1-1.37,2.07-2,3.12C163.67,311.46,164.36,310.42,165,309.39ZM163.84,325c-1.17,1.87-2.34,3.77-3.5,5.67C161.5,328.78,162.67,326.88,163.84,325Zm-5.53,9c-1.22,2-2.42,4.05-3.63,6.1C155.89,338.07,157.09,336,158.31,334Zm-17,29.89c4-7.41,8-14.59,12.13-21.61-10.55,58.36-10.86,113.29-.93,171.45q-2.56-4-5.07-8C120,461.9,117.7,407.7,141.28,363.91Zm21.25,177.85c-.42-.57-.84-1.15-1.25-1.73C161.69,540.61,162.11,541.19,162.53,541.76ZM282.47,684.05c-50.39-11.65-90.35-48.33-104.64-96q-6.14-20.45-10.77-40l-.31-.43A628.08,628.08,0,0,0,313.46,691.29l-1.75-1.22Q297,687.42,282.47,684.05Zm36.34,11,1.94,1.31Zm17.83,2.91c1.78,1.15,3.58,2.29,5.37,3.42C340.22,700.2,338.42,699.06,336.64,697.91Zm-7.36-4.82,5.38,3.53Q332,694.87,329.28,693.09Zm157.2,16c-43.73,23.56-98,21.24-141.86-6.12l-.74-.47a628.36,628.36,0,0,0,154.13.24C494.22,704.89,490.39,707,486.48,709.11ZM514.87,693c-1.53.92-3.09,1.82-4.64,2.73C511.78,694.82,513.34,693.92,514.87,693Zm-8.68,5.11c-1.7,1-3.44,2-5.16,2.94C502.76,700.07,504.49,699.09,506.19,698.11ZM666,588.08c-14.27,47.58-54.31,84.33-104.64,96q-13.44,3.11-27,5.61l-2.73,1.71c59.33-37.51,105-80.55,144.12-136.3l-1.1,1.6Q670.81,572.12,666,588.08ZM522.82,696.87l3.62-2.21ZM679.14,550.25c.81-1.19,1.63-2.38,2.44-3.59C680.77,547.87,680,549.06,679.14,550.25Zm1.62-15.78c1-1.53,2-3.07,3-4.62C682.75,531.4,681.75,532.94,680.76,534.47Zm5.54-8.68c1-1.55,1.94-3.12,2.91-4.69C688.24,522.67,687.27,524.24,686.3,525.79Zm22.81-39.31q-9.17,17-18.69,32.63c12.31-68.09,10.7-131.5-4.85-200.82q9,12.93,17.42,26.33C730.38,388.5,732.7,442.69,709.11,486.48Z"/><path class="cls-1" d="M461.12,231.42q-56.5,0-112.44,62.71l41.25-58.19H338a27.29,27.29,0,0,0-20.06,8.19,26.62,26.62,0,0,0-8.19,19.49V562.5h61a23.15,23.15,0,0,0,23.16-23.16V455.15q24.87,25.43,67.24,25.43,50.28,0,84.18-34.18T579.2,356q0-56.22-33.9-90.4T461.12,231.42Zm18.64,166.67q-14.11,15.26-36.16,15.25t-36.44-15.25q-14.4-15.25-14.41-41.81t14.41-42.09q14.41-15.54,36.44-15.54t36.16,15.54q14.13,15.54,14.13,42.09T479.76,398.09Z"/><path class="cls-2" d="M461.12,231.42q50.28,0,84.18,34.18T579.2,356q0,56.21-33.9,90.4t-84.18,34.18q-42.37,0-67.24-25.43v84.19a23.15,23.15,0,0,1-23.16,23.16h-61V263.62a26.62,26.62,0,0,1,8.19-19.49A27.29,27.29,0,0,1,338,235.94h52l-41.25,58.19q55.94-62.71,112.44-62.71Zm-54,166.67q14.41,15.26,36.44,15.25t36.16-15.25q14.13-15.25,14.13-41.81t-14.13-42.09q-14.11-15.54-36.16-15.54t-36.44,15.54q-14.4,15.54-14.41,42.09T407.16,398.09Z"/><polygon class="cls-2" points="306.58 599.18 301.48 583.38 296.38 599.18 279.79 599.15 293.23 608.88 288.07 624.65 301.48 614.87 314.89 624.65 309.73 608.88 323.18 599.15 306.58 599.18"/><polygon class="cls-2" points="368.9 599.18 363.8 583.38 358.7 599.18 342.1 599.15 355.55 608.88 350.39 624.65 363.8 614.87 377.21 624.65 372.05 608.88 385.5 599.15 368.9 599.18"/><polygon class="cls-2" points="430.46 599.18 425.36 583.38 420.26 599.18 403.66 599.15 417.11 608.88 411.95 624.65 425.36 614.87 438.77 624.65 433.61 608.88 447.06 599.15 430.46 599.18"/><polygon class="cls-2" points="492.19 599.18 487.1 583.38 482 599.18 465.4 599.15 478.85 608.88 473.69 624.65 487.1 614.87 500.5 624.65 495.35 608.88 508.79 599.15 492.19 599.18"/><polygon class="cls-2" points="570.61 599.15 554.01 599.18 548.91 583.38 543.81 599.18 527.21 599.15 540.66 608.88 535.5 624.65 548.91 614.87 562.32 624.65 557.16 608.88 570.61 599.15"/></g></svg>