<?xml version="1.0" encoding="utf-8"?>
<!-- Generator: Adobe Illustrator 26.5.3, SVG Export Plug-In . SVG Version: 6.00 Build 0)  -->
<svg version="1.1" id="Camada_1" xmlns="http://www.w3.org/2000/svg" xmlns:xlink="http://www.w3.org/1999/xlink" x="0px" y="0px"
	 viewBox="0 0 566.93 566.93" style="enable-background:new 0 0 566.93 566.93;" xml:space="preserve">
<g>
	<path d="M468.52,212.76c-2.4-1.64-7.52,0.08-11.82,4.97c0.39-2.81,0.55-6.55-1.16-7.3c-1.45-0.64-3.47,0.94-6.48,5.02
		c-0.85-0.84-2.56-2.13-4.73-1.72c-3.33,0.63-6.15,5.05-8.4,13.15c-0.17,0.64-0.34,1.27-0.49,1.89
		c-2.14,8.25-3.55,13.71-18.75,15.97c-4.38,0.65-7.73,0.86-10.42,1.03c-7.43,0.47-10.74,0.67-19.69,8.51
		c1.72-7.35,4.84-15.63,28.21-25.29c11.85-4.9,16.92-7.19,19.03-8.41c0.14,0.44,0.23,1.03,0.08,1.78
		c-0.49,2.6-3.95,8.09-21.65,15.68l0.53,1.24c17.35-7.45,21.78-13.18,22.44-16.67c0.23-1.21,0.02-2.16-0.26-2.81
		c0.39-0.36,0.33-0.57,0.25-0.8c-0.24-0.74-1.19-0.51-1.55-0.42l-1.18,0.28l0.61,0.6c-1.68,0.91-6.28,3.09-18.83,8.28
		c-25.51,10.55-27.62,20.03-29.32,27.64l-0.62,2.73l1.58-1.43c9.8-8.89,12.92-9.09,20.44-9.56c2.72-0.17,6.1-0.38,10.54-1.05
		c16.08-2.4,17.66-8.51,19.86-16.97c0.16-0.61,0.32-1.24,0.49-1.87c2.61-9.4,5.44-11.81,7.34-12.18c1.68-0.32,3.08,0.88,3.69,1.5
		c-9.06,12.98-7.32,24.49-6.82,26.87c-1.23,0.97-2.25,1.76-2.52,1.95c-21.27,16.68-39.79,16.66-53.33,16.65l-1.3,0l-0.14,0.07
		c-9.16,4.68-15.13,12.98-17.74,24.68c-2.1,9.4-1.5,18.49-1.16,23.41c0,0.04,0,0.08,0.01,0.12c0.28,5.54-0.79,13.23-1.02,14.85
		c-0.81-0.31-1.62-0.61-2.43-0.93c-6.98-2.77-13.74-6.03-20.23-9.74c-13.15-6.84-21.41-13.87-25.34-17.66
		c-3.99-6.71-5.17-17.03,0.14-30.75c0.01-0.02,0.02-0.04,0.03-0.06c11.64-14.66,21.11-24.16,44.85-22.71c0.01,0,0.03,0,0.04,0.01
		c8.67,1.68,13.46,1.41,15.52-0.87c1.99-2.21,1.12-5.79-0.26-10.33c0-0.01-0.01-0.02-0.01-0.03c-0.21-0.46-0.4-0.87-0.58-1.25
		c-1.38-2.93-1.67-3.54,1.01-7.14c1-1.35,1.27-2.53,0.78-3.53c-0.52-1.07-1.79-1.6-2.92-1.88c-0.1-0.02-0.13-0.15-0.05-0.21
		c1.14-0.93,2.49-2.33,2.82-3.91c0.21-1.01,0-1.96-0.62-2.83c-0.76-1.05-1.79-1.83-2.69-2.52c-2.19-1.67-3.64-2.77-1.15-6.54
		c0.01-0.02,0.03-0.04,0.04-0.05c4.09-4.14,5.6-6.63,5.94-7.24c0.23-0.19,0.6-0.61,0.56-1.23c-0.05-0.88-0.9-1.69-2.59-2.46
		c-0.59-0.27-1.29-0.5-2.02-0.75c-2.63-0.88-5.9-1.98-8.32-5.79c7.2-1.31,5.56-6.7,4.98-5.84c-1.38,3.67-4.31,3.93-6.1,3.7
		c-0.66-1.5-1.21-3.29-1.6-5.49l-0.75-1.9c-4-10-8.97-22.44-23.61-33.03c-0.37-0.24-36.43-20.44-72.91,3.43
		c8.46-37.9,30.84-72.41,64.31-95.14c0.27-0.18,0.39-0.53,0.29-0.84c-0.1-0.31-0.4-0.52-0.73-0.51
		c-14.75,0.49-29.41,3.07-43.57,7.68c-18.24,5.94-34.99,14.98-49.81,26.89c-13.81,11.09-25.56,24.36-34.95,39.45
		c-0.82-3.85-2.71-10.61-6.44-14.31c-0.64-0.63-1.39-0.92-2.05-1.17c-0.49-0.19-0.95-0.36-1.32-0.65c-0.26-0.2-0.48-0.51-0.71-0.83
		c-0.35-0.48-0.74-1.02-1.37-1.37c-0.71-0.39-1.42-0.39-2.05-0.39c-0.47,0-0.88,0-1.22-0.16c-0.33-0.15-1-0.74-1.59-1.26
		c-1.48-1.3-2.88-2.54-3.99-2.04c-1.68,0.75-1.97,3.21-2.22,5.39c-0.1,0.86-0.19,1.67-0.36,2.16c-0.3,0.87-0.76,1.63-1.25,2.44
		c-0.26,0.43-0.52,0.86-0.76,1.31c-0.7-0.31-1.42-0.44-2.18-0.59c-0.59-0.11-1.19-0.22-1.84-0.42c-0.57-0.18-1.1-0.49-1.65-0.82
		c-0.41-0.24-0.83-0.49-1.29-0.7c-1.35-0.61-3.27-0.75-4.28,0.41c-0.8,0.9-0.62,2.32-0.5,3.35c0.02,0.16,0.04,0.31,0.05,0.44
		l0.02,0.26c0.14,1.52,0.29,3.1,0.13,4.58c-0.04,0.35-0.11,0.72-0.18,1.12c-0.2,1.1-0.42,2.35-0.07,3.53
		c0.39,1.32,1.35,2.47,2.19,3.49c0.12,0.15,0.24,0.29,0.35,0.43c2.45,3.01,5.38,6.29,9.15,7.08c0.13,0.03,0.26,0.05,0.4,0.07
		c0.15,0.38,0.28,0.79,0.42,1.21c0.23,0.7,0.48,1.43,0.81,2.14c-0.97,2.85-1.88,5.76-2.7,8.67c-0.7-1.51-1.24-3.03-1.64-4.54
		c-0.89-3.42-1.34-3.59-1.64-3.7c-0.41-0.16-0.86,0.05-1.03,0.48c-0.22,0.54-0.25,1.18-0.28,1.74c-0.01,0.27-0.03,0.53-0.06,0.74
		c-0.06,0.42-0.14,0.86-0.21,1.28c-0.19,1.08-0.38,2.19-0.42,3.32c-0.02,0.4,0,0.79,0.02,1.18c-0.31-0.46-0.61-0.92-0.91-1.38
		c-0.05-0.07-4.77-7.4-7.8-7.4c-0.39,0-0.72,0.31-0.74,0.7c-0.04,0.79,0.38,1.4,0.75,1.94c0.11,0.16,0.22,0.31,0.31,0.47
		c0.02,0.03,0.04,0.06,0.07,0.09c3.21,3.86,3.87,8.53,4.02,13.25c-0.4-0.32-0.83-0.65-1.29-0.99c-0.02-0.02-0.06-0.05-0.12-0.1
		c-1.35-1.08-1.77-1.3-2.23-1.17c-0.25,0.07-0.44,0.24-0.53,0.48c-1.71,4.51,2.2,12.68,3.17,14.59c-0.22,0.32-0.38,0.83-0.25,1.64
		c0.21,1.29,0.71,2.44,1.29,3.52c-1.02,0.88-2.01,1.71-3.16,2.33c-0.41,0.22-0.82,0.39-1.22,0.52c-1.83-3.65-4.3-7.65-8.16-8.05
		c-0.56-0.06-0.92,0.14-1.12,0.31c-0.2,0.18-0.45,0.5-0.47,1.08c-0.04,1.06,0.34,1.99,0.7,2.89c0.23,0.56,0.44,1.08,0.54,1.6
		c0.18,0.95,0.13,1.99,0.08,3.09c-0.03,0.7-0.06,1.41-0.04,2.12c-0.15,0.03-0.29,0.1-0.41,0.2c-1.76,1.46-1.65,9.36-1.65,9.43
		c0.02,1.13,0.11,2.24,0.27,3.34c-0.87-0.13-1.67-0.12-2.4,0.03c-1.04,0.21-1.61,0.83-2.11,1.38c-0.23,0.25-0.44,0.48-0.7,0.68
		c-0.44,0.34-0.92,0.63-1.42,0.93c-0.67,0.4-1.37,0.82-1.99,1.39c-1.58,1.44-2.95,3.87-3.63,6.2c-0.66,0.03-1.3,0.13-1.92,0.29
		c-1.25,0.32-2.11,0.97-2.55,1.94c-0.6,1.32-0.4,3.09,0.62,5.42c-4.26,0.67-8.44,0.44-12.81,0.2c-2.99-0.16-6.07-0.33-9.19-0.19
		c-4.15,0.19-8.03,1.24-10.92,2.96c-0.17,0.1-0.3,0.27-0.34,0.47c-0.05,0.2-0.01,0.4,0.1,0.57c1.16,1.79,4.34,1.3,6.9,0.91
		c0.62-0.1,1.16-0.18,1.56-0.21c1.16-0.08,2.18-0.11,2.91,0.39c0.65,0.44,0.99,1.25,1.35,2.11c0.23,0.53,0.46,1.09,0.78,1.6
		c1.78,2.82,5.25,2.85,8.04,2.87c0.61,0,1.18,0.01,1.72,0.04c3.73,0.21,7.5,0.05,11.18-0.48c0.98-0.14,1.97-0.3,2.94-0.45
		c1.02-0.16,2.05-0.32,3.08-0.47c0.58,0.56,1.21,1.12,1.93,1.72c-0.33,0.16-0.71,0.34-1.09,0.54c-1.88,1.01-2.23,1.65-2.32,2.1
		c-0.08,0.39,0.04,0.77,0.33,1.05c1.67,1.64,4.71,0.17,6.16-0.54l0.04-0.02c0.19-0.09,0.38-0.18,0.56-0.26l0.32,0.24
		c0.77,0.58,1.56,1.17,2.33,1.77c-2.3,0.52-4.7,1.45-7.44,2.84c-0.67,0.34-1.35,0.69-2,1.04c-2.63,1.37-5.11,2.67-7.91,3.49
		c-3.77,1.1-11.27,1.59-17.89,2.03c-5.94,0.39-11.08,0.73-13.2,1.43c-0.41,0.14-0.83,0.26-1.28,0.38c-0.88,0.25-1.79,0.51-2.63,0.9
		c-0.51,0.22-0.53,0.65-0.52,0.76c0.03,0.68,0.67,0.72,1.09,0.75c0.23,0.02,0.52,0.03,0.71,0.05c0.11,0.01,0.19,0.01,0.21,0.01
		c1.73,0.16,3.51,0.37,5.44,0.63c5.35,0.73,11.06,1.35,17.46,1.91c0.3,0.03,0.6,0.05,0.9,0.08c5.29,0.47,10.76,0.95,15.69-2.14
		c1.08-0.68,2.07-1.48,3.03-2.26c1.42-1.15,2.75-2.24,4.36-2.95c5.87-2.58,13.75-2.17,19.18,1.01c2.05,1.2,3.92,2.8,5.74,4.34
		c0.78,0.66,1.58,1.35,2.4,2c0.27,0.21,0.53,0.43,0.8,0.65c1.8,1.45,3.65,2.95,5.74,3.95c0.48,0.23,0.97,0.44,1.42,0.62
		c-0.04,0.07-0.08,0.14-0.13,0.21c-0.32,0.5-0.76,0.94-1.22,1.4c-0.63,0.63-1.28,1.28-1.7,2.15c-0.03,0.06-0.06,0.13-0.09,0.2
		c-0.2,0.14-0.39,0.28-0.58,0.44c-0.26,0.22-0.51,0.45-0.74,0.68c-0.23-0.3-0.45-0.61-0.68-0.91l-0.36-0.48
		c-1.75-2.37-3.29-4.27-4.82-5.93c0.1-0.34,0.12-0.71,0.04-1.08c-0.39-1.79-3.05-3.64-5.2-4.19c-1.56-0.4-2.83-0.14-3.58,0.73
		c-0.34,0.39-0.48,0.86-0.39,1.36c0.23,1.41,2.22,2.68,4.06,3.77c0.2,0.12,0.37,0.22,0.47,0.28l0.1,0.06
		c0.35,0.23,0.72,0.47,1.16,0.63c0.3,0.11,0.62,0.16,0.95,0.15c0,0,0,0,0,0c0.12,0,0.24-0.02,0.36-0.04
		c0.41-0.07,0.79-0.23,1.12-0.45c1.43,1.57,2.89,3.37,4.54,5.6l0.36,0.48c0.27,0.36,0.54,0.72,0.8,1.09
		c-0.5,0.49-1.01,0.93-1.6,1.26c-0.59,0.33-1.37,0.58-2.19,0.84c-0.14,0.05-0.29,0.09-0.43,0.14c-0.94-1.44-1.95-2.7-3.02-3.77
		c0.51-1.67-1.45-2.95-2.21-3.44c-1.11-0.73-2.41-1.33-4.08-1.91c-0.27-0.1-0.74-0.25-1.23-0.16c-0.4,0.07-0.73,0.29-0.94,0.62
		c-0.43,0.67-0.26,1.58-0.17,1.95c0.29,1.14,0.94,2.18,1.83,2.95c0.61,0.52,1.31,0.89,2.15,1.12c0.48,0.13,1.02,0.23,1.68,0.29
		c0.33,0.03,0.82,0.08,1.31,0c0.25-0.04,0.5-0.12,0.73-0.24c0.88,0.9,1.72,1.94,2.51,3.12c-1.29,0.54-2.44,1.3-2.94,2.7
		c-0.29,0.82-0.19,1.59-0.11,2.28c0.06,0.5,0.12,0.97,0.03,1.4c-0.1,0.43-0.41,0.84-0.73,1.27c-0.48,0.63-1.02,1.34-1.05,2.33
		c-0.04,1.37,1.55,2.84,3.99,4.92c0.97,0.82,1.88,1.6,2.25,2.11c0.44,0.61,0.84,1.28,1.2,2.03c-2.28-0.81-5.12-1.53-6.76-1.1
		c-0.63,0.16-1.07,0.49-1.32,0.96c-0.84,1.61,0.83,2.9,2.04,3.85c0.53,0.41,1.13,0.88,1.29,1.18c0.39,0.75,0.69,1.51,0.99,2.24
		c0.69,1.7,1.41,3.46,3.11,4.98c1.57,1.41,3.54,2.21,5.44,2.99c1.58,0.64,3.08,1.25,4.25,2.16c0.04,0.34,0.08,0.69,0.13,1.03
		c-6.37-0.12-14.2,4.31-15.77,5.24c-3.13,1.85-5.87,4.01-8.13,6.42c-1.59,1.7-1.84,3.02-2.08,4.31c-0.2,1.07-0.39,2.08-1.39,3.46
		c-0.8,1.1-1.83,2.24-2.92,3.44c-3.31,3.65-7.06,7.79-5.91,12.93c0.01,0.04,0.03,0.16,0.04,0.26c0.12,0.85,0.26,1.52,0.78,1.82
		c0.16,0.09,0.35,0.15,0.58,0.11c0.29-0.05,0.64-0.26,1.02-0.78c0.26-0.35,0.49-0.77,0.61-0.98c0.02-0.04,0.04-0.07,0.05-0.09
		c0.51-0.85,0.86-1.65,1.21-2.42c0.76-1.71,1.35-3.05,3.32-4.04c3-1.51,6.84-4.78,10.91-8.24c6.84-5.82,14.57-12.39,20.42-12.61
		c1.26,2.47,3.01,5.03,5.17,7.51c2.77,3.19,6.01,6.03,9.11,7.98c0.99,0.62,2.11,1.05,3.19,1.47c1.15,0.45,2.24,0.87,3.1,1.48
		c0.79,0.55,1.46,1.23,2.16,1.95c0.92,0.94,1.88,1.91,3.16,2.63c0.85,0.48,1.74,0.73,2.61,0.98c0.84,0.24,1.64,0.47,2.36,0.88
		c1.3,0.75,2.46,1.91,3.68,3.13c2.22,2.23,4.51,4.53,7.92,4.47c0.36-0.01,0.69-0.03,0.99-0.08c0.64-0.11,1.14-0.32,1.5-0.62
		c3.76,3.61,8.34,6.34,13.97,8.32c4.63,1.63,10.03,2.75,16.5,3.43c0.49,1.37,1.05,2.68,2.18,3.97c2.33,2.67,5.3,4.62,8.6,5.63
		c2.98,0.91,6.17,1.07,9.21,0.45c0.93-0.19,1.63-0.5,2.25-0.78c0.75-0.33,1.36-0.61,2.26-0.63c15.64,5.26,31.91,8.01,48.34,8.18
		c9.21,0.1,18.4-0.62,27.48-2.15c7.71-1.29,15.35-3.17,22.86-5.61c14.16-4.61,27.53-11.15,39.74-19.44
		c0.27-0.18,0.39-0.53,0.29-0.84c-0.1-0.31-0.4-0.52-0.73-0.51c-20.12,0.66-39.73-2.66-57.95-9.31c0.54-4.44,0.84-10.97,0.91-12.53
		l0.03,0.06c0,0-0.06-1.94-0.14-3.1c-0.61-8.97-2.45-36.22,18.02-46.8l0.97,0c13.71-0.01,32.53,0.03,54.14-16.92
		c0.64-0.46,5.45-4.21,7.42-5.95c0.49-0.43,0.99-0.88,1.49-1.35c7.37-6.76,14.2-14.73,20.33-23.7
		C469.63,214.46,469.46,213.4,468.52,212.76z M170.61,245.74c-0.19,0.25-0.55,0.42-0.91,0.43c-0.14,0.01-0.28-0.01-0.39-0.06
		c-0.28-0.1-0.57-0.29-0.87-0.48l-0.1-0.06c-0.13-0.08-0.3-0.18-0.52-0.31c-2.13-1.25-3.26-2.17-3.35-2.73
		c-0.01-0.04-0.01-0.08,0.05-0.15c0.49-0.57,1.53-0.41,2.1-0.26c1.97,0.51,3.91,2.11,4.12,3.08
		C170.78,245.4,170.74,245.58,170.61,245.74z M168.26,252.44c-0.12,0.3-0.36,0.42-1.38,0.32c-0.58-0.06-1.03-0.14-1.43-0.25
		c0,0,0,0,0,0c-0.64-0.18-1.14-0.44-1.59-0.82c-0.66-0.57-1.15-1.34-1.36-2.19c-0.09-0.37-0.07-0.66-0.03-0.76
		c0.12-0.01,0.33,0.06,0.46,0.11c1.55,0.54,2.74,1.09,3.75,1.75C167.13,250.9,168.52,251.8,168.26,252.44z M362.04,175.72l0.68,1.7
		c0,0.01,0,0.02,0.01,0.02c1.98,11.06,7.96,13.05,11.92,14.38c0.73,0.24,1.36,0.46,1.89,0.7c1.74,0.8,1.8,1.31,1.8,1.32
		c0,0.04-0.07,0.12-0.09,0.13l-0.16,0.1l-0.09,0.17c-0.01,0.02-1.31,2.52-5.86,7.14c-0.02,0.02-0.03,0.03-0.04,0.05
		c-3.27,4.92-0.8,6.8,1.38,8.46c0.87,0.66,1.77,1.35,2.42,2.24c0.4,0.56,0.53,1.13,0.4,1.76c-0.39,1.83-2.92,3.67-3.86,4.22
		l-2.02,1.19l2.35,0.07c0.82,0.02,3.28,0.33,3.8,1.4c0.3,0.63-0.19,1.51-0.65,2.13c-3.14,4.21-2.69,5.28-0.98,8.89
		c0.17,0.44,0.45,1.17,0.62,1.61c1.08,3.67,1.7,6.59,0.28,8.16c-1.66,1.84-6.33,1.99-14.35,0.44c-0.01,0-0.03,0-0.04,0
		c-24.57-1.51-34.22,8.26-46.16,23.31l-0.1,0.17c-4.65,11.99-4.75,21.39-2.22,28.02c-12.64-11.68-23.42-25.46-31.7-40.93
		c-0.03,0.02-0.07,0.03-0.1,0.05c10.07-5.51,20.98-15.84,24.22-33.01c0.24-0.04,0.5-0.07,0.73-0.12
		c6.95-1.52,11.21-6.77,11.12-13.68c-0.13-9.2-4.06-11.9-7.34-12.55c-4.68-0.94-10.48,2.16-11.49,4.53l1.24,0.53
		c0.65-1.53,5.59-4.6,9.99-3.74c4,0.79,6.17,4.68,6.26,11.25c0.09,6.33-3.67,10.94-10.06,12.35c-6.97,1.53-16.39-1.38-20.12-9.78
		c-0.61-1.38-1.05-2.87-1.3-4.31c0.47-21.12,16.06-22.65,41.68-22.65c20.51,0,25.45-18.66,26.48-24.43
		C357.13,163.49,359.75,170.01,362.04,175.72z M270.56,227.55c-0.59-1.8-1.15-3.68-1.66-5.49c5.21-2.64,11.4-7.03,15.7-12.84
		c1.54,3.31,3.92,5.8,6.66,7.55c-3.47,9.22-10.75,15.83-17.42,19.79C272.69,233.63,271.54,230.57,270.56,227.55z M292.44,217.46
		c3.05,1.64,6.46,2.44,9.69,2.44c0.61,0,1.22-0.04,1.81-0.09c-3.22,16.31-13.69,26.22-23.35,31.55c-2.26-4.33-4.39-8.95-6.25-13.52
		C281.25,233.78,288.8,226.97,292.44,217.46z M351.43,155.45c-0.15,1.22-0.96,6.78-4.01,12.26c-4.57,8.2-11.75,12.37-21.35,12.37
		c-21.85,0-42.49,0-43.02,24.09c0.21,1.26,0.56,2.45,0.98,3.6c-4.19,5.89-10.33,10.33-15.49,12.99c-2.85-10.4-4.61-21.31-5.25-31.84
		c15.83-15.09,37.19-18.99,51.08-20.78c12.21-1.58,20.3-6.78,24.94-10.87c3.8-3.35,5.95-6.47,6.81-7.87
		C348.13,151.38,349.88,153.41,351.43,155.45z M338.92,143.3c2.31,1.67,4.35,3.39,6.2,5.15c-1.57,2.6-10.43,15.71-30.92,18.36
		c-13.84,1.79-35.02,5.65-50.96,20.25c-0.28-6.15-0.06-12.99,0.39-19.1c13.94-10.72,27.59-12.77,42.78-13.83l0.15-0.01
		c19.55-1.36,29.26-9.64,31.2-11.49C338.48,143.02,338.88,143.27,338.92,143.3z M336.51,141.93c-2.46,2.18-12.07,9.57-30.04,10.83
		l-0.15,0.01c-15.14,1.06-28.74,2.92-42.56,13.21c0.51-5.74,1.43-12.51,2.57-18.3C296.74,126.45,328.05,137.5,336.51,141.93z
		 M182.15,102.32c0.46,0.03,1.8,1.21,2.44,1.78c0.77,0.68,1.43,1.26,1.96,1.5c0.02,0.01,0.04,0.02,0.06,0.02
		c1.19,3.42,4.42,7.88,6.6,10.89c0.68,0.94,1.27,1.75,1.65,2.32c1.24,1.9,3.83,5.85,3.98,8.85c0.01,0.24,0.22,0.43,0.46,0.42
		c0.02,0,0.03,0,0.05-0.01c0.22-0.04,0.38-0.23,0.37-0.46c-0.17-3.24-2.84-7.32-4.13-9.29c-0.39-0.59-0.98-1.41-1.67-2.36
		c-2.04-2.81-5.01-6.91-6.29-10.13c0.25,0.02,0.5,0.02,0.73,0.02c0.52,0,0.97,0,1.34,0.21c0.34,0.19,0.6,0.54,0.89,0.94
		c0.27,0.37,0.57,0.78,0.98,1.11c0.51,0.89,1.22,1.78,1.95,2.7c0.66,0.83,1.33,1.68,1.95,2.62c0.57,0.86,1.07,1.84,1.45,2.85
		c0.08,0.2,0.28,0.31,0.49,0.28c0.03,0,0.06-0.01,0.08-0.02c0.23-0.09,0.34-0.34,0.26-0.57c-0.4-1.06-0.94-2.11-1.54-3.02
		c-0.64-0.97-1.33-1.84-2-2.68c-0.35-0.44-0.7-0.88-1.02-1.31c0.03,0.01,0.06,0.02,0.08,0.03c0.6,0.23,1.12,0.43,1.54,0.84
		c3.53,3.51,5.33,10.15,6.08,13.79c0.74,3.57,0.49,6.1-0.75,7.52c-0.07,0.08-0.17,0.17-0.28,0.27c-0.11-0.21-0.22-0.41-0.35-0.6
		c-0.23-0.33-0.49-0.66-0.74-0.98c-0.77-0.97-1.49-1.88-1.59-3.02c-0.02-0.24-0.24-0.42-0.48-0.4c-0.24,0.02-0.42,0.24-0.4,0.48
		c0.12,1.4,0.96,2.46,1.78,3.49c0.25,0.32,0.49,0.62,0.71,0.94c0.16,0.23,0.3,0.49,0.42,0.76c-0.06,0.08-0.12,0.17-0.17,0.27
		c-0.44,0.85-0.95,1.52-1.49,2.04c-0.16-0.78-0.36-1.5-0.54-2.09c-0.07-0.23-0.32-0.37-0.55-0.29c-0.23,0.07-0.37,0.32-0.29,0.55
		c0.21,0.69,0.45,1.56,0.61,2.47c-0.78,0.55-1.6,0.84-2.38,0.99c-0.23-0.13-0.44-0.27-0.63-0.43c-2.04-1.66-3.11-4.61-3.8-6.99
		c-0.24-0.82-0.47-1.65-0.7-2.46c-0.68-2.44-1.39-4.96-2.36-7.39c-0.34-0.85-0.76-1.68-1.17-2.49c-0.61-1.22-1.25-2.48-1.59-3.77
		c-0.22-0.84-0.15-1.72-0.07-2.65c0.08-0.96,0.17-1.96-0.09-2.95c-0.24-0.91-0.76-1.63-1.26-2.32c-0.07-0.09-0.14-0.19-0.21-0.28
		c-0.36-0.51-0.64-1.03-0.83-1.58C181.83,102.56,181.97,102.4,182.15,102.32z M204.22,197.11c-2.79,4.38-4.54,8.92-5.8,12.86
		c-0.5-2.61-0.16-5.3,0.18-8.11l0.07-0.55c0.01-0.12,0.03-0.23,0.04-0.35l0.02-0.15c0.03-0.29,0.06-0.51,0.07-0.72
		c0.01-0.19,0.02-0.38,0.03-0.57c0.22-4.51-0.37-8.74-1.75-12.68c0.81-2.81,1.34-5.73,1.56-8.64c1.98-1.91,3.54-4.17,5.05-6.36
		c0.94-1.37,1.92-2.78,2.97-4.07c3.66-4.48,10.08-12.35,16.99-13.93c-1.06,1.12-2.16,2.66-3.29,4.28c-0.29,0.42-0.54,0.79-0.72,1.03
		l-0.44,0.58c-1.99,2.66-4.05,5.42-6.67,7.52c-0.65,0.52-1.32,1.04-1.97,1.55c-4.06,3.15-8.26,6.41-9.55,11.95
		C199.9,185.53,200.95,190.88,204.22,197.11z M215.66,291.2c-0.13-0.29-0.25-0.58-0.35-0.87c-3.82-10.41,0.86-20.98,3.99-26.35
		c1.7-2.92,3.78-5.31,5.99-7.84c0.85-0.98,1.74-2,2.6-3.05c1.1-1.34,2.06-2.87,3-4.35c1.4-2.22,2.84-4.5,4.76-6.18
		c-1,2.92-1.98,5.68-3.49,8.35c-2.05,3.6-4.14,6.44-6.16,9.19c-3.27,4.44-6.36,8.64-8.54,15.16
		C215.58,280.85,214.98,286.34,215.66,291.2z M213.92,290.84c0.53,1.43,1.29,2.84,2.32,4.29c-1.07,0.45-2.28,1.13-3.42,2
		c-1.01-1.76-1.88-3.48-2.64-5.24c-1.22-2.81-2-5.84-2.76-8.77c-1.12-4.35-2.28-8.86-4.9-12.75c-0.14-0.2-0.41-0.26-0.61-0.12
		c-0.2,0.14-0.26,0.41-0.12,0.61c2.53,3.76,3.68,8.19,4.78,12.47c0.76,2.96,1.56,6.03,2.8,8.9c0.8,1.84,1.7,3.63,2.76,5.46
		c-0.44,0.38-0.86,0.8-1.25,1.24c-1.68-2.93-4.36-5.79-4.93-6.38c-4.75-4.94-5.13-7.68-5.82-12.66c-0.12-0.89-0.25-1.81-0.42-2.83
		c-0.04-0.24-0.27-0.41-0.51-0.37c0,0,0,0,0,0c-0.24,0.04-0.4,0.27-0.36,0.51c0.16,1.02,0.29,1.93,0.41,2.82
		c0.7,5,1.11,8.01,6.06,13.16c0.57,0.6,3.37,3.57,4.97,6.5c-0.49,0.67-0.9,1.4-1.19,2.17c-4.27-5.26-9.8-10.5-13.29-13.48
		c-1.92-5.69-2.56-12.73-1.9-20.95c0.03-0.36,0.01-1.07-0.01-1.95c-0.04-1.36-0.12-4.45,0.18-5.24c0.46-0.07,1.18,0.16,1.72,0.33
		c0.16,0.05,0.31,0.1,0.44,0.14c5.57,1.61,10.89,5.86,14.24,11.37c0.68,1.12,1.27,2.34,1.85,3.52c0.19,0.39,0.38,0.78,0.58,1.18
		C212.1,281.15,212.14,286,213.92,290.84z M231.79,326.85c-3.18-2.91-6.62-5.38-10.83-5.92c-0.6-0.55-1.07-1-1.28-1.25
		c-1.23-1.43-2.41-2.93-3.52-4.44l-0.24-0.32c-0.25-0.34-0.5-0.68-0.74-1.01c0.17-2.81-1.96-6.66-4.97-10.61
		c0.62-3.36,4.22-5.86,6.76-6.87c0.03,0.08,0.06,0.15,0.09,0.23c1.62,4.11,4.69,7.09,7.66,9.97c2.2,2.13,4.48,4.34,6.09,6.96
		c1.62,2.64,3.62,5,5.69,7.24C233.83,322.91,232.47,325.1,231.79,326.85z M237.53,321.9c0.47,0.5,0.95,1,1.42,1.49
		c0.57,0.6,1.16,1.22,1.74,1.83c0.13,0.14,0.26,0.28,0.4,0.42c2.22,2.35,5.25,5.56,4.56,8.82c-0.15,0.72-0.5,1.17-1.05,1.37
		c-1.28,0.47-3.39-0.37-4.42-1.16c-1.73-1.33-3.41-2.99-5.18-4.74c-0.67-0.66-1.34-1.33-2.02-1.98
		C233.49,326.3,234.71,324.06,237.53,321.9z M189.56,286.75c1.64,2.99,4.2,5.08,6.67,7.11c1.35,1.1,2.74,2.25,3.96,3.51
		c2.24,2.33,4.01,5.12,5.73,7.81c0.94,1.48,1.91,3.01,2.95,4.45l0.15,0.2c0.7,0.97,2.48,3.42,3.81,5.53
		c-0.12,0.14-0.24,0.31-0.35,0.52c-0.19-0.34-0.39-0.68-0.59-1.01c-2.34-3.66-5.45-6.62-8.46-9.27c-0.18-0.16-0.46-0.14-0.62,0.04
		c-0.16,0.18-0.14,0.46,0.04,0.62c2.96,2.61,6.02,5.52,8.29,9.09c0.3,0.47,0.58,0.98,0.85,1.48c0.03,0.05,0.05,0.09,0.08,0.14
		c-0.03,0.11-0.05,0.21-0.08,0.31c-0.17,0.72-0.33,1.4-1.1,2.16c-0.46-0.31-0.92-0.67-1.39-1.09c-2.7-2.41-4.94-5.52-7.11-8.52
		l-0.5-0.69c-1.63-2.26-3.22-4.6-4.76-6.87c-1.04-1.53-2.12-3.12-3.2-4.67c-0.5-0.71-1.04-1.42-1.57-2.1
		c-1.06-1.38-2.17-2.81-2.93-4.35c-0.48-0.96-0.94-2.4-1.43-3.93c-0.69-2.14-1.46-4.53-2.46-6.18c0.96,0.34,3.62,3.13,4.93,4.5
		c1,1.05,1.79,1.87,2.26,2.23c2.33,1.77,7.87,6.66,12.85,12.26c5.55,6.24,8.42,11.18,8.11,13.94c-0.1,0.27-0.2,0.47-0.3,0.63
		c-1.33-2.06-2.99-4.36-3.66-5.29l-0.15-0.2c-1.03-1.42-1.99-2.94-2.92-4.41c-1.74-2.73-3.53-5.56-5.84-7.95
		c-1.26-1.3-2.67-2.46-4.04-3.58c-2.52-2.07-4.91-4.02-6.46-6.85c-0.12-0.21-0.39-0.29-0.6-0.18
		C189.52,286.27,189.45,286.54,189.56,286.75z M204.02,248.02c-0.43-0.35-0.88-0.65-1.32-0.96c-0.63-0.43-1.22-0.83-1.73-1.32
		c-2.04-1.98-3.32-4.76-4.55-7.46c-0.22-0.48-0.43-0.95-0.65-1.41c-1.32-2.81-2.47-5.28-3.5-7.57c-0.07-0.16-0.15-0.33-0.22-0.49
		c1.1-0.45,1.98-0.95,2.98-1.54c2.66-1.57,4.89-3.56,6.51-5.76c0.04-0.04,0.07-0.09,0.1-0.14c0.27-0.38,0.53-0.77,0.77-1.16
		c0.86,2,1.86,3.81,2.91,5.7c1.39,2.51,2.83,5.1,3.94,8.23c0.59,1.66,0.84,3.53,1.08,5.33c0.23,1.71,0.47,3.45,0.98,5.1
		C209.76,246.58,207.02,247.87,204.02,248.02z M211.92,246.15c0.13,0.27,0.26,0.54,0.42,0.8c1,1.75,1.82,6.34,0.86,9.85
		c-0.36,1.31-0.92,2.3-1.67,2.97c-0.9-2.31-2.18-4.53-3.75-6.46c-0.25-0.31-0.52-0.62-0.78-0.91c-0.61-1.22-1.14-2.29-1.67-3.02
		c0.1-0.01,0.2-0.03,0.3-0.05C208.15,248.91,210.37,247.79,211.92,246.15z M194.43,237.51c0.22,0.46,0.43,0.92,0.64,1.39
		c1.29,2.82,2.63,5.73,4.87,7.9c0.6,0.58,1.27,1.04,1.92,1.48c0.02,0.01,0.04,0.03,0.06,0.04c-0.91-0.49-1.84-0.89-2.79-1.19
		c-0.37-0.12-0.74-0.19-1.11-0.24c-0.23-0.19-0.46-0.38-0.7-0.57c-1.59-1.3-3.23-2.64-4.37-4.26c-0.56-0.79-0.98-1.64-1.43-2.54
		c-0.66-1.31-1.34-2.67-2.46-3.84c-1.2-1.26-2.8-2.59-4.48-3.98c-2.98-2.47-6.3-5.23-8.09-8.22c1.98,0.14,4.03,0.67,6.24,1.6
		c0.7,0.3,1.97,0.97,3.31,1.68c1.65,0.87,3.35,1.77,4.47,2.23c0.14,0.31,0.28,0.62,0.42,0.93
		C191.95,232.21,193.1,234.7,194.43,237.51z M201.17,258.44c-0.42-0.48-0.73-0.91-0.96-1.33c-1.01-1.79-1.28-3.06-1.56-4.4
		c-0.27-1.31-0.56-2.66-1.58-4.43c0.56,0.04,1.1,0.1,1.62,0.26c1.66,0.52,3.18,1.35,4.55,2.38c1.71,3.59,2.35,6.53,2.05,9.43
		c-0.02,0.24,0.15,0.46,0.4,0.48c0.04,0,0.08,0,0.12,0c0.19-0.03,0.35-0.19,0.37-0.39c0.26-2.6-0.17-5.2-1.39-8.2
		c3.24,3.07,5.41,7.28,6.25,10.9c0.55,2.38,0.73,5.03,0.52,7.9c-3.47-5.57-8.63-9.74-14.3-11.57c-1.52-1.73-2.02-3.14-2.84-6.06
		c-0.09-0.31-0.18-0.68-0.29-1.11c-0.32-1.27-0.74-2.91-1.37-4.5c0.26,0.04,0.52,0.09,0.8,0.13c0.35,0.06,0.71,0.12,1.08,0.18
		c0.47,0.07,0.92,0.1,1.37,0.12c1.19,1.9,1.48,3.25,1.77,4.66c0.28,1.35,0.58,2.75,1.66,4.65c0.27,0.47,0.61,0.94,1.07,1.47
		c0.1,0.12,0.26,0.17,0.41,0.15c0.08-0.01,0.15-0.05,0.22-0.1C201.31,258.9,201.33,258.62,201.17,258.44z M212.47,262.8
		c-0.12-0.52-0.27-1.04-0.43-1.56c1.21-0.86,2.08-2.22,2.58-4.06c1-3.68,0.27-8.74-1.01-10.97c-1.16-2.02-1.48-4.4-1.82-6.92
		c-0.25-1.88-0.51-3.82-1.15-5.63c-1.15-3.25-2.62-5.9-4.04-8.46c-1.25-2.26-2.43-4.39-3.37-6.85c0-0.72,0.17-1.84,0.46-3.19
		c1.68,2.42,3.02,4.6,4.13,6.4c1.52,2.47,2.61,4.25,3.72,5.33c0.94,0.92,1.89,1.3,2.88,1.13c0.21-0.03,0.42-0.09,0.63-0.18
		c4.97,12.23,1.39,26.98-1,36.8c-0.34,1.4-0.66,2.71-0.93,3.92C213.1,266.53,212.89,264.59,212.47,262.8z M214.9,226.29
		c-0.74,0.44-1.36,0.51-2.33-0.44c-0.98-0.96-2.09-2.76-3.49-5.05c-0.7-1.14-1.5-2.43-2.41-3.84c0.48-0.92,2.49-3.12,5.55-3.64
		c0.07,0.18,0.13,0.35,0.2,0.53c0.5,1.33,1.02,2.71,1.57,4.07l0.07,0.17c0.54,1.31,1.09,2.67,1.49,4.04
		C216.19,224.38,216,225.63,214.9,226.29z M205.79,215.62c-0.51-0.76-1.05-1.55-1.63-2.36c0.8-3,2.09-6.64,3.67-9.71
		c0.8,1.44,1.59,2.94,2.25,4.42c0.58,1.29,1.1,2.61,1.61,3.93C208.83,212.48,206.78,214.26,205.79,215.62z M207.19,201.66
		c-0.01,0.02-0.02,0.03-0.03,0.05c-1.98,3.48-3.55,7.88-4.48,11.43c-0.02,0.05-0.04,0.11-0.04,0.17c-0.55,2.13-0.86,3.93-0.87,5.01
		c-0.16,0.34-0.34,0.67-0.53,1c-0.31-0.78-0.7-1.54-1.15-2.23c-0.48-0.74-1.01-1.36-1.57-1.89c0.06-0.25,0.13-0.5,0.19-0.75
		c0.21-0.86,0.43-1.75,0.69-2.6c1.78-5.89,3.75-10.42,6.25-14.24c0.04-0.05,0.08-0.1,0.1-0.16c1.07-1.63,2.24-3.13,3.54-4.55
		c3.08-3.39,5.28-5.34,7.04-6.91c3.3-2.93,5.48-4.87,9.83-12.75c1.36-2.46,3.01-4.33,5.03-5.68c-1.74,2.44-2.96,5.64-3.97,8.27
		c-0.31,0.82-0.61,1.59-0.88,2.23c-2.76,6.5-7.11,10.7-11.73,15.16c-1.57,1.51-3.19,3.08-4.8,4.78
		C208.88,198.98,208,200.24,207.19,201.66z M178.1,178.35c13.45,6.26,14.66,18.05,15.54,26.66c0.36,3.47,0.66,6.42,1.65,8.44
		c-0.6-0.15-1.22-0.22-1.89-0.22c-0.11,0-0.23,0-0.34,0.01c-0.71-2.17-0.94-4.6-1.18-6.96c-0.16-1.63-0.32-3.31-0.64-4.87
		c-0.91-4.46-3.6-8.35-5.7-10.82c-3.27-3.86-7.53-6.42-12.66-7.61c-2.37-0.55-4.59-0.3-6.74,0c-0.32-0.41-0.63-0.84-0.94-1.3
		c1.73-1.02,3.4-2.5,5.16-4.06c2.65-2.35,5.39-4.77,8.37-5.57c1.97-0.53,3.88-0.3,5.82,0.72c0.05,0.04,0.1,0.06,0.16,0.09
		c1.29,0.7,2.59,1.75,3.94,3.17c6.22,6.52,9.16,14.4,8.72,23.43c-0.01,0.18-0.02,0.35-0.03,0.53c-0.01,0.19-0.03,0.4-0.07,0.66
		l-0.02,0.15c-0.01,0.11-0.03,0.23-0.04,0.34l-0.07,0.55c-0.44,3.59-0.9,7.3,0.5,10.91c-0.13,0.51-0.26,1.02-0.39,1.52
		c-0.01,0.05-0.02,0.09-0.03,0.14c-0.2-0.12-0.41-0.23-0.62-0.33c-1.34-1.77-1.68-5.02-2.08-8.99c-0.91-8.82-2.15-20.9-16.05-27.37
		c-0.22-0.1-0.49-0.01-0.59,0.21C177.78,177.99,177.87,178.25,178.1,178.35z M191.57,213.38c-1.83,0.3-3.72,0.97-5.56,1.63
		c-0.38,0.14-0.76,0.27-1.15,0.41c-0.58,0.2-1.21,0.42-1.87,0.63c-0.66-0.4-1.34-0.84-2.01-1.33c-3.31-2.41-5.96-5.57-8.13-8.34
		c-1.74-2.23-3.19-4.31-4.42-6.34c-0.42-0.68-0.83-1.39-1.22-2.07c-1.07-1.83-2.17-3.73-3.5-5.43c-1.03-1.32-2.27-2.46-3.46-3.57
		c-0.54-0.5-1.1-1.02-1.63-1.54c-1.65-1.63-2.93-3.5-3.83-5.56c1.31,1.64,3.12,3.03,6.02,3.1c1.7,0.04,3.32-0.2,4.89-0.43
		c2.32-0.34,4.51-0.66,6.85-0.12c4.81,1.11,8.81,3.51,11.87,7.12c1.98,2.34,4.53,6,5.38,10.16c0.3,1.48,0.46,3.06,0.62,4.72
		C190.65,208.75,190.89,211.15,191.57,213.38z M169.87,176.09c-0.41-0.96-0.94-1.86-1.45-2.74c-0.87-1.47-1.68-2.87-1.94-4.47
		c-0.05-0.29-0.02-0.45-0.01-0.52c0.1,0.02,0.3,0.09,0.59,0.32c0.8,0.64,1.49,1.72,2.08,3.3c0.43,1.15,0.78,2.41,1.05,3.84
		C170.08,175.91,169.98,176,169.87,176.09z M173.84,172.87c-0.81,0.57-1.6,1.19-2.37,1.84c-0.26-1.18-0.57-2.25-0.95-3.25
		c-0.02-0.05-0.04-0.1-0.06-0.15c0.58-0.33,1.23-0.6,1.92-0.81C172.83,171.32,173.33,172.1,173.84,172.87z M172.8,165.61
		c0.11-0.15,0.21-0.18,0.33-0.19c0.5-0.02,1.3,0.54,1.76,1.07c0.95,1.1,1.74,2.81,2.14,4.59c-0.67,0.27-1.32,0.6-1.95,0.98
		c-0.84-1.25-1.66-2.55-2.13-3.91C172.67,167.35,172.35,166.22,172.8,165.61z M184.02,141.43c0.38-0.06,0.75-0.18,1.1-0.36
		c0.42-0.21,0.78-0.49,1.09-0.83c0.79,1.01,1.84,2.57,1.65,3.61c-0.05,0.24-0.18,0.61-0.79,0.94c-0.4,0.22-0.8,0.25-1.23,0.08
		c-1-0.38-1.92-1.67-2.28-2.69c-0.08-0.23-0.15-0.46-0.22-0.71C183.57,141.49,183.8,141.47,184.02,141.43z M181.6,139.4
		c-0.73-0.52-1.22-1.19-1.6-1.95c0,0,0-0.01,0-0.01c-0.35-0.69-0.6-1.45-0.87-2.24c-0.07-0.22-0.15-0.45-0.23-0.67
		c0.21-0.02,0.41-0.04,0.61-0.07c1.15-0.19,2.19-0.69,2.98-1.45c0.06-0.06,0.12-0.12,0.18-0.18c0.36,0.45,0.71,0.86,1.05,1.2
		c0.64,0.64,1.24,1.13,1.82,1.52c0.23,0.63,0.33,1.19,0.32,1.7c-0.01,0.54-0.13,1.02-0.34,1.44c0,0.01-0.01,0.02-0.01,0.03
		c-0.24,0.46-0.6,0.82-1.06,1.05C183.59,140.19,182.52,140.06,181.6,139.4z M186.44,152.79c0.2,0.32,0.42,0.65,0.66,1
		c2.55,3.88,6.82,10.37,8.03,19.73c0.03,0.24,0.25,0.41,0.5,0.38c0.01,0,0.01,0,0.02,0c0.23-0.04,0.4-0.26,0.37-0.49
		c-1.25-9.56-5.58-16.16-8.17-20.1c-0.12-0.19-0.24-0.37-0.36-0.55c3.06,1.45,5.27,5.58,6.6,8.07c2.25,4.21,3.33,9.59,3.19,15.25
		c-0.06,0.55-0.09,1.09-0.07,1.6c-0.15,2.28-0.49,4.58-1.03,6.86c-0.44-0.99-0.94-1.97-1.48-2.92c-0.11-9.31-5.23-15.91-10.65-22.89
		c-0.51-0.66-1.03-1.33-1.55-2C183.72,154.86,185.39,153.3,186.44,152.79z M198.56,170.96c-0.43-4.02-1.51-7.72-3.17-10.82
		c-1.89-3.54-4.19-7.43-7.59-8.85c-0.17-0.07-0.34-0.11-0.52-0.13c-0.15-1.6-0.18-3.22-0.09-4.82c0.2-0.06,0.41-0.14,0.6-0.25
		c0.86-0.47,1.37-1.13,1.52-1.96c0.31-1.69-0.99-3.63-2.28-5.22c0.19-0.5,0.3-1.05,0.31-1.64c0-0.27-0.01-0.55-0.06-0.84
		c0.86,0.33,1.76,0.53,2.78,0.77c0.27,0.06,0.54,0.13,0.83,0.19c0.1,0.28,0.2,0.55,0.28,0.79c0.08,0.23,0.16,0.46,0.25,0.7
		c1.02,2.9,2.17,6.18,4.66,8.3c0.38,0.32,0.79,0.58,1.23,0.78c0.25,1.07,0.58,2.17,1.31,3.19c0.92,1.28,2.74,2.01,4.23,1.76
		c0.1-0.02,0.19-0.04,0.28-0.06c1.29,3.36-0.76,8.44-2.75,13.37C199.75,167.78,199.1,169.39,198.56,170.96z M202.82,151.39
		c-0.95,0.29-2.36-0.23-3-1.12c-0.42-0.59-0.68-1.23-0.88-1.9c0.4,0.03,0.8,0.02,1.2-0.05c0.42-0.07,0.84-0.2,1.24-0.39
		c0.5-0.24,0.94-0.56,1.31-0.94c0.61,0.93,1.07,1.92,1.04,2.98C203.71,150.75,203.41,151.21,202.82,151.39z M200.75,146.6
		c-1.19,0.57-2.65,0.35-3.71-0.55c-2.18-1.86-3.27-4.94-4.22-7.66c-0.08-0.24-0.17-0.47-0.25-0.71c-0.01-0.02-0.01-0.03-0.02-0.05
		c0.6,0.03,1.29,0.02,2.02-0.1c1.41-0.24,2.97-0.87,4.31-2.31c1.45,2.3,3.49,5.81,3.55,8.56
		C202.45,145.05,201.84,146.08,200.75,146.6z M180.44,112.97c0.19-1.29,0.41-2.76,0.3-4.67c-0.01-0.21-0.03-0.41-0.06-0.62
		c0.05-0.37,0.1-0.77,0.15-1.17c0.09-0.81,0.21-1.78,0.41-2.59c0.16,0.32,0.35,0.63,0.57,0.93c0.07,0.1,0.14,0.19,0.21,0.29
		c0.48,0.66,0.93,1.28,1.13,2.03c0.22,0.84,0.15,1.72,0.07,2.65c-0.08,0.96-0.17,1.96,0.09,2.95c0.37,1.38,1.02,2.68,1.66,3.94
		c0.4,0.79,0.81,1.61,1.13,2.42c0.95,2.38,1.65,4.88,2.33,7.3c0.23,0.81,0.46,1.65,0.7,2.47c0.72,2.44,1.81,5.45,3.93,7.28
		c-0.72-0.01-1.34-0.11-1.79-0.22c-0.31-0.07-0.6-0.14-0.89-0.21c-0.27-0.06-0.53-0.12-0.77-0.18c-0.77-0.76-1.44-1.54-2-2.32
		c-1.15-1.61-1.78-3.41-2.45-5.31c-0.31-0.9-0.64-1.82-1.02-2.72c-0.41-0.96-0.95-1.84-1.47-2.69c-0.34-0.56-0.69-1.13-1-1.72
		C179.8,117.23,180.08,115.35,180.44,112.97z M177.53,115.12c0.19-1.3,0.82-2.33,1.49-3.42c0.29-0.48,0.58-0.96,0.85-1.48
		c-0.05,0.96-0.18,1.8-0.3,2.62c-0.37,2.44-0.68,4.55,1.33,8.39c0.32,0.61,0.68,1.2,1.03,1.77c0.53,0.86,1.02,1.67,1.41,2.57
		c0.37,0.87,0.69,1.78,1,2.67c0.66,1.88,1.34,3.83,2.56,5.53c0.32,0.45,0.67,0.89,1.06,1.33c-1.09-0.39-2.05-0.97-3.19-2.12
		C181.53,129.73,176.82,119.87,177.53,115.12z M169.43,111.06c0.39,0.17,0.75,0.39,1.14,0.62c0.6,0.36,1.22,0.73,1.96,0.96
		c0.07,0.02,0.15,0.04,0.22,0.07c-0.29,1.73-0.14,3.46,0.45,5.15c0.07,0.21,0.28,0.33,0.49,0.29c0.02,0,0.05-0.01,0.07-0.02
		c0.23-0.08,0.35-0.33,0.27-0.56c-0.53-1.52-0.67-3.08-0.43-4.64c0.32,0.07,0.63,0.13,0.92,0.18c0.72,0.13,1.32,0.25,1.86,0.48
		c-0.14,0.41-0.26,0.85-0.33,1.31c-0.48,3.24,1.16,7.76,2.19,10.17c1.03,2.42,2.28,4.72,3.51,6.53c-0.1,0.12-0.2,0.23-0.3,0.34
		c-0.3,0.28-0.64,0.51-1.02,0.69c-0.89-0.61-1.74-1.41-2.6-2.43c-2.24-2.65-4.07-5.6-5.45-8.76c-0.33-0.76-0.65-1.55-0.95-2.31
		c-0.6-1.49-1.22-3.04-2.01-4.5c-0.44-0.81-0.97-1.6-1.48-2.37c-0.29-0.44-0.59-0.89-0.87-1.34
		C167.68,110.56,168.76,110.76,169.43,111.06z M177.21,132.95c-3.3-0.69-6.02-3.75-8.31-6.56c-0.12-0.14-0.24-0.29-0.36-0.44
		c-0.75-0.91-1.6-1.93-1.91-2.97c-0.23-0.78-0.09-1.7,0.07-2.61c0.83,1.34,1.81,2.6,2.76,3.83c0.65,0.83,1.32,1.69,1.93,2.56
		c0.12,0.17,0.55,0.9,1.02,1.66c1.53,2.55,1.74,2.86,1.9,2.97c0.1,0.07,0.22,0.09,0.33,0.08c0.11-0.02,0.22-0.08,0.29-0.18
		c0.13-0.18,0.1-0.43-0.06-0.58c-0.19-0.23-1.09-1.74-1.7-2.74c-0.57-0.94-0.92-1.53-1.05-1.72c-0.62-0.89-1.3-1.76-1.96-2.6
		c-1.21-1.55-2.36-3.03-3.24-4.67c0-0.02,0.01-0.04,0.01-0.06c0.18-1.63,0.03-3.29-0.12-4.88l-0.02-0.26
		c-0.01-0.15-0.03-0.31-0.05-0.48c-0.05-0.42-0.12-0.96-0.09-1.42c0.19,0.3,0.39,0.59,0.58,0.88c0.5,0.75,1.02,1.52,1.44,2.3
		c0.77,1.42,1.38,2.94,1.97,4.41c0.31,0.77,0.62,1.56,0.96,2.34c1.41,3.24,3.29,6.26,5.59,8.98c0.74,0.88,1.48,1.6,2.25,2.19
		C178.73,133.11,177.97,133.11,177.21,132.95z M179.54,139.46c0.34,0.42,0.73,0.81,1.21,1.14c0.32,0.22,0.65,0.41,0.98,0.54
		c0.13,0.53,0.28,1.05,0.45,1.53c0.47,1.32,1.65,3.01,3.14,3.58c0.13,0.05,0.26,0.09,0.39,0.12c-0.09,1.69-0.05,3.4,0.12,5.09
		c-1.57,0.73-3.24,2.58-4.28,4.03c-1.31-1.74-2.6-3.54-3.77-5.41c-0.34-0.54-0.66-1.09-0.96-1.64
		C177.64,145.44,178.55,142.42,179.54,139.46z M172.43,142.74c0.06-0.34,0.12-0.69,0.17-1.04c0.06,0.2,0.11,0.41,0.17,0.61
		c0.75,2.87,2.01,5.74,3.76,8.54c1.38,2.21,2.91,4.3,4.46,6.33c0,0.01,0.01,0.01,0.02,0.02c0.62,0.82,1.25,1.62,1.87,2.42
		c4.73,6.09,9.23,11.89,10.17,19.4c-0.98-1.39-2.09-2.73-3.32-4.02c-1.35-1.42-2.7-2.51-4.04-3.29c-0.54-4.88-2.28-8.98-5.3-12.54
		c-0.6-0.71-1.21-1.42-1.81-2.12c-2.27-2.65-4.44-5.19-6.41-7.84c0-0.07,0-0.15,0-0.22c0-0.5-0.04-0.99-0.07-1.46
		c-0.04-0.58-0.08-1.12-0.06-1.66C172.06,144.84,172.25,143.77,172.43,142.74z M163.42,140.5c-0.01-0.02-0.03-0.04-0.04-0.06
		c1.7,1.35,3.91,4.17,5.04,5.96c2.6,4.11,5.73,7.76,9.03,11.62c0.6,0.7,1.2,1.4,1.8,2.11c2.63,3.1,4.21,6.65,4.83,10.82
		c-1.86-0.72-3.74-0.83-5.64-0.34c-0.46-1.97-1.34-3.82-2.43-5.08c-0.52-0.61-1.73-1.63-2.93-1.58c-0.59,0.02-1.1,0.29-1.46,0.78
		c-0.97,1.31-0.31,3.19-0.07,3.9c0.06,0.17,0.13,0.35,0.2,0.52c-0.14,0.04-0.27,0.09-0.4,0.14c-1.6-2.68-3.52-6.58-3.55-11.11
		C167.77,152.06,167.73,145.73,163.42,140.5z M163.26,154.19c0.17,0.13,0.4,0.3,0.69,0.53c0.07,0.06,0.13,0.1,0.16,0.12
		c0.83,0.62,1.55,1.19,2.21,1.74c0.01,0.54,0.01,1.07,0.01,1.61c0.03,4.79,1.99,8.87,3.66,11.7c-0.04,0.02-0.08,0.04-0.12,0.07
		c-0.55-1.07-1.16-1.86-1.89-2.44c-0.46-0.36-0.92-0.57-1.34-0.63C166.12,165.87,162.43,158.46,163.26,154.19z M163.86,176.26
		c1.2-0.64,2.22-1.48,3.2-2.32c0.03,0.05,0.06,0.1,0.09,0.15c0.6,1.02,1.17,2,1.55,3.03c-1.47,1.29-2.88,2.48-4.27,3.3
		c-0.14-0.23-0.27-0.47-0.4-0.71c-0.36-0.66-0.75-1.48-1.17-2.35c-0.09-0.18-0.18-0.37-0.27-0.55
		C163.02,176.67,163.44,176.49,163.86,176.26z M161.53,178.01c0.42,0.88,0.82,1.72,1.2,2.42c0.55,1.01,1.14,1.95,1.75,2.8
		c-1.19,0.16-2.41,0.3-3.63,0.27c-2.39-0.05-4.06-1.13-5.74-3.72c-0.22-1.03-0.17-2.14-0.12-3.31c0.05-1.13,0.11-2.31-0.1-3.43
		c-0.12-0.67-0.38-1.29-0.62-1.89c-0.32-0.78-0.62-1.51-0.6-2.25C157.37,169.31,159.77,174.34,161.53,178.01z M153.1,183.61
		c0.12-1.19,0.27-2,0.41-2.56c0.95,2.64,2.45,4.99,4.49,7.01c0.54,0.53,1.1,1.06,1.65,1.56c1.17,1.08,2.37,2.2,3.36,3.47
		c1.3,1.66,2.38,3.52,3.43,5.33c0.4,0.69,0.81,1.4,1.23,2.09c1.25,2.06,2.72,4.16,4.48,6.42c2.2,2.82,4.91,6.04,8.3,8.51
		c0.47,0.34,0.94,0.66,1.41,0.96c-0.45,0.14-0.92,0.27-1.4,0.41c-0.46-0.27-0.9-0.52-1.29-0.73c-1.92-1.07-3.96-1.9-5.92-2.71
		c-1.58-0.65-3.22-1.32-4.77-2.1c-9.61-4.87-15.45-13.52-15.61-23.14C152.88,187.54,152.9,185.59,153.1,183.61z M148.26,193.9
		c0.44-0.47,0.75-0.81,1.33-0.93c0.69-0.14,1.49-0.12,2.38,0.07c0.44,2.09,1.14,4.12,2.09,6.04c-0.66-0.57-1.25-1.1-1.78-1.57
		c-1.75-1.56-2.94-2.62-4.4-3.21C148.02,194.16,148.14,194.02,148.26,193.9z M144.06,196.98c0.51-0.47,1.12-0.83,1.75-1.21
		c0.42-0.25,0.86-0.52,1.28-0.82c1.52,0.47,2.67,1.5,4.59,3.21c0.64,0.57,1.36,1.22,2.21,1.94c0.49,0.42,0.93,0.79,1.35,1.13
		c0.99,1.62,2.16,3.16,3.5,4.59c-5.93-0.33-10.96,0.88-17.39,2.56c-0.59-1.39-0.89-2.54-0.89-3.41
		C140.45,202.48,142.14,198.74,144.06,196.98z M136.15,205.51c0.55,0.72,1.44,1.4,2.47,1.68c0.06,0.02,0.13,0.02,0.19,0.01
		c0.16-0.03,0.31-0.15,0.35-0.32c0.07-0.24-0.07-0.48-0.31-0.54c-1.16-0.32-1.97-1.2-2.28-1.8c0.29-0.34,0.72-0.57,1.31-0.72
		c0.39-0.1,0.8-0.17,1.21-0.21c-0.08,0.48-0.12,0.94-0.12,1.38c0,1.02,0.31,2.29,0.93,3.78l-1.28,0.34
		c-0.51,0.14-1.03,0.25-1.54,0.36c-0.26-0.56-0.46-1.08-0.62-1.56c0.13,0.13,0.27,0.26,0.42,0.38c0.1,0.08,0.23,0.11,0.35,0.09
		c0.1-0.02,0.2-0.07,0.27-0.16c0.15-0.19,0.13-0.47-0.06-0.62c-0.61-0.5-1.07-1.13-1.33-1.8
		C136.12,205.7,136.13,205.61,136.15,205.51z M139.57,219.08c-0.96,0.15-1.95,0.3-2.92,0.44c-3.59,0.52-7.25,0.68-10.89,0.47
		c-0.57-0.03-1.16-0.04-1.79-0.04c-2.68-0.02-5.45-0.04-6.8-2.19c-0.26-0.41-0.46-0.88-0.67-1.39c-0.43-1.02-0.88-2.07-1.88-2.76
		c-1.22-0.83-2.74-0.72-3.85-0.64c-0.46,0.03-1.02,0.12-1.68,0.22c-1.38,0.21-3.46,0.53-4.65,0.22c2.55-1.27,5.77-2.04,9.21-2.2
		c3.05-0.14,6.1,0.03,9.05,0.19c4.51,0.25,9.15,0.5,13.87-0.35c0.08,0.01,0.16,0.01,0.24,0c0.07-0.01,0.14-0.03,0.21-0.07
		c0.01-0.01,0.02-0.02,0.04-0.02c0.65-0.13,1.3-0.27,1.95-0.44l1.34-0.35c7.61-2.01,13.13-3.46,20.02-2.75
		c2.15,1.98,4.66,3.72,7.47,5.14c1.6,0.81,3.26,1.49,4.87,2.15c1.91,0.78,3.88,1.59,5.7,2.6c-0.76,0.17-1.53,0.32-2.29,0.43
		c-0.61,0.09-1.23,0.16-1.85,0.21c-19.16-6.56-28.64-4.67-35.58-3.28c-2.44,0.49-4.55,0.91-6.6,0.84c-0.24-0.01-0.45,0.18-0.46,0.43
		c-0.01,0.24,0.18,0.45,0.43,0.46c2.16,0.07,4.31-0.36,6.8-0.85c6.58-1.31,15.47-3.08,32.97,2.54c-2,0.04-4-0.05-5.96-0.13
		c-1.36-0.06-2.77-0.12-4.16-0.14c-1.53-0.02-4.14,0.4-6.87,0.99c-1.21-0.39-2.68-0.83-4.19-0.85
		C146.88,217.94,143.17,218.52,139.57,219.08z M144.78,219.82c1.94-0.23,3.89-0.39,5.83-0.38c0.38,0,0.76,0.04,1.13,0.1
		c-2.11,0.54-4.07,1.12-5.4,1.61C145.77,220.68,145.26,220.25,144.78,219.82z M147.29,223.61l-0.04,0.02
		c-0.91,0.44-3.22,1.56-4.28,0.96c0.5-0.51,2.18-1.39,3.53-1.92c1.77-0.69,5.16-1.65,8.41-2.36c0,0,0,0,0.01,0
		c0.02,0,0.03-0.01,0.05-0.01c2.69-0.59,5.26-1.02,6.72-1c1.37,0.02,2.77,0.08,4.12,0.14c3.44,0.15,7,0.31,10.54-0.22
		c3.3-0.49,6.55-1.54,9.02-2.4c0.39-0.13,0.77-0.27,1.16-0.41c2.14-0.76,4.16-1.48,6.01-1.66c0.06,0,0.13,0,0.19-0.02
		c2.34-0.18,4.41,0.54,6.14,3.18c0.59,0.9,1.05,1.91,1.35,2.96c-0.32,0.43-0.68,0.84-1.05,1.25c-0.07-0.14-0.14-0.28-0.21-0.42
		c-1.05-2.01-3.26-4.04-5.84-4.05c-0.24,0-0.44,0.2-0.44,0.44c0,0.24,0.2,0.44,0.44,0.44c2.21,0,4.13,1.8,5.06,3.57
		c0.13,0.24,0.24,0.47,0.34,0.69c-0.58,0.58-1.21,1.13-1.89,1.65c-0.1-0.1-0.21-0.21-0.32-0.31c-2.53-2.43-5.31-3.45-9.02-3.29
		c-1.48,0.06-3.04,0.1-4.52-0.27c-0.55-0.14-1.02-0.29-1.42-0.47c-0.18-0.08-0.32-0.15-0.44-0.22c-0.02-0.01-0.04-0.02-0.07-0.04
		c-0.12-0.13-0.32-0.18-0.49-0.11c-0.17,0.07-0.29,0.23-0.29,0.42c-0.01,0.31,0.27,0.43,0.37,0.48c0.01,0.01,0.02,0.01,0.02,0.01
		c0.16,0.09,0.33,0.18,0.53,0.27c0.45,0.2,0.96,0.37,1.56,0.52c1.59,0.4,3.23,0.37,4.77,0.3c3.49-0.15,5.99,0.76,8.37,3.04
		c0.07,0.07,0.14,0.14,0.21,0.21c-0.51,0.36-1.05,0.71-1.6,1.04c-1.07,0.63-2,1.16-3.21,1.61c-1.05-0.43-2.78-1.35-4.33-2.17
		c-1.37-0.73-2.66-1.41-3.42-1.73c-2.86-1.21-5.5-1.78-8.06-1.75c-0.01,0-0.03,0-0.04,0c-0.09,0-0.17,0-0.26,0
		c-1.28,0.04-2.58,0.11-3.84,0.19c-3.28,0.19-6.68,0.38-9.95-0.03c-0.32-0.04-0.63-0.08-0.94-0.12
		C154.98,221.34,152.6,221.04,147.29,223.61z M150.06,224c3.39-1.31,5.53-1.1,9.52-0.59c0.21,1.15,0.53,2.29,0.96,3.41
		c-2.64-0.61-5.03-0.79-7.46-0.48c-0.09-0.07-0.17-0.14-0.26-0.21c-0.06-0.04-0.11-0.09-0.16-0.13
		C151.81,225.33,150.92,224.66,150.06,224z M146.58,234.28c-1.79,0.79-3.27,1.99-4.7,3.15c-0.92,0.75-1.88,1.53-2.88,2.16
		c-4.52,2.83-9.5,2.39-14.78,1.92c-0.3-0.03-0.6-0.05-0.9-0.08c-6.3-0.55-11.92-1.16-17.18-1.87c2.32-0.12,3.9,0.12,5.56,0.37
		c1.78,0.27,3.62,0.54,6.52,0.44c0.01,0,0.01,0,0.02,0c0.16-0.01,0.68-0.01,1.34-0.01c2.62,0.01,8.38,0.02,12.47-0.67
		c0.52-0.09,1.01-0.18,1.46-0.3c0.24-0.06,0.38-0.3,0.33-0.53c-0.06-0.24-0.3-0.38-0.53-0.33c-3.95,0.96-10.8,0.94-13.72,0.94
		c-0.75,0-1.21,0-1.4,0.01c-2.81,0.1-4.61-0.17-6.35-0.43c-2.06-0.31-4.01-0.6-7.32-0.25c-0.44,0.03-0.87,0.07-1.32,0.1
		c1.97-0.64,7.24-0.98,12.81-1.35c6.69-0.44,14.27-0.94,18.2-2.08c2.94-0.85,5.6-2.25,8.18-3.6c0.65-0.34,1.32-0.69,1.98-1.03
		c3.25-1.65,5.94-2.62,8.56-3c0.02,0,0.04,0,0.06,0c0.01,0,0.03-0.01,0.04-0.01c2.75-0.38,5.42-0.09,8.57,0.79
		c0.28,0.08,0.57-0.01,0.76-0.23c0.19-0.22,0.23-0.52,0.11-0.78c-0.13-0.29-0.26-0.59-0.38-0.88c-0.42-1.02-0.74-2.06-0.96-3.11
		c3.35,0.4,6.76,0.21,10.06,0.02c1-0.06,2.03-0.12,3.05-0.16c-1.72,3.33-4.43,6.12-8.09,8.3c-1.06,0.63-2.2,1.21-3.39,1.72
		C157.54,231.93,151.42,232.15,146.58,234.28z M181.67,246.25c-1.94-0.93-3.72-2.37-5.45-3.77c-0.27-0.22-0.54-0.44-0.81-0.65
		c-0.79-0.63-1.59-1.31-2.36-1.97c-1.86-1.59-3.79-3.23-5.95-4.49c-0.74-0.44-1.53-0.82-2.35-1.16c0.75-0.37,1.47-0.75,2.15-1.16
		c3.78-2.26,6.63-5.13,8.47-8.56c1.94,3.1,5.28,5.87,8.27,8.35c1.65,1.37,3.21,2.67,4.36,3.87c0.97,1.02,1.57,2.22,2.21,3.49
		c0.45,0.9,0.92,1.84,1.54,2.72c1.03,1.47,2.37,2.68,3.75,3.82c-0.22-0.02-0.43-0.04-0.64-0.07c-0.35-0.05-0.71-0.11-1.05-0.17
		c-0.58-0.1-1.17-0.2-1.77-0.26c-0.73-1.39-1.69-2.6-2.95-3.29c-1.14-0.62-2.31-0.64-3.21-0.07c-1.35,0.86-2.03,2.39-2.64,3.74
		c-0.04,0.09-0.08,0.18-0.12,0.27C182.65,246.69,182.16,246.48,181.67,246.25z M182.15,250.85c0.5-0.5,1.01-1.01,1.42-1.64
		c0.39-0.61,0.71-1.31,1.01-2c0.54-1.22,1.11-2.48,2.08-3.1c0.6-0.38,1.33-0.09,1.72,0.12c2.53,1.37,3.65,5.79,4.32,8.44
		c0.11,0.44,0.21,0.82,0.3,1.15c0.62,2.2,1.09,3.64,1.93,4.99c-0.42-0.07-0.84-0.09-1.24,0c-0.73-0.81-1.49-1.58-2.18-2.27
		c-0.32-0.32-0.62-0.62-0.87-0.88c-1.4-1.45-3.26-3.22-5.33-4.09c-1.16-0.49-2.29-0.65-3.37-0.49
		C182,251,182.07,250.93,182.15,250.85z M178.51,254.85c0.4-0.4,0.77-0.77,1.18-1.12c0.38-0.32,0.76-0.57,1.13-0.76
		c1.84,0,2.89,1.81,4.34,4.58c0.93,1.78,1.98,3.79,3.53,5.33c0.11,0.1,0.25,0.15,0.39,0.12c0.09-0.01,0.17-0.06,0.24-0.12
		c0.17-0.17,0.17-0.45,0-0.63c-1.45-1.44-2.43-3.31-3.37-5.11c-1.02-1.95-2-3.83-3.48-4.64c2.45-0.18,4.84,1.82,7.1,4.17
		c0.26,0.27,0.57,0.58,0.89,0.9c0.69,0.69,1.46,1.46,2.18,2.27c-0.29,0.96-0.31,2.68-0.23,5.66c0.02,0.78,0.04,1.51,0.02,1.8
		c-0.42,5.23-0.32,10,0.29,14.28c-1.61-2.06-4.41-6.11-7.3-12.45c-0.2-0.43-0.39-0.86-0.58-1.29c-1.64-3.65-3.34-7.42-6.13-10.43
		c-0.45-0.49-0.93-0.95-1.43-1.39C177.71,255.65,178.12,255.24,178.51,254.85z M173.92,273.24c-0.47-0.65-1.4-1.44-2.48-2.36
		c-1.31-1.12-3.5-2.99-3.48-3.76c0.02-0.52,0.36-0.96,0.75-1.48c0.36-0.48,0.77-1.02,0.96-1.7c3.29,2.87,5.58,6.65,7.8,10.32
		c0.98,1.63,2,3.31,3.09,4.88c0.1,0.15,0.27,0.21,0.44,0.18c0.06-0.01,0.12-0.03,0.18-0.07c0.2-0.14,0.25-0.41,0.11-0.62
		c-1.07-1.55-2.08-3.22-3.06-4.84c-2.36-3.9-4.79-7.92-8.43-10.92c-0.01-0.35-0.05-0.68-0.09-0.99c-0.08-0.6-0.14-1.12,0.03-1.6
		c0.49-1.37,2.2-1.92,3.86-2.45c0.9-0.29,1.75-0.56,2.47-0.97c0.17-0.1,0.33-0.2,0.49-0.31c0.52,0.45,1.02,0.93,1.49,1.44
		c2.69,2.91,4.36,6.61,5.97,10.19c0.19,0.43,0.39,0.87,0.59,1.3c3.61,7.93,7.13,12.37,8.38,13.81c0.21,1.17,0.46,2.3,0.76,3.38
		c-0.04-0.03-0.07-0.06-0.11-0.08c-0.38-0.29-1.21-1.15-2.08-2.07c-3.77-3.95-5.68-5.71-6.87-4.74c-0.95,0.77-0.87,2.39-0.81,3.69
		c0,0.06,0.01,0.11,0.01,0.17c-0.91-0.6-1.7-1.24-2.41-1.95c-0.42-0.41-0.81-0.85-1.23-1.32c-0.9-1-1.83-2.03-3-2.79
		c-0.25-0.17-0.74-0.42-1.38-0.7C175.31,275.48,174.67,274.28,173.92,273.24z M182.94,288.75c-0.11,0.89-0.14,1.83-0.11,2.78
		c-1.11-0.66-2.35-1.17-3.56-1.66c-1.78-0.73-3.63-1.48-5.01-2.72c-1.45-1.3-2.04-2.76-2.73-4.44c-0.31-0.76-0.63-1.55-1.05-2.36
		c-0.31-0.59-0.98-1.12-1.69-1.67c-0.73-0.57-1.37-1.09-1.59-1.52c3.67,1.05,4.96,3.16,6.31,5.39c1.43,2.35,2.91,4.77,7.31,5.54
		c0.05,0.01,0.1,0.01,0.15,0c0.18-0.03,0.33-0.17,0.36-0.36c0.04-0.24-0.12-0.47-0.36-0.51c-4.01-0.7-5.32-2.85-6.7-5.13
		c-1.35-2.21-2.74-4.49-6.48-5.67c1.67-0.24,5.09,0.83,7.17,1.7c0.03,0.02,0.06,0.03,0.1,0.04c0.62,0.26,1.11,0.51,1.38,0.68
		c1,0.66,1.83,1.58,2.71,2.55c0.42,0.46,0.84,0.94,1.29,1.38c0.96,0.95,2.05,1.79,3.33,2.57c-0.09,0.42-0.21,0.85-0.34,1.29
		C183.23,287.3,183.03,288,182.94,288.75z M164.47,314.74c-4,3.4-7.78,6.62-10.62,8.04c-2.44,1.23-3.2,2.94-4.01,4.76
		c-0.32,0.73-0.66,1.49-1.12,2.26c-0.01,0.02-0.04,0.07-0.07,0.12c-0.09,0.15-0.16,0.28-0.23,0.4c0-0.02-0.01-0.04-0.01-0.05
		c-0.02-0.15-0.04-0.28-0.06-0.38c-0.99-4.39,2.34-8.06,5.56-11.61c1.12-1.23,2.17-2.39,3.02-3.56c1.19-1.65,1.43-2.92,1.64-4.05
		c0.22-1.17,0.41-2.18,1.71-3.57c2.17-2.31,4.8-4.38,7.81-6.17c1.53-0.91,9.28-5.29,15.27-5.03c0.08,0.4,0.16,0.79,0.26,1.17
		c-0.61,0.02-1.15,0.06-1.66,0.11c-2.97,0.32-5.66,1.05-8,2.15c-4.2,1.99-6.62,5.06-8.97,8.03c-1.6,2.03-3.25,4.13-5.47,5.89
		c-0.19,0.15-0.22,0.43-0.07,0.62c0.1,0.13,0.27,0.19,0.42,0.16c0.07-0.01,0.14-0.04,0.2-0.09c2.3-1.83,3.99-3.97,5.62-6.04
		c2.38-3.02,4.63-5.88,8.65-7.78c2.25-1.06,4.84-1.76,7.71-2.07c0.54-0.06,1.12-0.1,1.79-0.11c0.15,0.58,0.32,1.13,0.49,1.65
		c-1.42,0.13-2.59,0.33-3.66,0.62c-3.18,0.85-6.45,2.68-9.74,5.45c-0.19,0.16-0.21,0.44-0.05,0.62c0.1,0.12,0.26,0.18,0.41,0.15
		c0.08-0.01,0.15-0.05,0.21-0.1c3.18-2.68,6.35-4.46,9.4-5.27c1.07-0.29,2.26-0.48,3.73-0.61c0.16,0.44,0.34,0.89,0.54,1.34
		C178.91,302.46,171.26,308.96,164.47,314.74z M207.58,319.37c-3.57-2.49-6.22-6.41-8.55-9.87c-0.22-0.32-0.43-0.65-0.65-0.97
		c-1.04-1.57-2.11-3.19-3.53-4.52c-0.18-0.17-0.46-0.16-0.63,0.02c-0.17,0.18-0.16,0.46,0.02,0.63c1.34,1.25,2.38,2.83,3.39,4.35
		c0.22,0.33,0.43,0.66,0.65,0.98c2.38,3.52,5.07,7.51,8.78,10.1c0.05,0.03,0.09,0.06,0.14,0.09c-0.24-0.05-0.47-0.1-0.7-0.17
		c-0.84-0.47-1.77-0.83-2.67-1.18c-1.02-0.39-2.07-0.8-2.94-1.35c-5.5-3.46-12.39-10.6-14.91-17.56c-0.69-1.9-1.34-4.43-1.59-6.97
		c0,0,0-0.01,0-0.01c-0.14-1.37-0.16-2.74,0-4.02c0.06-0.47,0.17-0.93,0.3-1.4c0.17,0.88,0.28,1.79,0.38,2.76
		c0.2,1.91,0.4,3.51,0.73,5.11c0.05,0.23,0.27,0.39,0.51,0.35c0.01,0,0.01,0,0.02,0c0.24-0.05,0.39-0.28,0.35-0.52
		c-0.32-1.57-0.52-3.15-0.72-5.03c-0.16-1.51-0.35-2.99-0.8-4.39c0.05-0.24,0.1-0.49,0.14-0.74c0-0.01,0-0.02,0-0.03
		c0.03-0.2,0.05-0.39,0.06-0.6c0.02-0.29,0-0.63-0.02-1.03c-0.01-0.24-0.03-0.58-0.03-0.93c0.71,1.47,1.3,3.32,1.85,5.02
		c0.15,0.46,0.29,0.91,0.44,1.35c-0.01,0.21-0.03,0.41-0.04,0.62c-0.14,2.9,0.33,5.42,1.44,7.72c0.53,1.1,1.12,2.25,1.93,3.16
		l0.01,0.01c0.13,0.17,0.29,0.37,0.56,0.33c0.02,0,0.05-0.01,0.07-0.02c0.23-0.07,0.36-0.32,0.29-0.55
		c-0.03-0.09-0.08-0.16-0.15-0.22c-0.02-0.03-0.05-0.07-0.07-0.09c-0.02-0.02-0.03-0.04-0.04-0.04c-0.73-0.82-1.29-1.92-1.8-2.96
		c-0.84-1.72-1.29-3.6-1.37-5.68c0.07,0.15,0.13,0.3,0.2,0.44c0.8,1.61,1.93,3.08,3.02,4.49c0.52,0.67,1.06,1.37,1.54,2.06
		c1.08,1.54,2.15,3.12,3.19,4.66c1.54,2.27,3.14,4.63,4.78,6.89l0.5,0.69c2.2,3.04,4.47,6.19,7.24,8.66c0.42,0.38,0.83,0.71,1.25,1
		c-0.28,0.14-0.61,0.23-0.96,0.27C208.69,320.07,208.16,319.77,207.58,319.37z M229.97,333.73c-0.12,0.32-0.74,0.51-1.69,0.53
		c-2.78,0.05-4.76-1.94-6.85-4.04c-1.24-1.24-2.51-2.52-3.99-3.37c-0.88-0.5-1.8-0.77-2.69-1.02c-0.82-0.23-1.6-0.45-2.29-0.85
		c-1.09-0.62-1.94-1.47-2.83-2.38c-0.26-0.27-0.53-0.54-0.81-0.81c0.27-0.01,0.53-0.03,0.79-0.08c0.68-0.11,1.31-0.35,1.81-0.76
		c1.52-1.23,1.8-2.39,2.02-3.33c0.09-0.38,0.17-0.71,0.32-0.99c0.1-0.19,0.21-0.32,0.35-0.49c0.14-0.16,0.29-0.35,0.45-0.6
		c0.06,0.08,0.12,0.16,0.18,0.24l0.24,0.32c1.13,1.54,2.34,3.07,3.59,4.53c0.38,0.44,1.23,1.22,2.4,2.3
		c1.83,1.68,4.34,3.99,6.26,6.14C230.16,332.36,230.07,333.47,229.97,333.73z M231.47,333.62c0.11-2.48-3.73-6.42-8.31-10.68
		c4.07,1.38,7.48,4.75,10.8,8.04c1.8,1.78,3.51,3.47,5.32,4.86c1.07,0.83,3.3,1.86,5.19,1.55c0.22-0.04,0.44-0.09,0.65-0.17
		c0.44-0.16,0.96-0.47,1.37-1.03c4.5,2.95,9.18,5.72,13.94,8.23c0.11,0.27,0.21,0.55,0.31,0.81
		C251.29,344.2,239.77,341.83,231.47,333.62z M261.49,343.18c-1.28-2.9-2.83-4.2-4.2-5.35c-0.87-0.73-1.63-1.36-2.25-2.34
		c-0.25-0.39-0.48-0.78-0.69-1.16c1.33,0.7,2.75,1.28,4.22,1.89c1.02,0.42,2.08,0.86,3.19,1.37c1.24,0.56,2.4,1.17,3.49,1.81
		c1,1.46,2.04,2.9,3.13,4.29c1.39,1.78,3.25,3.97,5.65,5.82c-3.13-0.24-6.92-2.16-10.07-3.76c-0.63-0.32-1.23-0.62-1.8-0.9
		C261.96,344.32,261.75,343.76,261.49,343.18z M248.01,304.14c0.22,1.6,0.53,3.14,0.91,4.64c-0.78-0.76-1.48-1.6-2.08-2.52
		c-0.55-0.86-1.03-1.8-1.42-2.82c-0.01-0.07-0.01-0.13-0.02-0.2c-0.42-4.33,0.57-9.27,3.02-15.05c-0.06,0.44-0.12,0.89-0.19,1.34
		c-0.15,1.06-0.31,2.17-0.43,3.3C247.42,296.55,247.49,300.35,248.01,304.14z M246.1,306.74c0.87,1.35,1.94,2.54,3.18,3.55
		c0.02,0.02,0.05,0.04,0.07,0.05c1.66,5.59,4.37,10.58,7.38,15.58c-0.27-0.13-0.54-0.26-0.81-0.39c-0.87-0.42-1.78-0.85-2.65-1.31
		c-1.34-0.7-2.59-1.48-3.71-2.32c-0.27-0.58-0.57-1.19-0.89-1.83c-0.87-1.75-1.78-3.56-2.12-5.1c-0.49-2.24-0.68-5.12-0.86-7.91
		c-0.02-0.38-0.05-0.76-0.07-1.13C245.77,306.22,245.93,306.48,246.1,306.74z M260.64,308.65c0.16,0.24,0.31,0.49,0.44,0.77
		c0.3,0.64,0.6,1.41,0.91,2.23c0.65,1.69,1.39,3.61,2.41,4.99c1.26,1.7,2.57,3.15,3.86,4.53c0.96,3.14,0.97,6.35,0.97,9.74
		c0.01,5.08,0.02,10.29,3.36,15.4c-1.02-1.02-2.04-2.19-3.07-3.52c-2.71-3.49-5.14-7.26-7.47-10.99c-0.06-0.22-0.11-0.43-0.17-0.65
		c-0.68-2.66-1.39-5.4-1.71-8.01c-0.26-2.09,0.03-4.1,0.34-6.24c0.17-1.19,0.35-2.41,0.42-3.64
		C261.05,311.75,260.95,310.28,260.64,308.65z M260.08,313.2c-0.07,1.19-0.25,2.4-0.42,3.56c-0.31,2.1-0.62,4.26-0.35,6.47
		c0.25,1.99,0.71,4.03,1.21,6.06l-0.05-0.07c-2.34-3.78-4.61-7.46-6.51-11.29c-0.18-1.02-0.29-1.9-0.33-2.73
		c-0.12-2.11,0.42-4.02,0.98-6.04c0.41-1.47,0.84-3,0.98-4.6c0.03-0.37,0.05-0.74,0.04-1.11c0.52,0.63,1.07,1.25,1.66,1.86
		c0.46,0.49,0.94,0.91,1.4,1.32c0.25,0.22,0.5,0.44,0.73,0.66C259.98,309.48,260.18,311.33,260.08,313.2z M254.72,304.48
		c-0.14,1.52-0.55,3-0.96,4.44c-0.56,2-1.14,4.08-1.01,6.33c0,0.03,0,0.05,0.01,0.08c-1.55-3.56-2.73-7.29-3.29-11.38
		c-0.5-3.67-0.56-7.36-0.18-10.95c0.07-0.68,0.16-1.35,0.25-2.01c0.12,0.52,0.23,1.01,0.34,1.44c0.86,3.42,2.46,6.7,4.79,9.79
		C254.77,303.02,254.79,303.75,254.72,304.48z M252.86,325.01c0.88,0.46,1.79,0.9,2.67,1.32c0.67,0.32,1.37,0.66,2.05,1
		c0.54,0.89,1.09,1.77,1.64,2.67l0.11,0.17c1.56,2.52,3.14,5.08,4.82,7.6c-0.65-0.34-1.33-0.67-2.02-0.99
		c-1.12-0.51-2.19-0.95-3.22-1.38c-1.97-0.81-3.69-1.53-5.29-2.5c-0.83-1.76-1.39-3.5-1.97-5.31c-0.43-1.33-0.87-2.7-1.43-4.15
		C251.05,324,251.93,324.53,252.86,325.01z M282.9,354.71c-0.57,0.26-1.16,0.52-1.94,0.68c-6.13,1.24-12.26-0.85-16.41-5.61
		c-0.81-0.93-1.29-1.88-1.69-2.92c0.14,0.07,0.28,0.14,0.42,0.21c3.96,2,8.86,4.48,12.72,3.83c0.01,0,0.02,0,0.03-0.01
		c1.31,0.8,2.76,1.47,4.34,1.94c0.98,0.29,1.84,0.75,2.75,1.24c0.18,0.1,0.37,0.2,0.55,0.3
		C283.41,354.48,283.15,354.59,282.9,354.71z M286.46,353.99C286.46,353.98,286.45,353.98,286.46,353.99c-0.01,0-0.01,0-0.01,0
		c-0.13-0.04-0.26-0.08-0.38-0.13c-0.78-0.29-1.49-0.67-2.24-1.08c-0.94-0.5-1.91-1.02-3.03-1.35c-1.45-0.43-2.82-1.04-4.16-1.86
		c-0.05-0.05-0.12-0.08-0.18-0.11c-0.08-0.05-0.17-0.11-0.25-0.16c-6.05-6-6.07-12.29-6.08-18.38c-0.01-2.78-0.01-5.64-0.61-8.42
		c1.91,2.01,3.72,3.94,5.37,6.47c2.04,3.13,2.64,5.64,3.27,8.29c0.46,1.93,0.93,3.93,1.98,6.23c1.14,2.51,2.37,4.61,3.74,6.43
		c0.42,0.55,1.07,1.33,1.76,2.14c0.55,0.65,1.3,1.55,1.88,2.29L286.46,353.99z M421.23,336.59c-11.52,7.55-24.04,13.55-37.25,17.85
		c-30.88,10.05-63.36,10.29-94.18,0.73c-0.2-0.63-1.01-1.67-3.03-4.08c-0.68-0.8-1.32-1.56-1.71-2.08
		c-1.31-1.73-2.48-3.74-3.58-6.15c-0.99-2.17-1.45-4.09-1.89-5.96c-0.63-2.66-1.28-5.41-3.47-8.76c-1.8-2.75-3.82-4.88-5.78-6.94
		c-1.59-1.67-3.23-3.39-4.76-5.45c-0.9-1.22-1.6-3.03-2.22-4.64c-0.33-0.84-0.63-1.64-0.96-2.33c-0.68-1.44-1.72-2.37-2.74-3.27
		c-0.44-0.39-0.89-0.79-1.31-1.23c-3.6-3.78-5.98-7.89-7.06-12.23c-0.35-1.4-0.83-3.47-0.93-5.21c-0.01-0.21-0.02-0.43-0.02-0.66
		c-0.01-0.49-0.03-0.99-0.1-1.49c0-0.01,0-0.02,0-0.02c-0.02-0.13-0.04-0.25-0.07-0.38c-0.07-0.33-0.24-0.55-0.51-0.65
		c-0.24-0.09-0.5-0.06-0.71,0.08c-0.47,0.32-0.71,0.95-1,1.81c-0.06,0.19-0.13,0.39-0.17,0.48c-3.07,6.7-4.32,12.38-3.84,17.37
		c0.11,1.17,0.2,2.43,0.28,3.78c0.19,2.84,0.38,5.78,0.89,8.13c0.38,1.72,1.32,3.61,2.24,5.44c0.46,0.92,0.89,1.78,1.21,2.55
		c0.69,1.66,1.2,3.23,1.69,4.76c0.89,2.78,1.74,5.4,3.56,8.24c0.75,1.16,1.66,1.93,2.54,2.67c0.99,0.83,2.01,1.69,2.94,3.18
		c-4.17-2.27-8.26-4.73-12.22-7.33c0-0.02,0.01-0.04,0.01-0.05c0.85-4.02-2.49-7.56-4.93-10.14c-0.13-0.14-0.27-0.28-0.39-0.42
		c-0.58-0.62-1.17-1.24-1.75-1.84c-2.83-2.96-5.76-6.03-7.93-9.56c-1.71-2.78-4.06-5.05-6.32-7.25c-2.99-2.9-5.82-5.63-7.32-9.45
		c-2.24-5.68-2.09-12.91,0.41-20.38c2.11-6.3,5.13-10.41,8.33-14.75c2.05-2.78,4.16-5.66,6.25-9.33c1.68-2.95,2.7-5.94,3.78-9.11
		l0.17-0.5c0.01-0.02,0.02-0.05,0.04-0.09c0.27-0.62,0.6-1.38-0.05-1.79c-0.53-0.33-1.07,0.06-1.33,0.25l-0.04,0.03
		c-2.81,1.87-4.63,4.75-6.38,7.53c-0.95,1.51-1.85,2.93-2.89,4.2c-0.85,1.03-1.72,2.04-2.57,3.01c-2.15,2.47-4.37,5.03-6.15,8.07
		c-1.39,2.38-3.07,5.74-4.23,9.66c0.26-2.03,0.91-4.73,1.68-7.9c1.25-5.16,2.82-11.59,3.36-18.28c0.62-7.66-0.2-14.1-2.52-19.67
		c1.72-1.63,0.95-4.29,0.64-5.35c-0.42-1.44-0.99-2.83-1.54-4.18l-0.07-0.17c-0.54-1.33-1.06-2.7-1.55-4.03
		c-0.73-1.96-1.49-3.98-2.37-5.95c-0.81-1.81-1.8-3.63-2.76-5.34c0.69-1.17,1.44-2.21,2.21-3.03c1.58-1.67,3.19-3.23,4.75-4.73
		c4.72-4.56,9.19-8.87,12.06-15.64c0.28-0.66,0.58-1.45,0.9-2.28c1.62-4.23,3.83-10.02,7.61-10.95c0.4-0.1,0.64-0.5,0.54-0.89
		c-0.1-0.4-0.5-0.64-0.89-0.54c0,0,0,0,0,0c0,0-0.01,0-0.01,0c-4.88,1.2-8.47,4-10.99,8.55c-4.23,7.66-6.22,9.43-9.52,12.36
		c-1.79,1.59-4.02,3.57-7.15,7.02c-1.12,1.23-2.12,2.5-3.02,3.79c-2.81-5.59-3.7-10.38-2.71-14.61c1.18-5.03,4.98-7.99,9.02-11.12
		c0.66-0.51,1.33-1.04,1.99-1.57c2.76-2.22,4.88-5.05,6.92-7.79l0.44-0.58c0.2-0.26,0.46-0.64,0.76-1.07
		c0.72-1.04,1.7-2.46,2.69-3.61c1.46-1.69,2.11-1.79,2.27-1.79c0.41,0.02,0.75-0.29,0.77-0.7c0.02-0.41-0.29-0.75-0.7-0.77
		c-3.82-0.19-7.78,1.49-12.09,5.12c-3.66,3.08-6.87,7.02-9,9.62c-1.09,1.34-2.08,2.77-3.04,4.16c-1.16,1.68-2.34,3.4-3.71,4.93
		c0.37-2.74,1.69-6.01,2.98-9.19c2.14-5.29,4.34-10.75,2.67-14.66c0.48-0.51,0.76-1.22,0.78-2.08c0.05-1.66-0.73-3.08-1.65-4.36
		c0.24-0.58,0.36-1.22,0.34-1.91c-0.06-2.98-1.96-6.44-4.06-9.76c0.18-0.28,0.36-0.59,0.53-0.91c0.07-0.14,0.25-0.3,0.44-0.46
		c0.16-0.14,0.32-0.28,0.47-0.45c1.29-1.48,1.76-3.76,1.41-6.8c19.32-31.78,49.44-55.62,84.85-67.15c13.21-4.3,26.86-6.82,40.62-7.5
		c-13.07,9.19-24.63,20.31-34.37,33.07c-10.12,13.25-18.04,27.94-23.56,43.68c-2.24,6.39-4.03,12.88-5.42,19.45c0,0,0,0,0,0
		c-0.14,0.64-0.29,1.5-0.43,2.15c0.01-0.01,0.02-0.01,0.02-0.02c-1.05,5.78-1.85,12.5-2.29,18.17c0,0,0,0,0,0
		c-0.04,0.49-0.12,1.09-0.17,1.64c0,0-0.01,0.01-0.01,0.01c-0.15,2.4-0.47,5.45-0.51,7.86c-0.06,3.88,0.08,7.88,0.31,11.75
		c0,0,0,0,0,0c0.03,0.63,0.05,1.26,0.09,1.89c0,0,0,0,0,0c0.75,10.35,2.57,20.98,5.37,31.05c0,0,0,0,0,0
		c0.01,0.03,0.02,0.06,0.03,0.09c0.01,0.02,0.01,0.04,0.01,0.06c0,0,0,0,0,0c0.11,0.38,0.23,0.78,0.34,1.16c0,0,0,0,0,0
		c0.51,1.77,1.03,3.53,1.6,5.28c1.01,3.11,2.22,6.26,3.41,9.28c0.16,0.4,0.29,0.82,0.45,1.22c0,0,0,0,0,0
		c0.01,0.01,0.01,0.03,0.02,0.04c0,0,0,0.01,0.01,0.01c0,0,0,0,0,0c1.85,4.55,3.95,9.17,6.21,13.51c0,0,0,0,0,0
		c0.01,0.02,0.02,0.03,0.03,0.05c0.01,0.03,0.03,0.05,0.04,0.08c0,0,0,0,0,0c0.18,0.34,0.38,0.68,0.56,1.02c0,0,0,0,0,0
		c3.85,7.26,8.25,14.21,13.21,20.79c5.64,7.48,11.94,14.38,18.8,20.71l-0.01,0.01c8.43,8.04,15.44,13.09,20.55,16.07
		c12.85,8.42,26.81,14.91,41.56,19.29C389.37,334.68,405.25,336.86,421.23,336.59z M446.53,239.24c-0.09,0.08-0.19,0.17-0.28,0.25
		c-0.84,0.74-2.24,1.89-3.61,2.98c-0.51-3.3-1.29-13.97,7.01-25.57c4.01-5.61,5.22-5.29,5.34-5.24c0.91,0.4,0.7,4.67-0.05,8.32
		c-0.39,0.56-0.77,1.15-1.15,1.78C447.58,232.19,446.67,237.9,446.53,239.24z M467.85,214.7c-5.94,8.71-12.56,16.46-19.69,23.06
		c0.57-2.5,2.19-7.6,6.79-15.32c0.39-0.65,0.78-1.26,1.18-1.83c3.85-5.5,7.9-7.09,10.16-7.09c0.65,0,1.16,0.13,1.46,0.34
		C467.99,214.03,468.16,214.24,467.85,214.7z"/>
	<path d="M190.39,120.1c0.21,0.34,0.42,0.68,0.63,1.02c1.19,1.93,2.17,3.82,3.01,5.78c0.08,0.19,0.28,0.3,0.48,0.26
		c0.03-0.01,0.07-0.02,0.1-0.03c0.22-0.1,0.33-0.36,0.23-0.58c-0.85-1.99-1.86-3.92-3.07-5.89c-0.21-0.34-0.42-0.68-0.63-1.02
		c-1.24-1.99-2.51-4.04-3.42-6.22c-0.61-1.48-0.94-2.77-0.99-3.95c-0.01-0.24-0.22-0.43-0.46-0.42c-0.24,0.01-0.43,0.22-0.42,0.46
		c0.06,1.29,0.4,2.68,1.06,4.25C187.83,115.99,189.13,118.08,190.39,120.1z"/>
	<path d="M143.39,201.62c0.02,0,0.03-0.01,0.05-0.01c3.89-0.65,6.98,0.92,9.74,2.72c0.1,0.06,0.21,0.08,0.31,0.07
		c0.12-0.02,0.23-0.09,0.3-0.19c0.13-0.2,0.08-0.48-0.13-0.61c-2.91-1.9-6.18-3.56-10.37-2.85c-0.02,0-0.03,0.01-0.05,0.01
		c-0.24,0.04-0.4,0.27-0.36,0.51C142.92,201.5,143.15,201.66,143.39,201.62z"/>
	<path d="M183.66,210.17c-0.27-0.79-0.55-1.6-0.93-2.39c-2.49-5.2-6.19-10.15-10.72-14.32c-0.18-0.17-0.46-0.15-0.63,0.03
		c-0.17,0.18-0.15,0.46,0.03,0.63c4.45,4.09,8.09,8.95,10.52,14.05c0.35,0.74,0.62,1.53,0.89,2.29c0.24,0.7,0.49,1.42,0.8,2.11
		c0.08,0.19,0.28,0.29,0.48,0.25c0.04-0.01,0.07-0.02,0.11-0.03c0.22-0.1,0.32-0.36,0.22-0.59
		C184.14,211.55,183.91,210.88,183.66,210.17z"/>
	<path d="M207,170.35c0.09-0.02,0.18-0.06,0.25-0.13c0.6-0.65,1.29-1.38,2.03-1.98c0.91-0.72,1.57-1.18,2.1-1.55
		c1.42-0.99,1.95-1.35,3.63-4.07c0.13-0.21,0.06-0.48-0.14-0.61c-0.21-0.13-0.48-0.06-0.61,0.14c-1.58,2.56-2,2.85-3.38,3.81
		c-0.54,0.38-1.21,0.84-2.15,1.58c-0.79,0.64-1.5,1.4-2.12,2.07c-0.17,0.18-0.16,0.46,0.02,0.63
		C206.73,170.34,206.87,170.37,207,170.35z"/>
	<path d="M184.49,198.9c-2.64-4.43-6.54-8.1-10.97-10.33c-0.22-0.11-0.48-0.02-0.59,0.2c-0.11,0.22-0.02,0.48,0.2,0.59
		c4.29,2.16,8.05,5.71,10.61,10c1.34,2.24,2.3,4.6,2.86,7.02c0.05,0.23,0.28,0.37,0.5,0.34c0.01,0,0.02,0,0.03-0.01
		c0.24-0.06,0.39-0.29,0.33-0.53C186.87,203.67,185.87,201.22,184.49,198.9z"/>
	<path d="M163.45,230.23c-3.52-0.65-6.34-0.8-8.9-0.47c-3.6,0.47-6.62,1.31-9.23,2.58c-1.54,0.75-2.96,1.71-4.33,2.65l-0.51,0.35
		c-0.2,0.14-0.26,0.41-0.12,0.61c0.1,0.15,0.27,0.22,0.44,0.19c0.06-0.01,0.12-0.03,0.17-0.07l0.52-0.35
		c1.35-0.92,2.74-1.86,4.22-2.58c2.52-1.22,5.45-2.04,8.95-2.5c2.46-0.32,5.2-0.17,8.63,0.46c0.24,0.04,0.47-0.11,0.52-0.35
		C163.85,230.5,163.69,230.27,163.45,230.23z"/>
	<path d="M190.17,303.14c-0.15-0.19-0.43-0.23-0.62-0.08c-0.19,0.15-0.23,0.43-0.08,0.62c0.46,0.61,0.95,1.2,1.43,1.78
		c1.08,1.32,2.19,2.68,3,4.19c0.09,0.17,0.28,0.26,0.46,0.23c0.05-0.01,0.09-0.02,0.14-0.05c0.22-0.12,0.3-0.38,0.18-0.6
		c-0.85-1.59-1.99-2.98-3.1-4.33C191.11,304.32,190.62,303.73,190.17,303.14z"/>
	<path d="M211.33,283.63c-0.55-4.38-1.17-9.34-4.78-12.35c-0.19-0.16-0.47-0.13-0.62,0.06c-0.16,0.19-0.13,0.47,0.06,0.62
		c3.34,2.79,3.92,7.36,4.47,11.78c0.07,0.57,0.15,1.16,0.22,1.73c0,0,0,0.01,0,0.01c0.33,1.9,0.73,3.91,1.45,5.75
		c0.08,0.2,0.28,0.31,0.48,0.27c0.03-0.01,0.06-0.01,0.09-0.02c0.23-0.09,0.34-0.35,0.25-0.57c-0.73-1.85-1.1-3.84-1.4-5.57
		C211.48,284.78,211.41,284.22,211.33,283.63z"/>
	<path d="M393.51,215.52l0.75,0.37l-0.37,0.75c-0.14,0.29-0.02,0.64,0.27,0.78c0.14,0.07,0.3,0.08,0.45,0.03
		c0.14-0.05,0.26-0.15,0.34-0.29l0.37-0.75l0.75,0.37c0.14,0.07,0.3,0.08,0.45,0.03c0.14-0.05,0.26-0.15,0.34-0.29
		c0.14-0.29,0.02-0.64-0.27-0.78l-0.75-0.37l0.37-0.75c0.14-0.29,0.02-0.64-0.27-0.78c-0.29-0.14-0.64-0.02-0.78,0.27l-0.37,0.75
		l-0.75-0.37c-0.29-0.14-0.64-0.02-0.78,0.27C393.1,215.03,393.22,215.37,393.51,215.52z"/>
	<path d="M407.59,202.34l3.72-0.19l2.84,5.08c0.14,0.25,0.43,0.36,0.7,0.27c0.27-0.09,0.43-0.36,0.39-0.64l-0.85-5.75l3.07-2.12
		c0.21-0.15,0.3-0.42,0.22-0.67c-0.08-0.25-0.32-0.41-0.58-0.39l-3.72,0.19l-2.84-5.08c-0.14-0.25-0.43-0.36-0.7-0.27
		c-0.27,0.09-0.43,0.36-0.39,0.64l0.85,5.75l-3.07,2.12c-0.21,0.15-0.3,0.42-0.22,0.67C407.1,202.19,407.33,202.35,407.59,202.34z"
		/>
	<path d="M436.8,197.63c1.49-0.51,3.06,0.26,3.57,1.75c0.1,0.3,0.43,0.47,0.74,0.36c0.3-0.1,0.47-0.43,0.36-0.74
		c-0.51-1.49,0.27-3.06,1.78-3.57c0.3-0.1,0.47-0.44,0.36-0.74c-0.1-0.3-0.43-0.47-0.74-0.36c0,0,0,0,0,0
		c-0.72,0.24-1.49,0.2-2.16-0.14c-0.68-0.33-1.19-0.91-1.43-1.63c-0.1-0.3-0.43-0.47-0.74-0.36l0,0c-0.3,0.1-0.47,0.43-0.36,0.74
		c0.25,0.72,0.2,1.49-0.13,2.17c-0.33,0.67-0.9,1.18-1.62,1.42c0,0,0,0,0,0c-0.3,0.1-0.47,0.43-0.36,0.74
		C436.17,197.57,436.5,197.73,436.8,197.63z"/>
	<path d="M440.61,183.34c2.19-0.75,4.5,0.39,5.24,2.58c0.1,0.3,0.43,0.47,0.74,0.36c0.3-0.1,0.47-0.43,0.36-0.74
		c-0.75-2.19,0.4-4.5,2.61-5.26c0.3-0.1,0.47-0.44,0.36-0.74c-0.1-0.3-0.43-0.47-0.74-0.36c0,0,0,0,0,0
		c-1.05,0.36-2.19,0.29-3.18-0.2c-1-0.49-1.74-1.34-2.1-2.4c-0.1-0.3-0.43-0.47-0.74-0.36l0,0c-0.3,0.1-0.47,0.43-0.36,0.74
		c0.36,1.06,0.3,2.19-0.19,3.18c-0.48,0.99-1.33,1.74-2.38,2.09c0,0,0,0,0,0l0,0c-0.3,0.1-0.47,0.43-0.36,0.74
		C439.97,183.28,440.3,183.44,440.61,183.34z M443.66,180.65c0.24-0.5,0.4-1.03,0.48-1.57c0.39,0.38,0.85,0.7,1.35,0.95
		c0.51,0.25,1.04,0.41,1.58,0.49c-0.77,0.8-1.28,1.82-1.45,2.91c-0.79-0.78-1.81-1.28-2.9-1.43
		C443.11,181.6,443.42,181.15,443.66,180.65z"/>
	<path d="M423.07,190.93l0.26-0.09l0.09,0.26c0.1,0.3,0.43,0.47,0.74,0.36c0.3-0.1,0.47-0.43,0.36-0.74l-0.09-0.26l0.25-0.09
		c0.3-0.1,0.47-0.43,0.36-0.74c-0.1-0.3-0.43-0.47-0.74-0.36l-0.25,0.09l-0.09-0.25c-0.1-0.3-0.43-0.47-0.74-0.36
		c-0.3,0.1-0.47,0.43-0.36,0.74l0.09,0.25l-0.26,0.09c-0.3,0.1-0.47,0.43-0.36,0.74C422.43,190.87,422.76,191.04,423.07,190.93z"/>
	<path d="M456.56,184.43l0.75,0.37l-0.37,0.75c-0.14,0.29-0.02,0.64,0.27,0.78c0.14,0.07,0.3,0.08,0.44,0.03
		c0.14-0.05,0.26-0.15,0.34-0.29l0.37-0.75l0.75,0.37c0.14,0.07,0.3,0.08,0.45,0.03c0.14-0.05,0.26-0.15,0.34-0.29
		c0.14-0.29,0.02-0.64-0.27-0.78l-0.75-0.37l0.37-0.75c0.14-0.29,0.02-0.64-0.27-0.78c-0.29-0.14-0.64-0.02-0.78,0.27l-0.37,0.75
		l-0.75-0.37c-0.29-0.14-0.64-0.02-0.78,0.27C456.15,183.94,456.27,184.29,456.56,184.43z"/>
	<path d="M397.67,207.73l0.79-0.27l0.27,0.79c0.1,0.3,0.43,0.47,0.74,0.36c0.3-0.1,0.47-0.43,0.36-0.74l-0.27-0.79l0.79-0.27
		c0.3-0.1,0.47-0.43,0.36-0.74c-0.1-0.3-0.43-0.47-0.74-0.36l-0.79,0.27l-0.27-0.79c-0.1-0.3-0.43-0.47-0.74-0.36
		c-0.3,0.1-0.47,0.43-0.36,0.74l0.27,0.79l-0.79,0.27c-0.3,0.1-0.47,0.43-0.36,0.74C397.04,207.67,397.37,207.83,397.67,207.73z"/>
</g>
<g>
	<path d="M115.84,475.32l-1.55,8.55H84.81c0,0,0-0.35,0-0.5c1.13-0.64,1.63-1.7,1.63-4.17v-40.07c0-2.54-0.49-3.53-1.63-4.17
		c0-0.14,0-0.57,0-0.57h8.76c0,0,0,0.42,0,0.57c-1.06,0.64-1.55,1.62-1.55,4.17v44.24h6.43c7.85,0,13.64-4.03,16.96-8.34
		L115.84,475.32z"/>
	<path d="M153.02,483.87h-7.21V466.7c-0.92,7.99-3.32,17.6-12.51,17.6c-6.5,0-11.66-4.1-11.66-12.44v-16.54
		c0-2.47-0.21-3.18-1.56-3.39c0-0.14,0-0.5,0-0.5l6.64-1.55h0.49v23.04c0,6.15,3.18,11.24,9.26,10.11
		c7.92-1.55,9.33-16.33,9.33-22.26v-5.44c0-2.47-0.21-3.18-1.55-3.39c0-0.14,0-0.5,0-0.5l6.64-1.55h0.49v29.33
		c0,2.47,0.49,3.53,1.63,4.17C153.02,483.52,153.02,483.87,153.02,483.87z"/>
	<path d="M189.49,483.87h-7.14v-9.9c-1.84,6.22-5.73,10.32-12.51,10.32c-5.8,0-11.45-2.76-12.37-7.84
		c-1.2-7.21,3.11-11.45,8.55-13.71c-1.84-4.1,0.35-12.86,9.82-12.86c5.87,0,12.09,3.11,12.09,11.8v17.53c0,2.47,0.49,3.53,1.55,4.17
		C189.49,483.52,189.49,483.87,189.49,483.87z M182.35,472.7v-10.88c-0.35-0.14-2.05-0.64-4.24-0.64c-7.7,0-18.16,3.82-15.13,16.26
		c0.92,3.82,5.02,6.15,8.55,5.94C177.69,483.02,180.94,477.79,182.35,472.7z M166.73,462.45c3.82-1.41,8.06-1.91,11.38-1.91
		c1.63,0,3.04,0.28,4.24,0.64v-0.5c0-5.37-2.12-10.11-7.14-10.11C168.85,450.58,164.61,456.73,166.73,462.45z"/>
	<path d="M250.98,470.58c0,9.97-11.73,13.29-20.85,13.29H210.7c0,0,0-0.35,0-0.5c1.06-0.64,1.55-1.7,1.55-4.17v-40.07
		c0-2.47-0.49-3.53-1.55-4.17c0-0.14,0-0.57,0-0.57h16.4c9.12,0,20.85,1.84,20.85,11.8c0,7.56-6.93,10.39-14.28,11.31
		C242.01,458.28,250.98,461.96,250.98,470.58z M217.84,457.29h9.26c11.59,0,15.27-4.88,15.27-11.1c0-6.29-3.68-11.24-15.27-11.24
		h-9.26V457.29z M245.47,470.58c0-6.22-3.75-12.72-15.34-12.72h-12.3v25.51h12.3C241.72,483.38,245.47,476.87,245.47,470.58z"/>
	<path d="M292.76,465.56c0,11.31-9.68,18.73-19.15,18.73c-9.54,0-17.67-5.8-17.67-15.69c0-11.66,9.68-18.73,19.15-18.73
		S292.76,455.81,292.76,465.56z M286.82,463.3c-2.47-8.48-9.12-14.49-17.17-12.16c-8.06,2.33-10.25,11.17-7.77,19.72
		c2.47,8.48,9.12,14.56,17.17,12.16C287.1,480.69,289.29,471.85,286.82,463.3z"/>
	<path d="M322.37,471.5c-1.34,6.64-4.31,12.79-11.73,12.79c-6.29,0-10.18-4.1-10.18-12.44v-21.42h-4.17v-0.57
		c6.01,0,6.5-6.29,6.5-9.68h5.58c0,5.44-5.37,9.47-9.61,9.68h15.62v0.57h-8.34v22.48c0,6.15,1.7,10.88,7.7,10.11
		c4.67-0.64,7-6.22,8.27-11.66L322.37,471.5z"/>
	<path d="M355.31,483.87h-7.14v-9.9c-1.84,6.22-5.72,10.32-12.51,10.32c-5.8,0-11.45-2.76-12.37-7.84
		c-1.2-7.21,3.11-11.45,8.55-13.71c-1.84-4.1,0.35-12.86,9.82-12.86c5.87,0,12.09,3.11,12.09,11.8v17.53c0,2.47,0.5,3.53,1.55,4.17
		C355.31,483.52,355.31,483.87,355.31,483.87z M348.17,472.7v-10.88c-0.35-0.14-2.05-0.64-4.24-0.64c-7.7,0-18.17,3.82-15.12,16.26
		c0.92,3.82,5.02,6.15,8.55,5.94C343.51,483.02,346.76,477.79,348.17,472.7z M332.55,462.45c3.82-1.41,8.06-1.91,11.38-1.91
		c1.63,0,3.04,0.28,4.24,0.64v-0.5c0-5.37-2.12-10.11-7.14-10.11C334.67,450.58,330.43,456.73,332.55,462.45z M351.07,445.14
		l-0.35,0.35l-8.69-5.58l-8.62,5.58l-0.42-0.35l9.05-9.05L351.07,445.14z"/>
	<path d="M395.18,483.38c0,0.14,0,0.5,0,0.5h-8.76c0,0,0-0.35,0-0.5c1.13-0.64,1.41-1.84,1.2-4.17c-0.21-2.33-1.27-14.28-1.62-17.95
		c-0.5-5.3-3.11-11.31-9.19-10.11c-7.92,1.56-9.4,16.33-9.4,22.26v5.79c0,2.47,0.5,3.53,1.63,4.17c0,0.14,0,0.5,0,0.5h-8.76
		c0,0,0-0.35,0-0.5c1.06-0.64,1.55-1.7,1.55-4.17v-23.89c0-2.47-0.21-3.18-1.55-3.39c0-0.14,0-0.5,0-0.5l6.64-1.55h0.5v17.53
		c0.92-7.92,3.32-17.53,12.51-17.53c5.8,0,10.74,3.96,11.59,12.44c0.71,6.86,1.41,14.28,1.7,16.89
		C393.48,481.75,394.12,482.74,395.18,483.38z"/>
	<path d="M407.48,483.38c0,0.14,0,0.5,0,0.5h-8.76c0,0,0-0.35,0-0.5c1.06-0.64,1.55-1.7,1.55-4.17v-23.89
		c0-2.47-0.21-3.18-1.55-3.39c0-0.14,0-0.5,0-0.5l6.64-1.55h0.5v29.33C405.85,481.68,406.35,482.74,407.48,483.38z M399.56,440.83
		c0-1.84,1.48-3.32,3.32-3.32s3.32,1.48,3.32,3.32c0,1.84-1.48,3.32-3.32,3.32S399.56,442.66,399.56,440.83z"/>
	<path d="M434.69,483.02c7-0.71,10.81-6.93,11.95-8.91l0.42,0.21c-2.19,3.96-6.36,9.47-14.77,9.97c-9.75,0.5-19.51-4.81-19.79-16.47
		c-0.35-12.23,10.74-17.95,18.52-17.95c4.03,0,9.68,1.84,13.36,3.75l-1.06,5.87h-0.42c-1.7-4.24-8.41-10.32-15.05-8.76
		c-8.69,1.98-11.87,13.15-8.91,21.63C421.54,479.77,427.55,483.73,434.69,483.02z"/>
	<path d="M482.82,483.87h-7.14v-9.9c-1.84,6.22-5.72,10.32-12.51,10.32c-5.8,0-11.45-2.76-12.37-7.84
		c-1.2-7.21,3.11-11.45,8.55-13.71c-1.84-4.1,0.35-12.86,9.82-12.86c5.87,0,12.09,3.11,12.09,11.8v17.53c0,2.47,0.5,3.53,1.55,4.17
		C482.82,483.52,482.82,483.87,482.82,483.87z M475.68,472.7v-10.88c-0.35-0.14-2.05-0.64-4.24-0.64c-7.7,0-18.17,3.82-15.12,16.26
		c0.92,3.82,5.02,6.15,8.55,5.94C471.02,483.02,474.27,477.79,475.68,472.7z M460.06,462.45c3.82-1.41,8.06-1.91,11.38-1.91
		c1.63,0,3.04,0.28,4.24,0.64v-0.5c0-5.37-2.12-10.11-7.14-10.11C462.18,450.58,457.94,456.73,460.06,462.45z"/>
</g>
<g>
	<path d="M183.84,495.73c1.31,0,1.32,0,1.44,0.8l0.3,2.13c-0.57-0.98-1.18-2.48-3.76-2.48h-1.74c-0.65,0.07-0.76,0.46-0.76,1.07
		v12.85h-1.29c0,0,0-8.52,0-12.85c0-0.61-0.12-1-0.76-1.07h-1.76c-2.57,0-3.19,1.5-3.76,2.48l0.3-2.13c0.12-0.8,0.12-0.8,1.44-0.8
		C177.02,495.73,180.32,495.73,183.84,495.73z"/>
	<path d="M194.52,504.66c-0.29,0.07-0.59,0.14-0.88,0.21l-7.49,1.83c0.46,2.33,1.99,3.36,3.73,3.36c1.66,0,3.53-0.71,4.04-2.53
		l0.29,0.09c-0.31,1.31-1.59,2.73-4.35,2.73c-2.83,0-5.16-1.74-5.16-5.1c0-3.38,2.48-5.1,5.12-5.1
		C192.27,500.15,194.28,501.71,194.52,504.66z M186.01,505.25c0,0.34,0.02,0.67,0.06,0.97l7.13-1.74c-0.22-2.79-1.48-4.05-3.39-4.05
		C187.73,500.43,186.01,501.95,186.01,505.25z"/>
	<path d="M201,500.14c3.93,0,3.52,3.14,1.67,3.14c0.23-0.44,0.5-1.68-0.09-2.27c-0.44-0.44-1.14-0.58-1.98-0.55
		c-0.92,0.03-2.5,0.46-2.86,2.49v7.17h-1.29v-8.53c0-0.66-0.04-1.21-0.28-1.31c0.45,0,1.57,0,1.57,1.16v0.28
		C198.29,500.73,199.4,500.14,201,500.14z"/>
	<path d="M214,503.49v5.54c0,0.66,0.04,1.21,0.28,1.31c-0.96,0-1.57-0.24-1.57-1.16v-0.66c-0.76,1.43-2.02,1.82-4.1,1.82
		c-1.82,0-3.54-1.32-3.12-3.59c0.32-1.73,2.44-2.17,3.7-2.28c1.75-0.16,3.16-0.46,3.51-1.38c-0.14-2.41-1.73-2.68-2.62-2.67
		c-1.29,0.02-1.99,0.38-2.53,0.92s-0.69,1.21-0.42,1.93c-2.16,0-1.56-3.13,2.95-3.13C211.68,500.15,214,500.8,214,503.49z
		 M209.44,504.8c-1.33,0.12-2.31,0.65-2.59,1.93c-0.5,2.28,1.9,3.21,2.81,3.21c1.34,0,2.47-0.64,3.05-2.35c0-1.31,0-2.63,0-3.94
		C212.03,504.4,210.64,504.7,209.44,504.8z"/>
	<path d="M226.02,505.25c0,3.38-2.49,5.1-5.13,5.1c-1.13,0-2.4-0.17-3.35-1.31v6.46h-1.29v-13.93c0-0.66-0.04-1.21-0.28-1.31
		c0.45,0,1.57,0,1.57,1.16v0.17c0.83-0.96,2.06-1.44,3.45-1.44C223.63,500.15,226.02,501.87,226.02,505.25z M217.53,502.58v5.61
		c0.84,1.79,2.8,1.88,3.35,1.88c2.08,0,3.81-1.51,3.81-4.82c0-3.3-1.63-4.82-3.71-4.82C219.76,500.43,218.08,500.97,217.53,502.58z"
		/>
	<path d="M229.6,497.35l-0.93,0.98l-0.93-0.98l0.93-0.98L229.6,497.35z M229.31,501.42v8.69h-1.29v-8.53c0-0.66-0.04-1.21-0.28-1.31
		C228.2,500.26,229.31,500.26,229.31,501.42z"/>
	<path d="M239.79,503.49v5.54c0,0.66,0.04,1.21,0.28,1.31c-0.96,0-1.57-0.24-1.57-1.16v-0.66c-0.76,1.43-2.02,1.82-4.1,1.82
		c-1.82,0-3.54-1.32-3.12-3.59c0.32-1.73,2.44-2.17,3.7-2.28c1.75-0.16,3.16-0.46,3.51-1.38c-0.14-2.41-1.73-2.68-2.62-2.67
		c-1.29,0.02-1.99,0.38-2.53,0.92s-0.69,1.21-0.42,1.93c-2.16,0-1.56-3.13,2.95-3.13C237.47,500.15,239.79,500.8,239.79,503.49z
		 M235.23,504.8c-1.33,0.12-2.31,0.65-2.59,1.93c-0.5,2.28,1.9,3.21,2.81,3.21c1.34,0,2.47-0.64,3.05-2.35c0-1.31,0-2.63,0-3.94
		C237.82,504.4,236.43,504.7,235.23,504.8z"/>
	<path d="M250.31,497.33c0,1.31,0,2.95,0,5.36h7.88c0-2.06,0-4.33,0-5.37c0-1.27-0.32-1.42-0.62-1.59c0.68,0,1.91,0.15,1.91,1.6
		c0,3.13,0,12.77,0,12.77l-1.29,0c0,0,0-3.43,0-6.96h-7.88c0,3.11,0,6.96,0,6.96l-1.29,0c0,0,0-9.89,0-12.78
		c0-1.27-0.32-1.42-0.62-1.59C249.09,495.73,250.31,495.89,250.31,497.33z"/>
	<path d="M271.49,505.25c0,3.38-2.31,5.1-4.95,5.1s-4.95-1.72-4.95-5.1s2.31-5.1,4.95-5.1S271.49,501.87,271.49,505.25z
		 M262.91,505.25c0,3.3,1.55,4.82,3.63,4.82c2.08,0,3.63-1.51,3.63-4.82c0-3.3-1.55-4.82-3.63-4.82
		C264.46,500.43,262.91,501.94,262.91,505.25z"/>
	<path d="M274.88,497.06v13.05h-1.29v-13.06c0-1.27-0.32-1.42-0.62-1.59C273.65,495.46,274.88,495.46,274.88,497.06z"/>
	<path d="M278.38,501.42v8.69h-1.29v-8.53c0-0.66-0.04-1.21-0.28-1.31C277.26,500.26,278.38,500.26,278.38,501.42z M280.9,496.31
		l-3.02,2.55h-0.6l2.21-2.55H280.9z"/>
	<path d="M287.43,503.28c0.32-0.86,0.22-1.54-0.32-2.07c-0.49-0.49-1.11-0.77-2.4-0.77c-1.49,0-2.71,0.71-2.83,1.83
		c-0.12,1.17,0.83,1.5,1.56,1.71c1.31,0.37,2.63,0.52,3.86,1.08c1.31,0.6,2.09,1.62,1.67,3.2c-0.28,1.04-1.35,2.11-4.28,2.1
		c-4.96,0-4.94-3.26-2.89-3.26c-0.27,0.72-0.2,1.65,0.33,2.19c0.54,0.54,1.26,0.79,2.55,0.79c2.39,0,3.17-1.35,3.28-2.01
		c0.08-0.48,0.06-1.48-1.21-1.98c-1.24-0.49-3-0.74-4.34-1.26c-1.36-0.53-1.98-1.72-1.54-2.89c0.36-0.97,1.82-1.77,3.84-1.77
		C288.87,500.15,289.77,503.28,287.43,503.28z"/>
	<path d="M293.3,498.6c0,0.65,0,1.17,0,1.79h3.6v0.45h-3.6c0,2.19,0,4.34,0,6.44c0,2.52,1.3,2.79,2.12,2.79
		c1.92,0,2.47-1.55,1.79-2.98c2.23,0,1.77,3.26-1.79,3.26c-2.36,0-3.42-1.51-3.42-3.07c0-2.15,0-4.29,0-6.43h-2.22v-0.45h2.22
		c0-0.6,0-1.2,0-1.8c0-1.27-0.32-1.42-0.62-1.59C292.26,497,293.3,497,293.3,498.6z"/>
	<path d="M302.05,497.35l-0.93,0.98l-0.93-0.98l0.93-0.98L302.05,497.35z M301.76,501.42v8.69h-1.29v-8.53
		c0-0.66-0.04-1.21-0.28-1.31C300.64,500.26,301.76,500.26,301.76,501.42z"/>
	<path d="M311.41,503.28c0.58-2.22-1.03-2.84-2.61-2.84c-2.08,0-3.83,1.51-3.83,4.82c0,3.3,1.75,4.82,3.83,4.82
		c1.71,0,3.1-0.75,3.47-2.53l0.33,0.1c-0.4,1.79-1.82,2.72-3.79,2.72c-2.84,0-5.14-1.72-5.14-5.1s2.51-5.1,5.14-5.1
		C312.96,500.15,313.79,503.28,311.41,503.28z"/>
	<path d="M322.97,503.49v5.54c0,0.66,0.04,1.21,0.28,1.31c-0.96,0-1.57-0.24-1.57-1.16v-0.66c-0.76,1.43-2.02,1.82-4.1,1.82
		c-1.82,0-3.54-1.32-3.12-3.59c0.32-1.73,2.44-2.17,3.7-2.28c1.75-0.16,3.16-0.46,3.51-1.38c-0.14-2.41-1.73-2.68-2.62-2.67
		c-1.29,0.02-2,0.38-2.53,0.92c-0.54,0.54-0.69,1.21-0.42,1.93c-2.16,0-1.56-3.13,2.95-3.13
		C320.65,500.15,322.97,500.8,322.97,503.49z M318.41,504.8c-1.33,0.12-2.31,0.65-2.59,1.93c-0.5,2.28,1.9,3.21,2.81,3.21
		c1.34,0,2.46-0.64,3.05-2.35c0-1.31,0-2.63,0-3.94C321,504.4,319.61,504.7,318.41,504.8z"/>
	<path d="M339.65,499.48c0.2-0.24,0.57-0.98,0.54-1.85c-0.04-1.09-0.53-1.73-2.07-1.73c-1.71,0-2.64,0.89-2.64,2.43
		c0,2.15,1.53,2.76,2.86,2.76l0,0.37c-2.94,0-4.85,1.92-4.85,4.33c0,2.79,2.03,4.23,4.73,4.23c0.16,0,0.32,0,0.54,0
		c3.17,0,5.21-1.74,5.21-4.83c0-2.03-1.28-3.76-3.64-2.75c-0.89,0.38-1.52,1.35-1.31,2.29c0.28,1.21,1.42,1.59,2.2,1.39
		c1.39-0.37,0.64-2.5-0.54-2.25c0.31-0.75,1.58-0.81,2.02-0.11c0.43,0.68,0.43,2.22-1.43,2.72c-0.99,0.26-2.39-0.31-2.71-1.67
		c-0.29-1.23,0.5-2.86,2.5-3.32c0.93-0.22,1.92-0.45,2.93-0.68c1.32-0.3,2.44-1.29,2.16-2.5c-0.28-1.21-1.34-1.74-2.2-1.39
		c-1.41,0.58-0.08,2.32,0.79,2.32c-2.27,1.47-3.35-1.88-0.84-2.64c0.17-0.05,0.34-0.07,0.52-0.07c0.92,0,1.84,0.49,2.08,1.7
		c0.25,1.27-0.39,2.73-2.39,3.19c-0.64,0.15-1.32,0.3-1.99,0.46c1.34,0.05,3.03,1.22,3.03,3.3c0,3.73-3.68,5.17-6.38,5.17
		c-0.16,0-0.34,0-0.54,0c-1.77,0-6.18-0.73-6.18-4.65c0-2.54,2.19-4.05,4.76-4.48c-1.28-0.37-2.68-1.23-2.68-2.88
		c0-1.61,1.41-2.77,4.01-2.77C342.96,495.57,341.96,499.71,339.65,499.48z"/>
	<path d="M361.59,495.73c2.36,0,3.96,1.52,3.96,3.61c0,1.93-1.15,3.59-3.1,3.91c0.69,0.29,1.09,0.78,1.41,1.56l1.61,3.86
		c0.49,1.17,0.77,1.23,1.11,1.3c-0.23,0.08-0.52,0.15-0.82,0.14c-0.68,0.01-1.2-0.33-1.52-1.12l-1.66-4.02
		c-0.56-1.35-0.83-1.62-2.51-1.65h-2.58v6.8h-1.29v-13.01c0-1.17-0.28-1.27-0.62-1.36l0.99,0
		C357.24,495.73,360.36,495.73,361.59,495.73z M357.48,502.86c0.64,0,4.01,0,4.1,0c1.87,0,2.69-1.12,2.67-3.52
		c-0.01-1.83-0.85-3.17-2.79-3.17c-0.78,0-2.81-0.01-3.97-0.01V502.86z"/>
	<path d="M377.46,504.66c-0.29,0.07-0.59,0.14-0.88,0.21l-7.49,1.83c0.46,2.33,1.99,3.36,3.73,3.36c1.66,0,3.53-0.71,4.04-2.53
		l0.29,0.09c-0.31,1.31-1.59,2.73-4.35,2.73c-2.83,0-5.16-1.74-5.16-5.1c0-3.38,2.48-5.1,5.12-5.1
		C375.22,500.15,377.23,501.71,377.46,504.66z M368.95,505.25c0,0.34,0.02,0.67,0.06,0.97l7.13-1.74c-0.22-2.79-1.48-4.05-3.39-4.05
		C370.68,500.43,368.95,501.95,368.95,505.25z"/>
	<path d="M381.01,497.35l-0.93,0.98l-0.93-0.98l0.93-0.98L381.01,497.35z M380.72,501.42v8.69h-1.29v-8.53
		c0-0.66-0.04-1.21-0.28-1.31C379.61,500.26,380.72,500.26,380.72,501.42z"/>
	<path d="M384.75,504.27l6.4-4.01h0.71l-5.56,3.49c0.08-0.01,0.16-0.01,0.23-0.01c0.89-0.01,1.63,0.52,2.34,1.56l2.48,3.46
		c0.61,0.85,0.91,1,1.19,1.02c0.06,0,0.12,0,0.18,0c-0.28,0.17-0.67,0.34-1.1,0.33c-0.56,0.01-1-0.25-1.41-0.83l-2.57-3.61
		c-1.08-1.51-1.93-1.55-2.9-0.94v5.38h-1.29v-13.06c0-1.27-0.32-1.42-0.62-1.59c0.06,0,0.11,0,0.17,0c0.88,0,1.74,0.19,1.74,1.6
		V504.27z"/>
	<path d="M395.88,497.35l-0.93,0.98l-0.93-0.98l0.93-0.98L395.88,497.35z M395.59,501.42v8.69h-1.29v-8.53
		c0-0.66-0.04-1.21-0.28-1.31C394.47,500.26,395.59,500.26,395.59,501.42z"/>
</g>
<g>
	<path d="M250.56,401.9l-1.14,3.95h-0.27c-2.16-5.09-4.94-7.03-7.94-7.03c-3.76,0-5.92,2.13-6.15,4.41
		c-0.72,7.6,15.57,5.09,15.57,14.58c0,4.52-4.06,7.71-9.46,7.71c-4.52,0-7.33-1.52-10.29-3.76l1.14-4.33h0.27
		c1.94,3.87,5.47,7.33,10.44,7.33c3.23,0,5.92-2.09,6.23-4.48c0.99-8.09-15.34-5.51-15.34-15.04c0-3.08,2.47-6.91,8.58-6.91
		C245.13,398.33,248.32,400.15,250.56,401.9z"/>
	<path d="M266.93,418.65c-0.72,3.57-2.32,6.87-6.3,6.87c-3.38,0-5.47-2.2-5.47-6.68v-11.51h-2.24v-0.3c3.23,0,3.49-3.38,3.49-5.2h3
		c0,2.92-2.89,5.09-5.17,5.2h8.39v0.3h-4.48v12.08c0,3.3,0.91,5.85,4.14,5.43c2.51-0.34,3.76-3.34,4.44-6.27L266.93,418.65z"/>
	<path d="M285.39,425.29h-3.87v-9.23c-0.49,4.29-1.79,9.46-6.72,9.46c-3.49,0-6.27-2.2-6.27-6.68v-8.89c0-1.33-0.11-1.71-0.84-1.82
		c0-0.08,0-0.27,0-0.27l3.57-0.83h0.27v12.38c0,3.3,1.71,6.04,4.98,5.43c4.25-0.83,5.01-8.77,5.01-11.96v-2.92
		c0-1.33-0.11-1.71-0.84-1.82c0-0.08,0-0.27,0-0.27l3.57-0.83h0.27v15.76c0,1.33,0.27,1.9,0.87,2.24
		C285.39,425.1,285.39,425.29,285.39,425.29z M279.77,400.68c-2.73,1.59-4.75,2.51-5.66,2.85l-0.23-0.34
		c0.72-0.68,2.28-2.17,4.63-4.25c0.76-0.68,1.44-0.46,1.79,0.04C280.65,399.43,280.68,400.15,279.77,400.68z"/>
	<path d="M306.93,425.29h-3.84v-10.18c-0.72,4.41-2.66,10.41-7.98,10.41c-3.08,0-6.87-2.66-7.03-7.52
		c-0.23-9.38,8.51-10.98,12.72-10.98c0.87,0,1.63,0.15,2.28,0.34v-6.53c0-1.33-0.11-1.71-0.87-1.82c0-0.08,0-0.3,0-0.3l3.61-0.8
		h0.27v24.88c0,1.33,0.27,1.9,0.84,2.24C306.93,425.1,306.93,425.29,306.93,425.29z M303.09,412.88v-5.32
		c-0.19-0.04-1.06-0.34-2.28-0.34c-3.68,0.08-10.29,1.67-9.76,11.36c0.19,3.3,2.51,6.88,5.77,6.27
		C301.08,424,303.09,416.07,303.09,412.88z"/>
	<path d="M314.3,425.03c0,0.08,0,0.27,0,0.27h-4.71c0,0,0-0.19,0-0.27c0.57-0.34,0.83-0.91,0.83-2.24v-12.84
		c0-1.33-0.11-1.71-0.83-1.82c0-0.08,0-0.27,0-0.27l3.57-0.83h0.27v15.76C313.42,424.12,313.69,424.69,314.3,425.03z M310.04,402.17
		c0-0.99,0.8-1.79,1.79-1.79s1.79,0.8,1.79,1.79c0,0.99-0.8,1.78-1.79,1.78S310.04,403.15,310.04,402.17z"/>
	<path d="M336.74,415.46c0,6.08-5.2,10.06-10.29,10.06c-5.13,0-9.49-3.11-9.49-8.43c0-6.27,5.2-10.06,10.29-10.06
		S336.74,410.22,336.74,415.46z M333.55,414.24c-1.33-4.56-4.9-7.79-9.23-6.53c-4.33,1.25-5.51,6-4.18,10.6
		c1.33,4.56,4.9,7.82,9.23,6.53C333.71,423.58,334.88,418.84,333.55,414.24z"/>
</g>
<g>
	<g>
		<line x1="219.99" y1="411.71" x2="84.81" y2="411.71"/>
		<rect x="84.81" y="411.34" width="135.18" height="0.75"/>
	</g>
	<g>
		<line x1="482.83" y1="411.71" x2="347.64" y2="411.71"/>
		<rect x="347.64" y="411.34" width="135.18" height="0.75"/>
	</g>
</g>
</svg>
