<?xml version="1.0" encoding="utf-8"?>
<!-- Generator: Adobe Illustrator 26.5.3, SVG Export Plug-In . SVG Version: 6.00 Build 0)  -->
<svg version="1.1" id="Layer_1" xmlns="http://www.w3.org/2000/svg" xmlns:xlink="http://www.w3.org/1999/xlink" x="0px" y="0px"
	 viewBox="0 0 1700.8 1700.8" style="enable-background:new 0 0 1700.8 1700.8;" xml:space="preserve">
<style type="text/css">
	.st0{fill-rule:evenodd;clip-rule:evenodd;fill:#010202;}
	.st1{fill:#010202;}
</style>
<g>
	<g>
		<path class="st0" d="M598.6,487.7c-38.2,51.9-58.7,109.3-64.2,165.3c-5,53.3,3.6,105.7,24.1,153c20.9,47.4,53.7,89.7,97.4,122.5
			c111.5,84.3,256.3,88.8,373.3,11.4c-102.9,34.2-228.1,38.7-317.8-30.5c-59.6-46.5-95.2-121.2-90.6-219.1
			c5.5,58.3,30,110.2,73.3,155.8c58.3-57.9,60.1-127.5,5.5-209.5c-30.5-45.5-51.9-85.6-63.7-120.2c-8.2-23.2-11.4-44.2-10.5-61.9
			c-8.7,10-16.8,20-23.7,29.6C600.5,485.4,599.5,486.4,598.6,487.7L598.6,487.7z"/>
		<path class="st0" d="M879.5,587.5L763.4,704.1l-0.5,0.5c14.1,56.5,1.8,112.5-48.3,162.1l-3.6,3.6l3.6,3.6
			c61,57.4,147.5,68.8,228.5,56.9c26.4-4.1,52.4-10.5,76.9-18.2c56.9-19.6,93.3-40.5,122-106.6c20.5-47.4,29.1-99.7,24.1-153
			c-5.4-57.8-26.9-116.1-66.9-169c-46-61-121.1-134.8-186.2-199.5c-10-10-20-19.6-29.6-29.2c-11.8-11.4-22.8-22.8-33.2-33.3
			c-10,10.5-21.4,21.9-33.2,33.3c-9.6,9.6-19.1,19.1-29.6,29.2c-45.5,45.1-96.1,95.2-137.9,141.7c0,15.9,3.2,51,8.2,62.4
			c44.6-53.7,107.4-115.7,163-170.4c10-10,20-20,29.6-29.6c9.6,9.6,19.6,19.6,29.6,29.6c64.2,62.9,137.5,135.7,181.6,194
			c34.6,46,53.3,96.1,58.3,145.3c4.1,45.1-3.2,89.7-21,129.8c-3.2,7.7-6.8,15-10.9,22.3l-79.7-84.7v-91.1h-53.7v34.2L879.5,587.5z
			 M915,778.8h-30.9v-31H915V778.8z M875.4,747.8v31h-30.9v-31H875.4z M875.4,739.1h-30.9v-31h30.9V739.1z M915,739.1h-30.9v-31H915
			V739.1z"/>
	</g>
	<g>
		<path class="st1" d="M457.9,1278.1c31,0,58-15.2,72.6-39.2l-33.4-19.3c-7.3,13.1-22,20.8-39.2,20.8c-30,0-49.3-20.1-49.3-50.3
			s19.3-50.3,49.3-50.3c17.2,0,31.7,7.7,39.2,20.8l33.4-19.3c-14.8-23.9-41.8-39.2-72.6-39.2c-51,0-88,38.2-88,88
			C369.9,1239.9,406.9,1278.1,457.9,1278.1z"/>
		<path class="st1" d="M688.8,1274.7l-57.6-169.3H582l-57.6,169.3h42.3l8.5-26.6h62.9l8.5,26.6H688.8z M586.8,1211.8l19.8-62.2
			l19.8,62.2H586.8z"/>
		<path class="st1" d="M750.5,1240.3c-19.1,0-29.5-9.4-35.5-23.5l-33.4,19.3c9.4,24.9,32.2,41.8,67.7,41.8c36.8,0,62.9-19.3,62.9-52
			c0-35.8-28.8-44.7-54.4-52.5c-26.4-8-30.5-13.3-30.5-21c0-6.8,6-12.8,18.1-12.8c15.5,0,23.5,7.5,29.3,19.6l32.6-19.1
			c-12.3-24.9-34.1-38.2-61.9-38.2c-29.3,0-56.8,18.9-56.8,51.5c0,32.4,24.7,44.5,49.8,51.5c25.4,7,35.1,11.1,35.1,21.5
			C773.5,1233.1,768.9,1240.3,750.5,1240.3z"/>
		<path class="st1" d="M847.2,1274.7l8.5-26.6h62.9l8.5,26.6h42.3l-57.6-169.3h-49.3l-57.6,169.3H847.2z M887.2,1149.7l19.8,62.2
			h-39.7L887.2,1149.7z"/>
		<path class="st1" d="M1208.8,1274.7l8.5-26.6h62.9l8.5,26.6h42.3l-57.6-169.3H1224l-57.6,169.3H1208.8z M1248.7,1149.7l19.8,62.2
			h-39.7L1248.7,1149.7z"/>
		<rect x="374.2" y="1301.7" class="st1" width="30.9" height="135"/>
		<path class="st1" d="M520.7,1348c0-25.6-20.6-46.3-46.3-46.3h-54v135h30.9v-44.4H466l25.5,44.4h33.2l-28.7-49.6
			C510.7,1379.6,520.7,1364.6,520.7,1348z M474.4,1365.3h-23.1v-34.7h23.1c8.5,0,15.4,7.5,15.4,17.4S482.9,1365.3,474.4,1365.3z"/>
		<path class="st1" d="M631.6,1348c0-25.6-20.6-46.3-46.3-46.3h-54v135h30.9v-44.4h14.7l25.5,44.4h33.2l-28.7-49.6
			C621.6,1379.6,631.6,1364.6,631.6,1348z M585.3,1365.3h-23.1v-34.7h23.1c8.5,0,15.4,7.5,15.4,17.4S593.8,1365.3,585.3,1365.3z"/>
		<rect x="642.2" y="1301.7" class="st1" width="30.9" height="135"/>
		<path class="st1" d="M822.1,1361.5h-67.7v27h36.1c-4.8,12.9-16.6,20.8-34.5,20.8c-26.2,0-42.4-16.8-42.4-39.7
			c0-23.7,17-40.5,39.7-40.5c15.2,0,27.4,6.9,33,15.8l26.2-15c-11.4-18.1-33.2-30.9-59-30.9c-39.7,0-70.8,31.2-70.8,70.4
			c0,38.8,30.5,70,72.9,70c37.8,0,66.5-25.1,66.5-66.3V1361.5z"/>
		<path class="st1" d="M861.3,1301.7l-45.9,135h33.7l6.8-21.2H906l6.8,21.2h33.7l-45.9-135H861.3z M865.1,1386.5l15.8-49.6
			l15.8,49.6H865.1z"/>
		<path class="st1" d="M1067.8,1408.1l-26.6-15.4c-5.8,10.4-17.5,16.6-31.2,16.6c-23.9,0-39.3-16-39.3-40.1
			c0-24.1,15.4-40.1,39.3-40.1c13.7,0,25.3,6.2,31.2,16.6l26.6-15.4c-11.8-19.1-33.4-31.2-57.9-31.2c-40.7,0-70.2,30.5-70.2,70.2
			c0,36.3,24.7,65,60,69.6v12.9c6.2,0.6,10.2,1.5,10.2,3.9c0,2.5-5.8,3.7-18.3,2.7v20.1c32.4,1.9,43.4-5.8,43.4-17.9
			c0-9.3-6.9-13.5-12.1-14.8v-7.3C1042,1434.7,1058.4,1423.8,1067.8,1408.1z"/>
		<path class="st1" d="M1108.9,1301.7l-45.9,135h33.7l6.8-21.2h50.1l6.8,21.2h33.7l-45.9-135H1108.9z M1112.7,1386.5l15.8-49.6
			l15.8,49.6H1112.7z"/>
		<path class="st1" d="M1257.6,1299c-38.8,0-70.2,30.5-70.2,70.2c0,39.7,31.4,70.2,70.2,70.2c38.8,0,70.2-30.5,70.2-70.2
			C1327.8,1329.5,1296.3,1299,1257.6,1299z M1257.6,1409.3c-22,0-39.3-16-39.3-40.1c0-24.1,17.4-40.1,39.3-40.1s39.3,16,39.3,40.1
			C1296.9,1393.3,1279.6,1409.3,1257.6,1409.3z"/>
		<path class="st1" d="M1131.6,1264.2c-17.5-10.8-37.8-7.3-37.8,25.6h23.1c0-7.7,1.7-8.7,8.3-4.6c17.5,10.8,37.8,7.3,37.8-25.6
			h-23.1C1139.9,1267.3,1138.2,1268.2,1131.6,1264.2z"/>
		<path class="st1" d="M1102,1254.7c8.6-4.8,19.7-4.1,30.8,1.9v-4.2h16.4c16-15.3,25.8-37.3,25.8-62.4c0-47.9-35.6-84.6-82.2-84.6
			H1025v169.3h63.4C1091.2,1263.3,1096.9,1257.6,1102,1254.7z M1063.7,1142.6h29c26.6,0,45,18.4,45,47.4c0,29-18.4,47.4-45,47.4h-29
			V1142.6z"/>
	</g>
</g>
</svg>
