<?xml version="1.0" encoding="UTF-8"?>
<svg id="Layer_1" data-name="Layer 1" xmlns="http://www.w3.org/2000/svg" viewBox="0 0 1700.79 1700.79">
  <defs>
    <style>
      .cls-1 {
        font-family: HKNova-RegularR, 'HK Nova';
        font-size: 83.91px;
      }

      .cls-2 {
        letter-spacing: -.08em;
      }

      .cls-3 {
        letter-spacing: -.06em;
      }

      .cls-4 {
        letter-spacing: -.06em;
      }

      .cls-5 {
        letter-spacing: -.07em;
      }
    </style>
  </defs>
  <g>
    <path d="m1041.82,517.16c-14.4-114.09-195.47-99.22-152.59,31.61l5.63,18.31c15.96,57.28-34.59,68.55-61.66,25.04-12.05-19.09-21.28-36-30.83-53.21-34.9-61.66-107.99-21.28-76.37,55.71,22.22,54.31,74.65,123.64,109.86,162.14,29.11,31.93-5.16,59.16-32.08,31.93-42.41-42.88-98.44-119.72-123.95-180.45-56.5-134.75,91.71-206.58,157.44-90.3,10.96,19.56,22.07,42.26,30.99,61.66,2.5,5.32,10.64,1.56,8.14-3.76-9.08-19.72-20.03-42.26-31.3-62.29-24.1-42.73-59.16-61.82-92.18-62.91-30.36-.78-58.69,13.46-76.22,38.34-20.34,28.48-26.76,71.52-5.16,122.7,25.82,61.82,82.79,139.91,125.83,183.26,35.37,35.68,82.16-3.76,45.23-44.13-34.59-37.87-86.39-106.26-108.3-159.63-27.08-66.2,30.99-99.85,60.25-47.89,9.7,17.37,18.78,34.27,30.99,53.68,11.11,17.84,25.98,27.54,40.06,30.05,13.93,2.35,27.23-2.66,34.9-14.71,12.05-19.09,5.16-42.57-2.66-66.2-38.81-118.63,122.38-128.8,135.06-27.86,8.61,68.7-54.15,175.13-93.12,225.99-21.75,28.64-49.3,7.83-29.27-21.6,30.05-44.45,80.91-127.71,85.29-182.95,5.48-66.67-80.29-61.66-60.72-.63l5.16,17.84c7.98,31.77,2.82,59.94-10.02,80.13-14.09,21.75-37.56,34.27-63.7,30.83-53.37-7.04-83.57-71.99-105.64-116.44-2.5-5.32-10.64-1.41-7.98,3.91,10.8,22.07,24.1,49.45,40.85,72.46,73.87,101.73,182.01,32.08,155.09-73.09l-5.32-18.31c-10.02-31.77,13.77-42.26,29.58-32.55,50.24,30.83-50.55,184.99-70.11,213.78-26.61,39.13,15.02,69.96,43.98,32.08,40.53-53.05,103.92-161.04,94.84-232.56Z"/>
    <circle cx="737.1" cy="372.21" r="46.83"/>
    <circle cx="964.21" cy="382.68" r="36.37"/>
  </g>
  <g>
    <g>
      <path d="m606.16,920.09c-5.74,0-10.6,2.04-14.57,6.13-3.97,4.09-5.96,9-5.96,14.74v117.23l-116.89-131.13c-3.76-4.41-8.5-6.73-14.24-6.95-5.74-.22-10.71,1.55-14.9,5.3-3.97,3.76-6.18,8.17-6.62,13.25l-.33.33v173.85c0,5.74,2.04,10.6,6.13,14.57,4.08,3.97,8.99,5.96,14.74,5.96s10.6-1.99,14.57-5.96c3.97-3.97,5.96-8.83,5.96-14.57v-117.55l116.89,131.46.33.33.66.66c.44.45.77.66.99.66,0,.22.05.33.17.33s.17.11.17.33l1.32.66.33.33c.44.44.88.66,1.32.66l.33.33,1.32.66c.22,0,.33.06.33.17s.11.17.33.17.38.06.5.17c.11.11.27.17.5.17s.38.06.5.17c.11.12.27.17.5.17.44,0,.77.11.99.33h.99c.22,0,.38.06.5.17.11.11.27.17.5.17h4.97c.44,0,.71-.05.83-.17.11-.11.27-.17.5-.17h.66c.44,0,.71-.05.83-.17.11-.11.27-.17.5-.17l.66-.33c.44,0,.71-.05.83-.17.11-.11.38-.17.83-.17,0-.22.11-.33.33-.33.44,0,.88-.22,1.32-.66h.33c.44-.22.71-.38.83-.5.11-.11.38-.27.83-.5.66-.66,1.21-1.1,1.66-1.32l.66-.66.66-.66,1.32-1.32v-.33c.44-.22.71-.44.83-.66.11-.22.27-.44.5-.66v-.33c.22-.22.38-.44.5-.66.11-.22.27-.44.5-.66v-.33c.44-.44.66-.88.66-1.32.22-.22.33-.44.33-.66.22-.22.33-.66.33-1.32.22-.22.33-.44.33-.66s.05-.38.17-.5c.11-.11.17-.27.17-.5,0-.44.11-.77.33-.99v-3.31l.33-.33v-171.86c0-5.74-2.04-10.65-6.13-14.74-4.09-4.08-9-6.13-14.74-6.13Z"/>
      <path d="m822.46,952.21c-11.92-12.36-26.16-21.19-42.72-26.49-16.56-5.3-33.34-6.62-50.33-3.97-13.25,2.43-25.72,7.12-37.42,14.07-11.7,6.95-21.64,15.95-29.8,26.99-1.11,1.32-2.15,2.71-3.15,4.14-.99,1.44-1.93,2.81-2.81,4.14-9.72,15.68-14.96,32.73-15.73,51.16-.78,18.43,2.92,35.93,11.09,52.49,4.19,8.39,9.38,16.01,15.56,22.85,6.18,6.85,13.08,12.75,20.7,17.72,7.62,4.97,15.84,9,24.67,12.09,8.83,3.09,17.88,4.97,27.15,5.63,1.1.22,2.26.33,3.48.33h3.81c5.74,0,10.54-1.99,14.4-5.96,3.86-3.97,5.8-8.83,5.8-14.57s-1.94-10.54-5.8-14.4c-3.86-3.86-8.67-5.8-14.4-5.8h-1.32c-8.83-.44-16.89-2.21-24.17-5.3-6.85-2.87-13.03-6.84-18.54-11.92-5.41-4.98-9.87-10.6-13.36-16.85-.4-.78-.8-1.55-1.21-2.36-1.55-2.87-2.76-5.63-3.64-8.28h147.36c5.74-.22,10.65-2.32,14.74-6.29,4.08-3.97,6.24-8.83,6.46-14.57v-1.32c0-13.91-2.71-27.15-8.11-39.74-5.41-12.58-12.97-23.84-22.68-33.78Zm-137.75,54.31c2.43-7.06,5.96-13.63,10.6-19.7,4.64-6.07,10.15-11.2,16.56-15.4,7.72-4.85,16.11-8,25.17-9.44,9.05-1.43,17.88-.94,26.49,1.49,8.83,2.43,16.83,6.46,24.01,12.09,7.17,5.63,12.86,12.42,17.05,20.37,1.99,3.76,3.53,7.29,4.64,10.6h-124.51Z"/>
      <path d="m1022.94,1025.01c-5.74-5.72-12.47-10.29-20.2-13.71-7.73-3.41-16.01-5.12-24.84-5.12h-43.05c-6.18,0-11.37-2.18-15.56-6.56-4.2-4.37-6.29-9.58-6.29-15.63s2.11-11.53,6.32-15.79c4.21-4.26,9.31-6.5,15.29-6.73h42.22c5.76,0,10.69-2.02,14.79-6.07,4.1-4.05,6.15-8.93,6.15-14.62s-2.04-10.56-6.13-14.62c-4.09-4.05-9-6.08-14.74-6.08h-42.05c-8.83,0-17.05,1.71-24.67,5.13-7.62,3.42-14.3,8-20.03,13.74-5.74,5.74-10.27,12.47-13.58,20.2-3.31,7.73-4.97,16.01-4.97,24.84s1.66,17.11,4.97,24.84c3.31,7.73,7.83,14.46,13.58,20.2,5.74,5.74,12.47,10.27,20.2,13.58,7.72,3.31,16,4.97,24.83,4.97h43.05c5.96,0,11.09,2.17,15.4,6.51,4.31,4.34,6.46,9.62,6.46,15.84s-2.15,11.18-6.46,15.52c-4.3,4.34-9.44,6.5-15.4,6.5h-90.73c-5.74,0-10.65,2.03-14.73,6.08-4.09,4.05-6.13,8.93-6.13,14.62s2.04,10.57,6.13,14.62c4.08,4.05,8.99,6.07,14.73,6.07h91.4c8.61,0,16.75-1.7,24.44-5.12,7.69-3.41,14.32-7.98,19.91-13.71,5.58-5.72,10.02-12.44,13.3-20.15,3.29-7.71,4.93-15.85,4.93-24.44s-1.66-17.06-4.97-24.77c-3.31-7.71-7.84-14.43-13.58-20.15Z"/>
      <path d="m1268.11,1024.4c-.45-11.26-2.54-22.24-6.29-32.95-3.76-10.71-9.05-20.58-15.9-29.64-8.61-11.26-19.1-20.36-31.46-27.32-12.37-6.95-25.5-11.31-39.41-13.08-14.13-1.76-27.98-.71-41.56,3.15-13.58,3.86-26,9.99-37.25,18.38v-54.31c0-5.74-2.01-10.6-6.01-14.57-4.01-3.97-8.9-5.96-14.68-5.96s-10.69,1.99-14.69,5.96c-4,3.97-6.01,8.83-6.01,14.57v140.07c0,1.77.05,3.48.17,5.13.11,1.66.27,3.37.5,5.13.88,9.05,3.04,17.83,6.46,26.32,3.43,8.5,7.74,16.39,12.94,23.68,5.2,7.29,11.28,13.86,18.24,19.7,6.96,5.85,14.53,10.76,22.72,14.74,17.02,7.95,34.94,11.2,53.73,9.77,18.79-1.43,36.04-7.45,51.74-18.05,7.51-5.08,14.2-10.98,20.07-17.72,5.86-6.73,10.78-14.02,14.76-21.86,3.98-7.83,7.02-16.06,9.12-24.67,2.1-8.61,3.04-17.44,2.82-26.49Zm-52.97,40.07c-4.41,6.41-9.76,11.81-16.04,16.23-6.28,4.42-13.17,7.62-20.66,9.6-14.77,4.2-29.11,3.2-42.99-2.98,1.6.8,3.2,1.55,4.79,2.25-.21-.09-.43-.18-.64-.27-2.1-.88-4.14-1.87-6.13-2.98-8.17-3.53-15.23-8.83-21.19-15.89-7.73-9.05-12.75-19.42-15.07-31.13-2.32-11.7-1.49-23.18,2.48-34.44,3.09-8.39,7.73-15.9,13.91-22.52,6.18-6.62,13.46-11.81,21.86-15.56,8.38-3.53,17.09-5.3,26.13-5.3s17.74,1.88,26.12,5.63c3.52,1.77,6.88,3.64,10.08,5.63,3.2,1.99,6.23,4.31,9.1,6.95,5.73,5.74,10.35,12.31,13.88,19.7,3.52,7.4,5.51,15.18,5.95,23.35,1.1,15.46-2.76,29.36-11.57,41.72Z"/>
    </g>
    <text class="cls-1" transform="translate(459.8 1258.44)"><tspan class="cls-4" x="0" y="0">Núcleo Especiali</tspan><tspan class="cls-2" x="593.36" y="0">z</tspan><tspan class="cls-3" x="628.44" y="0">ado</tspan><tspan class="cls-4" x="-26.3" y="93.41">em Saúde e Bem-es</tspan><tspan class="cls-5" x="703.95" y="93.41">t</tspan><tspan class="cls-4" x="727.76" y="93.41">ar</tspan></text>
  </g>
</svg>