<?xml version="1.0" encoding="UTF-8"?>
<svg id="Camada_1" data-name="Camada 1" xmlns="http://www.w3.org/2000/svg" viewBox="0 0 1133.86 850.39">
  <g>
    <g>
      <path d="M331.97,617.3c-47.61,0-63.23-28.76-63.23-48.6h34.96c0,5.21,8.68,16.12,32.73,16.12,18.1,0,22.07-7.19,22.07-11.41,0-20.09-89.02-7.94-89.02-50.83,0-19.34,17.61-36.95,59.76-36.95,49.35,0,62.24,25.29,62.24,40.92h-34.96c0-7.19-9.92-13.39-29.76-13.39-11.41,0-22.57,2.48-22.57,8.93,0,15.13,89.77-.74,89.77,49.35,0,23.06-19.34,45.88-61.99,45.88Z"/>
      <path d="M426.43,517.86h-24.8v-32.23s24.79,0,24.79,0l.02-45.88h34.71l-.02,45.88h32.24v32.23s-32.23,0-32.23,0v49.84c.01,10.42,4.72,13.39,16.38,13.39h14.63v32.24h-33.48c-25.54,0-32.24-25.04-32.24-45.63v-49.84Z"/>
      <path d="M564.8,617.3c-36.45,0-62.49-29.76-62.49-66.7s26.04-64.97,62.49-64.97c16.37,0,29.01,5.7,37.94,15.37,5.21,5.46,5.95,15.62,8.18,22.81l5.95-1.98c-2.23-6.94-6.7-15.62-6.7-23.06v-13.14s34.7,0,34.7,0v127.7s-34.7,0-34.7,0v-10.17c0-7.44,4.46-16.37,6.45-23.31l-5.7-1.98c-2.23,7.19-2.98,17.36-7.94,23.06-8.93,10.17-21.57,16.37-38.19,16.37Zm2.48-32.24c17.36,0,30.5-15.87,30.75-34.47,0-18.85-10.66-32.73-30.75-32.73-17.36,0-30.25,13.89-30.25,32.73s12.89,34.47,30.25,34.47Z"/>
      <path d="M764.66,485.63v32.24c-31.74,0-65.22,11.41-65.22,45.87v49.59h-34.72v-127.7s34.7,0,34.7,0v1.49c0,10.91-5.69,27.27-10.15,37.19l5.46,2.48c4.46-9.92,9.42-23.56,18.35-29.76,13.64-9.42,28.52-11.41,51.58-11.41Z"/>
      <path d="M798.12,517.86h-24.8l.02-32.23h24.8v-45.88s34.71,0,34.71,0v45.88h32.24l.04,32.23h-32.24l-.04,49.84c0,10.42,4.71,13.39,16.37,13.39h14.63v32.24h-33.48c-25.54,0-32.24-25.04-32.24-45.63v-49.84Z"/>
    </g>
    <g>
      <path d="M336.7,663.84h-17.84l-3.91,8.65h-2.42l14.15-30.75h2.24l14.15,30.75h-2.42l-3.95-8.65Zm-.83-1.89l-8.08-17.75-8.04,17.75h16.12Z"/>
      <path d="M367.58,649.57v22.93h-2.11v-4.92c-1.49,3.21-4.61,5.1-8.65,5.1-5.84,0-9.58-3.29-9.58-9.71v-13.4h2.2v13.22c0,5.18,2.77,7.91,7.56,7.91,5.18,0,8.39-3.47,8.39-8.92v-12.21h2.2Z"/>
      <path d="M388.28,671.05c-1.14,1.1-2.99,1.62-4.7,1.62-4.04,0-6.24-2.37-6.24-6.24v-14.98h-4.22v-1.89h4.22v-5.01h2.2v5.01h7.29v1.89h-7.29v14.76c0,2.94,1.45,4.57,4.26,4.57,1.36,0,2.64-.44,3.56-1.27l.92,1.54Z"/>
      <path d="M391.05,661.03c0-6.81,4.88-11.64,11.47-11.64s11.47,4.83,11.47,11.64-4.88,11.64-11.47,11.64-11.47-4.83-11.47-11.64Zm20.69,0c0-5.75-3.95-9.66-9.23-9.66s-9.23,3.91-9.23,9.66,3.95,9.67,9.23,9.67,9.23-3.91,9.23-9.67Z"/>
      <path d="M458.49,659.1v13.4h-2.2v-13.22c0-5.18-2.68-7.91-7.16-7.91-5.18,0-8.39,3.47-8.39,8.92v12.21h-2.2v-13.22c0-5.18-2.68-7.91-7.16-7.91-5.18,0-8.39,3.47-8.39,8.92v12.21h-2.2v-22.93h2.11v4.92c1.49-3.21,4.61-5.1,8.79-5.1s7.16,1.89,8.39,5.54c1.49-3.34,4.83-5.54,9.27-5.54,5.54,0,9.14,3.29,9.14,9.71Z"/>
      <path d="M484.11,657.96v14.54h-2.11v-4.09c-1.45,2.64-4.26,4.26-8.26,4.26-5.14,0-8.26-2.64-8.26-6.55,0-3.47,2.2-6.41,8.57-6.41h7.86v-1.85c0-4.26-2.33-6.54-6.81-6.54-3.16,0-6.02,1.19-7.91,2.9l-1.1-1.58c2.28-2.02,5.62-3.25,9.18-3.25,5.67,0,8.83,2.9,8.83,8.57Zm-2.2,7.78v-4.3h-7.82c-4.74,0-6.41,1.98-6.41,4.61,0,2.99,2.33,4.83,6.37,4.83s6.55-1.85,7.86-5.14Z"/>
      <path d="M509.37,667.27l1.62,1.19c-1.89,2.77-5.05,4.22-8.7,4.22h-.22l-.57,2.2c2.33,.18,3.73,1.54,3.73,3.51,0,2.24-1.93,3.65-4.61,3.65-1.32,0-2.46-.31-3.47-1.1l.62-1.23c.79,.62,1.8,.92,2.86,.92,1.76,0,2.9-.83,2.9-2.33,0-1.32-1.01-2.24-2.9-2.24h-.88l.92-3.47c-5.89-.75-9.97-5.32-9.97-11.55,0-6.85,4.88-11.64,11.6-11.64,3.65,0,6.81,1.41,8.7,4.22l-1.62,1.19c-1.67-2.33-4.22-3.43-7.07-3.43-5.4,0-9.36,3.87-9.36,9.66s3.95,9.67,9.36,9.67c2.86,0,5.4-1.1,7.07-3.43Z"/>
      <path d="M534.15,657.96v14.54h-2.11v-4.09c-1.45,2.64-4.26,4.26-8.26,4.26-5.14,0-8.26-2.64-8.26-6.55,0-3.47,2.2-6.41,8.57-6.41h7.86v-1.85c0-4.26-2.33-6.54-6.81-6.54-3.16,0-6.02,1.19-7.91,2.9l-1.1-1.58c2.28-2.02,5.62-3.25,9.18-3.25,5.67,0,8.83,2.9,8.83,8.57Zm-2.2,7.78v-4.3h-7.82c-4.74,0-6.41,1.98-6.41,4.61,0,2.99,2.33,4.83,6.37,4.83s6.55-1.85,7.86-5.14Zm-11.82-20.43h-1.45c.09-2.64,1.49-4.39,3.65-4.39,2.64,0,3.82,3.03,5.67,3.03,1.36,0,2.24-1.1,2.33-2.77h1.45c-.09,2.55-1.49,4.31-3.65,4.31-2.64,0-3.82-3.03-5.67-3.03-1.36,0-2.24,1.1-2.33,2.86Z"/>
      <path d="M540.74,661.03c0-6.81,4.88-11.64,11.47-11.64s11.47,4.83,11.47,11.64-4.88,11.64-11.47,11.64-11.47-4.83-11.47-11.64Zm20.69,0c0-5.75-3.95-9.66-9.23-9.66s-9.23,3.91-9.23,9.66,3.95,9.67,9.23,9.67,9.23-3.91,9.23-9.67Z"/>
      <path d="M603.83,672.5l-7.34-10.28c-.97,.13-1.93,.22-2.99,.22h-8.79v10.06h-2.24v-30.75h11.03c7.73,0,12.39,3.87,12.39,10.37,0,4.88-2.64,8.26-7.21,9.62l7.69,10.76h-2.55Zm-10.32-12.04c6.59,0,10.1-3.08,10.1-8.35s-3.51-8.35-10.1-8.35h-8.79v16.69h8.79Z"/>
      <path d="M632.78,661.56h-19.72c.22,5.45,4.22,9.14,9.71,9.14,2.9,0,5.58-1.05,7.34-3.21l1.27,1.45c-2.02,2.46-5.18,3.73-8.65,3.73-6.94,0-11.82-4.83-11.82-11.64s4.7-11.64,10.98-11.64,10.94,4.75,10.94,11.55c0,.18-.04,.4-.04,.62Zm-19.68-1.71h17.57c-.31-4.96-3.91-8.52-8.79-8.52s-8.43,3.51-8.79,8.52Z"/>
      <path d="M636.26,669.73l1.01-1.76c1.76,1.49,4.88,2.77,8.26,2.77,4.83,0,6.77-1.71,6.77-4.31,0-6.68-15.2-1.76-15.2-10.76,0-3.47,2.9-6.28,8.7-6.28,2.9,0,6.06,.88,7.86,2.24l-1.01,1.76c-1.93-1.41-4.44-2.06-6.9-2.06-4.48,0-6.46,1.84-6.46,4.3,0,6.9,15.2,2.02,15.2,10.76,0,3.73-3.21,6.28-9.05,6.28-3.78,0-7.38-1.27-9.18-2.94Z"/>
      <path d="M659.94,642.23c0-.97,.79-1.8,1.8-1.8s1.8,.79,1.8,1.76-.79,1.8-1.8,1.8-1.8-.79-1.8-1.76Zm.7,7.34h2.2v22.93h-2.2v-22.93Z"/>
      <path d="M692.49,639.9v32.6h-2.15v-5.4c-1.8,3.56-5.27,5.58-9.4,5.58-6.46,0-11.33-4.79-11.33-11.64s4.88-11.64,11.33-11.64c4.09,0,7.51,2.02,9.36,5.49v-14.98h2.2Zm-2.2,21.13c0-5.75-3.95-9.66-9.23-9.66s-9.23,3.91-9.23,9.66,3.95,9.67,9.23,9.67,9.23-3.91,9.23-9.67Z"/>
      <path d="M721.14,661.56h-19.72c.22,5.45,4.22,9.14,9.71,9.14,2.9,0,5.58-1.05,7.34-3.21l1.27,1.45c-2.02,2.46-5.18,3.73-8.65,3.73-6.94,0-11.82-4.83-11.82-11.64s4.7-11.64,10.98-11.64,10.94,4.75,10.94,11.55c0,.18-.04,.4-.04,.62Zm-19.68-1.71h17.57c-.31-4.96-3.91-8.52-8.79-8.52s-8.43,3.51-8.79,8.52Z"/>
      <path d="M748.51,659.1v13.4h-2.2v-13.22c0-5.18-2.77-7.91-7.42-7.91-5.4,0-8.7,3.47-8.7,8.92v12.21h-2.2v-22.93h2.11v4.96c1.54-3.21,4.74-5.14,9.09-5.14,5.58,0,9.31,3.29,9.31,9.71Z"/>
      <path d="M755.11,661.03c0-6.85,4.88-11.64,11.6-11.64,3.65,0,6.81,1.41,8.7,4.22l-1.62,1.19c-1.67-2.33-4.22-3.43-7.07-3.43-5.4,0-9.36,3.87-9.36,9.66s3.95,9.67,9.36,9.67c2.86,0,5.4-1.1,7.07-3.43l1.62,1.19c-1.89,2.77-5.05,4.22-8.7,4.22-6.72,0-11.6-4.83-11.6-11.64Z"/>
      <path d="M781.29,642.23c0-.97,.79-1.8,1.8-1.8s1.8,.79,1.8,1.76-.79,1.8-1.8,1.8-1.8-.79-1.8-1.76Zm.7,7.34h2.2v22.93h-2.2v-22.93Z"/>
      <path d="M810.02,657.96v14.54h-2.11v-4.09c-1.45,2.64-4.26,4.26-8.26,4.26-5.14,0-8.26-2.64-8.26-6.55,0-3.47,2.2-6.41,8.57-6.41h7.86v-1.85c0-4.26-2.33-6.54-6.81-6.54-3.16,0-6.02,1.19-7.91,2.9l-1.1-1.58c2.28-2.02,5.62-3.25,9.18-3.25,5.67,0,8.83,2.9,8.83,8.57Zm-2.2,7.78v-4.3h-7.82c-4.74,0-6.41,1.98-6.41,4.61,0,2.99,2.33,4.83,6.37,4.83s6.55-1.85,7.86-5.14Z"/>
      <path d="M819.08,639.9h2.2v32.6h-2.2v-32.6Z"/>
    </g>
  </g>
  <g>
    <path d="M602.12,296.4h-21.07l-24.35,44.15c-.35,.66-.25,.96-.13,1.19,.24,.44,.8,.78,1.3,.78,.15,0,.46,0,1-.54l43.76-44.06c.13-.13,.44-.44,.26-.98-.18-.53-.59-.53-.76-.53Z"/>
    <path d="M583.58,207.45c.18-.35,.13-.44,.09-.52-.15-.29-.53-.49-.78-.49-.04,0-.16,0-.45,.28l-51.21,53.09c-.13,.13-.44,.44-.26,.98,.18,.53,.59,.53,.76,.53h18.62l33.23-53.87Z"/>
    <polygon points="558.98 274.29 553.34 283.44 571.93 283.44 576.98 274.29 558.98 274.29"/>
    <path d="M638.23,164.42h-142.59c-21.41,0-38.76,17.35-38.76,38.76v142.59c0,21.41,17.35,38.76,38.76,38.76h142.59c21.41,0,38.76-17.35,38.76-38.76V203.18c0-21.41-17.35-38.76-38.76-38.76Zm-26.88,141.99l-43.76,44.06c-3.21,3.23-7.24,5.01-11.35,5.01-4.82,0-9.17-2.51-11.35-6.54-2.15-3.96-1.98-8.84,.48-13.38l.03-.06,21.57-39.1h-17.22c-3.99,0-7.42-2-9.18-5.35-1.75-3.35-1.55-7.53,.53-11.17l.13-.22,3.31-5.37h-14.43c-5.5,0-9.95-3.11-11.6-8.12-1.65-4.99-.13-10.65,3.96-14.8l51.23-53.11c3.06-3.08,6.91-4.78,10.83-4.78,4.67,0,8.85,2.45,10.91,6.4,2.03,3.88,1.77,8.59-.72,12.94l-.13,.22-29.79,48.3h15.43c3.98,0,7.43,1.98,9.23,5.29,1.79,3.31,1.68,7.48-.31,11.16l-.03,.06-3.09,5.6h17.73c5.5,0,9.95,3.11,11.6,8.12,1.66,5.01,.12,10.7-4.01,14.85Z"/>
    <path d="M518.5,266.17l13.23-4.85c-.18,0-13.23,4.85-13.23,4.85Z"/>
    <polygon points="571.93 283.44 571.93 283.44 586.02 283.44 586.03 283.44 574.11 283.44 571.93 283.44"/>
    <polygon points="558.98 274.29 558.98 274.29 544.54 274.29 544.54 274.29 556.8 274.29 558.98 274.29"/>
  </g>
</svg>