<?xml version="1.0" encoding="UTF-8"?>
<svg id="Layer_1" data-name="Layer 1" xmlns="http://www.w3.org/2000/svg" viewBox="0 0 2834.65 1133.86">
  <path d="m1201.29,479.89h-47.64c-19.05,0-34.49,15.44-34.49,34.49v196.32c0,17.97-13.77,33.2-31.7,34.38-2.88.19-5.8.28-8.78.28-35.22,0-52.82-20.58-52.82-61.74v-169.25c0-19.05-15.44-34.49-34.49-34.49h-47.64c-19.05,0-34.49,15.44-34.49,34.49v168.56c0,51.22,12.57,90.44,37.73,117.65,25.15,27.21,67.91,40.81,128.28,40.81,45.54,0,90.76-6.67,135.66-20.03,14.7-4.37,24.86-17.79,24.86-33.13v-273.86c0-19.05-15.44-34.49-34.49-34.49Z"/>
  <path d="m1543.82,520.02c-34.07-32.24-79.92-48.36-137.54-48.36-33.63,0-66.13,3.83-97.51,11.5-30.47,7.44-52.03,34.55-52.03,65.91v427.77c0,3.03,2.46,5.49,5.49,5.49h72.18c21.51,0,38.95-17.44,38.95-38.95v-101.71c0-3.52,3.25-6.13,6.69-5.35,10.91,2.48,24.46,3.72,40.65,3.72,52.13,0,94.2-17.03,126.22-51.11,32-34.06,48.02-79.23,48.02-135.48s-17.04-101.18-51.11-133.42Zm-85.06,203.74c-11.66,14.41-30.3,21.61-55.91,21.61-8.65,0-17.12-1.18-25.43-3.54-2.39-.68-4.06-2.83-4.06-5.31v-160.79c0-2.67,1.94-4.95,4.56-5.41,9.95-1.74,17.11-2.61,21.5-2.61,51.21,0,76.83,29.73,76.83,89.18,0,30.18-5.83,52.48-17.49,66.88Z"/>
  <path d="m2203.41,746.82c-5.15.37-10.71-1.46-16.7-1.46-27.9,0-41.85-17.6-41.85-52.82v-115.15c0-2.7,2.19-4.89,4.89-4.89h50.12c7.12,0,12.9-5.77,12.9-12.9v-66.17c0-7.48-6.06-13.54-13.54-13.54h-49.48c-2.7,0-4.89-2.19-4.89-4.89v-59.65c0-7.81-6.53-14.04-14.33-13.67l-89.43.17c-7.2.34-12.86,6.28-12.86,13.48v59.66c0,2.7-2.19,4.89-4.89,4.89h-25.76c-7.69,0-13.93,6.24-13.93,13.93v65.14c0,7.48,6.06,13.54,13.54,13.54h26.15c2.7,0,4.89,2.19,4.89,4.89v116.52c0,98.33,44.59,147.49,133.77,147.49,17.81,0,29.91-.95,44.39-2.86,9.05-1.19,15.62-9.17,15.02-18.28l.09-57.67c-.62-9.37-8.73-16.45-18.1-15.77Z"/>
  <path d="m2564.46,740.56h-170.02c-4.78,0-7.1-5.52-4.04-9.19l119.7-172.06c.52-.74.65-1.69.65-2.6v-63.04c0-7.61-6.17-13.79-13.79-13.79h-239.27c-7.61,0-13.79,6.17-13.79,13.79v65.03c0,7.61,6.17,13.79,13.79,13.79h118.8c4.22,0,6.89,4.57,4.77,8.23-17.29,25.92-103.56,135.94-135.2,170.48-2.33,2.54-3.6,5.84-3.6,9.28v58.9c0,7.61,6.17,13.79,13.79,13.79h308.21c7.61,0,13.79-6.17,13.79-13.79v-65.03c0-7.61-6.17-13.79-13.79-13.79Z"/>
  <path d="m748.73,484.37c71.18-46.92,92.39-117.17,80.12-185.8-17.75-99.27-86.56-147.04-184.3-147.04h-300.2c-45.87,0-88.38,22.86-87.86,74.18l3.1,302.66c70.12,2.44,144.13-18.97,144.13-102.09v-105.86c0-88.81,140.53-96.93,177.34-35.76,12.25,20.35,5.44,61.33,44.24,61.33h57.4c54.02,0,34.94,139.26-88.96,133.93h-167.06c-27.56,51.75-83.42,79.45-167.09,83.54l-3.19,285.72h388.79c119.25,0,232.39-62.27,242.56-189.83,5.69-71.38-31.93-155.3-139.03-174.97Zm-24.88,154.65c-12.07,66.94-55.42,99.81-122.3,99.81h-194.02v-199.61h188.28c58.86,0,112.51,11.7,126.12,78.44l101.4-40.18c-6.79,59.19-50,89.03-99.49,61.54Z"/>
  <path d="m528.9,342.69c12.15-.46,22.2-10.51,22.66-22.66.51-13.45-10.24-24.52-23.58-24.52s-23.6,10.56-23.6,23.6,11.06,24.09,24.51,23.58Z"/>
  <path d="m1949.2,657.14c9-8.53,13.5-20.84,13.5-36.96,0-21.79-4.15-41.93-12.44-60.41-8.3-18.48-19.9-34.35-34.82-47.62-14.93-13.26-32.69-23.69-53.3-31.27-20.61-7.57-43.48-11.37-68.58-11.37-22.28,0-44.06,3.44-65.39,10.31-21.32,6.87-40.28,17.53-56.86,31.98-16.59,14.46-29.97,32.94-40.16,55.44-10.19,22.51-15.28,49.39-15.28,80.67s5.09,59.47,15.28,83.16c10.18,23.7,24.16,43.35,41.93,58.99,17.77,15.64,38.61,27.36,62.54,35.18,23.92,7.82,49.86,11.73,77.83,11.73,7.92,0,16.13-.33,24.6-.98.13.06.27.1.4.16,8.3,3.85,18.16,4.34,29.49,6.82-1.92-4.46-3.02-7.01-4.24-9.84,1.02-.15,2.03-.28,3.05-.43.2-.03.4-.07.6-.1,18.8,4.22,37.11,6.34,56.75.25-3.73-3.87-6.34-6.57-8.92-9.24,13.98-6.31,27.82-12.56,41.65-18.81-.21-1.2-.42-2.4-.64-3.59-3.68-1.36-7.35-2.72-14.44-5.35,3.69-2.84,6.8-4.56,9.04-7.06,9.21-10.31,13.25-22.36,11.52-36.28-2.91-23.5-20.93-34.61-41.38-26.39-.06-.04-.12-.07-.18-.11-.38.23-.8.45-1.18.68-1.15.51-2.31,1.07-3.48,1.7-1.59.86-3.14,1.79-4.7,2.72-9.26,4.55-20.22,8.65-32.92,12.31-17.3,4.98-35.66,7.46-55.08,7.46-20.86,0-39.33-8.09-55.44-15.91-16.11-7.82-26.77-19.55-31.98-35.18l175.55-26.3c16.1-2.37,28.66-7.82,37.67-16.35Zm-166.02-134.63c1.78-9.51,11.37-22.29,19.93-20.68,8.57,1.61,12.87,16.98,11.09,26.5-1.78,9.51-4.9,16.91-18.74,14.32-13.83-2.59-14.07-10.62-12.28-20.13Zm-53.05,78.75c-6.75,12.35-14.45,10.09-22.94,5.45-8.49-4.64-17.67-17.71-13.5-25.35,4.18-7.65,20.13-6.98,28.63-2.34,8.49,4.64,14.56,9.9,7.81,22.25Zm-4.38-57.17c-5.27-8.12-7.15-23.97.16-28.72,7.31-4.75,21.04,3.41,26.31,11.53,5.27,8.12,8.12,15.62-3.69,23.29-11.8,7.67-17.51,2.02-22.78-6.1Zm111.34,82.97c-6.8,7.01-17.58,9.97-29.1,8.98-5.53-.48-11.21,1.13-15.67,4.44-9.28,6.88-20.02,10.01-29.49,7.61-17.25-4.37-23.76-25.45-14.54-47.07,6.29-14.74,18.27-25.93,30.72-30.18.02,0,.05-.02.07-.02.2-.07.4-.13.6-.2.11-.04.22-.07.34-.11.15-.05.3-.09.45-.14.14-.04.28-.08.42-.12.14-.04.28-.08.42-.12.15-.04.3-.08.45-.12.11-.03.23-.06.34-.09.2-.05.41-.1.62-.15.02,0,.05-.01.07-.02,12.83-2.92,28.9.33,41.98,9.58,19.19,13.58,24.7,34.93,12.3,47.71Zm26.6-63.6c-3.61,8.98-8.12,15.62-21.18,10.37-13.06-5.25-11.72-13.16-8.11-22.14,3.61-8.98,15.51-19.63,23.59-16.38,8.09,3.25,9.3,19.17,5.69,28.15Z"/>
  <path d="m939.38,335.69c7.06,4.2,14.98,6.3,23.75,6.3,11.08,0,20.4-2.58,27.98-7.76,7.57-5.17,13.11-12.42,16.62-21.74h-7.2c-2.77,7.39-7.36,13.23-13.78,17.52-6.42,4.29-14.29,6.44-23.61,6.44-7.48,0-14.27-1.8-20.36-5.4-6.09-3.6-10.9-8.7-14.4-15.3-3.51-6.6-5.26-14.33-5.26-23.2s1.75-16.78,5.26-23.48c3.51-6.69,8.31-11.82,14.4-15.37,6.09-3.55,12.88-5.33,20.36-5.33,9.32,0,17.19,2.15,23.61,6.44,6.42,4.29,11.01,10.13,13.78,17.52h7.2c-3.51-9.32-9.05-16.57-16.62-21.74-7.57-5.17-16.9-7.76-27.98-7.76-8.77,0-16.69,2.13-23.75,6.37-7.06,4.25-12.6,10.13-16.62,17.66-4.02,7.53-6.02,16.09-6.02,25.69s2.01,18.03,6.02,25.55c4.02,7.53,9.56,13.39,16.62,17.59Z"/>
  <path d="m1035.56,337.42c5.54,3.14,11.82,4.71,18.84,4.71,9.32,0,17.03-2.38,23.13-7.13,6.09-4.75,9.88-10.96,11.36-18.63h-6.51c-1.29,6.28-4.43,11.24-9.42,14.89-4.99,3.65-11.17,5.47-18.56,5.47-5.36,0-10.3-1.15-14.82-3.46-4.52-2.31-8.17-5.77-10.94-10.39-2.77-4.62-4.25-10.29-4.43-17.03h64.95c.18-1.66.28-4.16.28-7.48,0-5.91-1.38-11.43-4.15-16.55-2.77-5.12-6.81-9.23-12.12-12.33-5.31-3.09-11.56-4.64-18.77-4.64s-13.43,1.55-18.97,4.64c-5.54,3.09-9.86,7.55-12.95,13.36-3.09,5.82-4.64,12.65-4.64,20.5s1.57,14.7,4.71,20.57c3.14,5.86,7.48,10.37,13.02,13.5Zm-6.86-53.6c2.82-4.62,6.46-8.05,10.94-10.32,4.48-2.26,9.35-3.39,14.61-3.39s10.16,1.13,14.68,3.39c4.52,2.26,8.1,5.7,10.73,10.32,2.63,4.62,3.81,10.25,3.53,16.9h-59c.18-6.65,1.68-12.28,4.5-16.9Z"/>
  <path d="m1108.97,300.44c0-10.16,2.42-17.82,7.27-22.99,4.85-5.17,11.33-7.76,19.46-7.76s13.9,2.38,18.42,7.13c4.52,4.76,6.79,11.61,6.79,20.57v43.63h6.09v-44.04c0-10.8-2.82-18.95-8.45-24.44-5.63-5.49-12.93-8.24-21.88-8.24-6.46,0-12.17,1.5-17.1,4.5-4.94,3-8.47,7.32-10.59,12.95v-15.93h-6.23v75.2h6.23v-40.58Z"/>
  <path d="m1186.52,320.94c0,7.2,1.55,12.35,4.64,15.44,3.09,3.09,7.92,4.64,14.47,4.64h9.42v-5.54h-8.45c-5.17,0-8.77-1.04-10.8-3.12-2.03-2.08-3.05-5.89-3.05-11.43v-49.72h22.3v-5.4h-22.3v-19.11h-6.23v19.11h-11.36v5.4h11.36v49.72Z"/>
  <path d="m1260.06,270.8v-6.51c-7.29,0-13.3,1.45-18,4.36-4.71,2.91-7.99,7.13-9.83,12.67v-15.51h-6.23v75.2h6.23v-43.35c0-9.51,2.45-16.36,7.34-20.57,4.89-4.2,11.03-6.3,18.42-6.3h2.08Z"/>
  <path d="m1283.05,337.42c5.63,3.14,11.96,4.71,18.97,4.71s13.36-1.57,19.04-4.71c5.68-3.14,10.13-7.64,13.36-13.5,3.23-5.86,4.85-12.72,4.85-20.57s-1.59-14.68-4.78-20.5c-3.19-5.82-7.6-10.27-13.23-13.36-5.63-3.09-11.96-4.64-18.97-4.64s-13.36,1.55-19.04,4.64c-5.68,3.09-10.13,7.57-13.36,13.43-3.23,5.86-4.85,12.67-4.85,20.43s1.59,14.7,4.78,20.57c3.19,5.86,7.59,10.37,13.23,13.5Zm-7.34-52.35c2.86-4.99,6.62-8.7,11.29-11.15,4.66-2.45,9.72-3.67,15.17-3.67s10.53,1.22,15.23,3.67c4.71,2.45,8.49,6.16,11.36,11.15,2.86,4.99,4.29,11.08,4.29,18.28s-1.43,13.43-4.29,18.42c-2.86,4.99-6.67,8.7-11.43,11.15-4.76,2.45-9.86,3.67-15.3,3.67s-10.5-1.22-15.17-3.67c-4.66-2.45-8.4-6.16-11.22-11.15-2.82-4.99-4.22-11.13-4.22-18.42s1.43-13.3,4.29-18.28Z"/>
  <path d="m1399.87,337.35c5.49,3.19,11.75,4.78,18.77,4.78,7.94,0,14.68-1.96,20.22-5.89,5.54-3.92,9.42-8.98,11.63-15.17v19.94h6.23v-102.49h-6.23v46.95c-2.31-6.09-6.28-11.06-11.91-14.89-5.63-3.83-12.28-5.75-19.94-5.75-7.02,0-13.27,1.57-18.77,4.71-5.49,3.14-9.79,7.62-12.88,13.43-3.09,5.82-4.64,12.6-4.64,20.36s1.54,14.57,4.64,20.43c3.09,5.86,7.39,10.39,12.88,13.57Zm-7.27-51.73c2.58-4.99,6.18-8.79,10.8-11.43,4.62-2.63,9.97-3.95,16.07-3.95s11.08,1.36,15.79,4.09c4.71,2.72,8.42,6.6,11.15,11.63,2.72,5.03,4.09,10.83,4.09,17.38s-1.34,12.49-4.02,17.52c-2.68,5.03-6.39,8.91-11.15,11.63-4.76,2.72-10.04,4.09-15.86,4.09s-11.34-1.34-16-4.02c-4.66-2.68-8.29-6.51-10.87-11.5-2.59-4.99-3.88-10.89-3.88-17.73s1.29-12.74,3.88-17.73Z"/>
  <path d="m1487.74,337.42c5.54,3.14,11.82,4.71,18.84,4.71,9.32,0,17.03-2.38,23.13-7.13,6.09-4.75,9.88-10.96,11.36-18.63h-6.51c-1.29,6.28-4.43,11.24-9.42,14.89-4.99,3.65-11.17,5.47-18.56,5.47-5.36,0-10.3-1.15-14.82-3.46-4.52-2.31-8.17-5.77-10.94-10.39-2.77-4.62-4.25-10.29-4.43-17.03h64.95c.18-1.66.28-4.16.28-7.48,0-5.91-1.39-11.43-4.16-16.55s-6.81-9.23-12.12-12.33c-5.31-3.09-11.56-4.64-18.77-4.64s-13.43,1.55-18.97,4.64c-5.54,3.09-9.86,7.55-12.95,13.36-3.09,5.82-4.64,12.65-4.64,20.5s1.57,14.7,4.71,20.57c3.14,5.86,7.48,10.37,13.02,13.5Zm-6.86-53.6c2.81-4.62,6.46-8.05,10.94-10.32,4.48-2.26,9.35-3.39,14.61-3.39s10.16,1.13,14.68,3.39c4.52,2.26,8.1,5.7,10.73,10.32,2.63,4.62,3.81,10.25,3.53,16.9h-59c.18-6.65,1.68-12.28,4.5-16.9Z"/>
  <path d="m1644.24,335c6.09-4.75,9.88-10.96,11.36-18.63h-6.51c-1.29,6.28-4.43,11.24-9.42,14.89-4.99,3.65-11.17,5.47-18.56,5.47-5.36,0-10.3-1.15-14.82-3.46-4.52-2.31-8.17-5.77-10.94-10.39-2.77-4.62-4.25-10.29-4.43-17.03h64.95c.18-1.66.28-4.16.28-7.48,0-5.91-1.39-11.43-4.16-16.55s-6.81-9.23-12.12-12.33c-5.31-3.09-11.56-4.64-18.77-4.64s-13.43,1.55-18.97,4.64c-5.54,3.09-9.86,7.55-12.95,13.36-3.09,5.82-4.64,12.65-4.64,20.5s1.57,14.7,4.71,20.57c3.14,5.86,7.48,10.37,13.02,13.5,5.54,3.14,11.82,4.71,18.84,4.71,9.32,0,17.03-2.38,23.13-7.13Zm-48.82-51.17c2.81-4.62,6.46-8.05,10.94-10.32,4.48-2.26,9.35-3.39,14.61-3.39s10.16,1.13,14.68,3.39c4.52,2.26,8.1,5.7,10.73,10.32,2.63,4.62,3.81,10.25,3.53,16.9h-59c.18-6.65,1.68-12.28,4.5-16.9Z"/>
  <path d="m1708.16,332.37c-3.37,2.91-7.92,4.36-13.64,4.36-6.92,0-12.4-1.43-16.41-4.29-4.02-2.86-6.26-6.74-6.72-11.63h-6.37c.64,6.83,3.62,12.1,8.93,15.79,5.31,3.69,12.16,5.54,20.57,5.54,4.71,0,8.95-.88,12.74-2.63,3.79-1.75,6.74-4.2,8.86-7.34,2.12-3.14,3.18-6.65,3.18-10.53,0-4.25-1.11-7.64-3.32-10.18-2.22-2.54-4.92-4.48-8.1-5.82-3.19-1.34-7.41-2.7-12.67-4.09-4.8-1.29-8.66-2.51-11.56-3.67-2.91-1.15-5.36-2.82-7.34-4.99-1.99-2.17-2.98-5.01-2.98-8.52,0-3.97,1.75-7.34,5.26-10.11,3.51-2.77,7.94-4.16,13.3-4.16,6.37,0,11.36,1.57,14.96,4.71,3.6,3.14,5.54,7.2,5.82,12.19h6.23c-.37-6.92-2.98-12.35-7.83-16.27-4.85-3.92-11.2-5.89-19.04-5.89-4.8,0-9.1.88-12.88,2.63-3.79,1.76-6.74,4.13-8.86,7.13-2.13,3-3.19,6.26-3.19,9.76,0,4.8,1.2,8.63,3.6,11.5,2.4,2.86,5.31,5.01,8.73,6.44,3.41,1.43,7.89,2.89,13.43,4.36,4.62,1.2,8.26,2.31,10.94,3.32,2.68,1.02,4.92,2.47,6.72,4.36,1.8,1.89,2.7,4.32,2.7,7.27,0,4.25-1.69,7.83-5.06,10.73Z"/>
  <path d="m1735.79,320.94c0,7.2,1.54,12.35,4.64,15.44,3.09,3.09,7.92,4.64,14.47,4.64h9.42v-5.54h-8.45c-5.17,0-8.77-1.04-10.8-3.12-2.03-2.08-3.05-5.89-3.05-11.43v-49.72h22.3v-5.4h-22.3v-19.11h-6.23v19.11h-11.36v5.4h11.36v49.72Z"/>
  <polygon points="1819.16 236.46 1792.01 254.6 1792.01 259.72 1819.16 242.55 1819.16 236.46"/>
  <path d="m1789.11,337.42c5.54,3.14,11.82,4.71,18.84,4.71,9.32,0,17.03-2.38,23.13-7.13,6.09-4.75,9.88-10.96,11.36-18.63h-6.51c-1.29,6.28-4.43,11.24-9.42,14.89-4.99,3.65-11.17,5.47-18.56,5.47-5.36,0-10.3-1.15-14.82-3.46-4.52-2.31-8.17-5.77-10.94-10.39-2.77-4.62-4.25-10.29-4.43-17.03h64.95c.18-1.66.28-4.16.28-7.48,0-5.91-1.39-11.43-4.16-16.55s-6.81-9.23-12.12-12.33c-5.31-3.09-11.56-4.64-18.77-4.64s-13.43,1.55-18.97,4.64c-5.54,3.09-9.86,7.55-12.95,13.36-3.09,5.82-4.64,12.65-4.64,20.5s1.57,14.7,4.71,20.57c3.14,5.86,7.48,10.37,13.02,13.5Zm-6.86-53.6c2.81-4.62,6.46-8.05,10.94-10.32,4.48-2.26,9.35-3.39,14.61-3.39s10.16,1.13,14.68,3.39c4.52,2.26,8.1,5.7,10.73,10.32,2.63,4.62,3.81,10.25,3.53,16.9h-59c.18-6.65,1.68-12.28,4.5-16.9Z"/>
  <path d="m1859.32,320.94c0,7.2,1.54,12.35,4.64,15.44,3.09,3.09,7.92,4.64,14.47,4.64h9.42v-5.54h-8.45c-5.17,0-8.77-1.04-10.8-3.12-2.03-2.08-3.05-5.89-3.05-11.43v-49.72h22.3v-5.4h-22.3v-19.11h-6.23v19.11h-11.36v5.4h11.36v49.72Z"/>
  <rect x="1898.79" y="265.82" width="6.23" height="75.2"/>
  <path d="m1901.98,249.06c1.48,0,2.72-.48,3.74-1.45,1.01-.97,1.52-2.29,1.52-3.95,0-1.57-.51-2.86-1.52-3.88-1.02-1.02-2.26-1.52-3.74-1.52s-2.72.51-3.74,1.52c-1.02,1.02-1.52,2.31-1.52,3.88,0,1.66.51,2.98,1.52,3.95,1.01.97,2.26,1.45,3.74,1.45Z"/>
  <path d="m1982.86,315.95c-1.2,6.46-4.32,11.54-9.35,15.23-5.03,3.69-11.24,5.54-18.63,5.54-5.54,0-10.57-1.25-15.1-3.74-4.52-2.49-8.15-6.23-10.87-11.22-2.72-4.99-4.09-11.13-4.09-18.42s1.36-13.32,4.09-18.35c2.72-5.03,6.35-8.77,10.87-11.22,4.52-2.45,9.56-3.67,15.1-3.67,7.39,0,13.59,1.85,18.63,5.54,5.03,3.69,8.15,8.77,9.35,15.23h6.51c-1.48-7.94-5.24-14.27-11.29-18.97-6.05-4.71-13.78-7.06-23.2-7.06-7.11,0-13.41,1.55-18.9,4.64-5.49,3.09-9.79,7.55-12.88,13.36-3.09,5.82-4.64,12.65-4.64,20.5s1.54,14.7,4.64,20.57c3.09,5.86,7.39,10.37,12.88,13.5,5.49,3.14,11.79,4.71,18.9,4.71,9.32,0,17.04-2.4,23.13-7.2,6.09-4.8,9.88-11.13,11.36-18.97h-6.51Z"/>
  <path d="m2016.44,337.35c5.49,3.19,11.75,4.78,18.77,4.78,7.85,0,14.56-1.96,20.15-5.89,5.59-3.92,9.49-8.93,11.7-15.03v19.8h6.23v-75.2h-6.23v19.67c-2.22-6-6.09-10.94-11.63-14.82-5.54-3.88-12.28-5.82-20.22-5.82-7.02,0-13.27,1.57-18.77,4.71-5.49,3.14-9.79,7.62-12.88,13.43-3.09,5.82-4.64,12.6-4.64,20.36s1.54,14.57,4.64,20.43c3.09,5.86,7.39,10.39,12.88,13.57Zm-7.27-51.73c2.58-4.99,6.18-8.79,10.8-11.43,4.62-2.63,9.97-3.95,16.07-3.95s11.08,1.36,15.79,4.09c4.71,2.72,8.42,6.6,11.15,11.63,2.72,5.03,4.09,10.83,4.09,17.38s-1.34,12.49-4.02,17.52c-2.68,5.03-6.39,8.91-11.15,11.63-4.76,2.72-10.04,4.09-15.86,4.09s-11.34-1.34-16-4.02c-4.66-2.68-8.29-6.51-10.87-11.5-2.59-4.99-3.88-10.89-3.88-17.73s1.29-12.74,3.88-17.73Z"/>
  <path d="m2137.62,337.35c5.49,3.19,11.75,4.78,18.77,4.78,7.85,0,14.56-1.96,20.15-5.89,5.59-3.92,9.49-8.93,11.7-15.03v19.8h6.23v-75.2h-6.23v19.67c-2.22-6-6.09-10.94-11.63-14.82-5.54-3.88-12.28-5.82-20.22-5.82-7.02,0-13.27,1.57-18.77,4.71-5.49,3.14-9.79,7.62-12.88,13.43-3.09,5.82-4.64,12.6-4.64,20.36s1.54,14.57,4.64,20.43c3.09,5.86,7.39,10.39,12.88,13.57Zm-7.27-51.73c2.58-4.99,6.18-8.79,10.8-11.43,4.62-2.63,9.97-3.95,16.07-3.95s11.08,1.36,15.79,4.09c4.71,2.72,8.42,6.6,11.15,11.63,2.72,5.03,4.09,10.83,4.09,17.38s-1.34,12.49-4.02,17.52c-2.68,5.03-6.39,8.91-11.15,11.63-4.76,2.72-10.04,4.09-15.86,4.09s-11.34-1.34-16-4.02c-4.66-2.68-8.29-6.51-10.87-11.5-2.59-4.99-3.88-10.89-3.88-17.73s1.29-12.74,3.88-17.73Z"/>
  <path d="m2263.03,276.83c4.52,4.76,6.79,11.61,6.79,20.57v43.63h6.09v-44.04c0-10.8-2.82-18.95-8.45-24.44-5.63-5.49-12.93-8.24-21.88-8.24-6.46,0-12.17,1.5-17.1,4.5-4.94,3-8.47,7.32-10.59,12.95v-15.93h-6.23v75.2h6.23v-40.58c0-10.16,2.42-17.82,7.27-22.99,4.85-5.17,11.33-7.76,19.46-7.76s13.89,2.38,18.42,7.13Z"/>
  <path d="m2295.58,249.06c1.48,0,2.72-.48,3.74-1.45,1.01-.97,1.52-2.29,1.52-3.95,0-1.57-.51-2.86-1.52-3.88-1.02-1.02-2.26-1.52-3.74-1.52s-2.72.51-3.74,1.52c-1.02,1.02-1.52,2.31-1.52,3.88,0,1.66.51,2.98,1.52,3.95,1.01.97,2.26,1.45,3.74,1.45Z"/>
  <rect x="2292.39" y="265.82" width="6.23" height="75.2"/>
  <path d="m2322.17,301c0-10.16,2.35-17.91,7.06-23.27,4.71-5.35,10.94-8.03,18.7-8.03s13.37,2.38,17.66,7.13c4.29,4.76,6.44,11.61,6.44,20.57v43.63h6.09v-40.03c0-10.16,2.35-17.91,7.06-23.27,4.71-5.35,10.94-8.03,18.7-8.03s13.36,2.38,17.66,7.13c4.29,4.76,6.44,11.61,6.44,20.57v43.63h6.09v-44.04c0-10.8-2.72-18.95-8.17-24.44-5.45-5.49-12.46-8.24-21.05-8.24-6.83,0-12.79,1.78-17.87,5.33-5.08,3.56-8.5,8.79-10.25,15.72-1.85-6.92-5.24-12.16-10.18-15.72-4.94-3.55-10.83-5.33-17.66-5.33-6.19,0-11.66,1.5-16.41,4.5-4.76,3-8.19,7.46-10.32,13.36v-16.34h-6.23v75.2h6.23v-40.03Z"/>
  <path d="m2464.33,337.35c5.49,3.19,11.75,4.78,18.77,4.78,7.85,0,14.56-1.96,20.15-5.89,5.59-3.92,9.49-8.93,11.7-15.03v19.8h6.23v-75.2h-6.23v19.67c-2.22-6-6.09-10.94-11.63-14.82-5.54-3.88-12.28-5.82-20.22-5.82-7.02,0-13.27,1.57-18.77,4.71-5.49,3.14-9.79,7.62-12.88,13.43-3.09,5.82-4.64,12.6-4.64,20.36s1.54,14.57,4.64,20.43c3.09,5.86,7.39,10.39,12.88,13.57Zm-7.27-51.73c2.58-4.99,6.18-8.79,10.8-11.43,4.62-2.63,9.97-3.95,16.07-3.95s11.08,1.36,15.79,4.09c4.71,2.72,8.42,6.6,11.15,11.63,2.72,5.03,4.09,10.83,4.09,17.38s-1.34,12.49-4.02,17.52c-2.68,5.03-6.39,8.91-11.15,11.63-4.76,2.72-10.04,4.09-15.86,4.09s-11.34-1.34-16-4.02c-4.66-2.68-8.29-6.51-10.87-11.5-2.59-4.99-3.88-10.89-3.88-17.73s1.29-12.74,3.88-17.73Z"/>
  <rect x="2538.35" y="238.53" width="6.23" height="102.49"/>
</svg>