<?xml version="1.0" encoding="utf-8"?>
<!-- Generator: Adobe Illustrator 26.5.3, SVG Export Plug-In . SVG Version: 6.00 Build 0)  -->
<svg version="1.1" id="Layer_1" xmlns="http://www.w3.org/2000/svg" xmlns:xlink="http://www.w3.org/1999/xlink" x="0px" y="0px"
	 viewBox="0 0 566.9 566.9" style="enable-background:new 0 0 566.9 566.9;" xml:space="preserve">
<g>
	<g>
		<path d="M115.6,338.3v3.8l-0.9,0.3c0,0-0.1-2.2-1.8-2.2H95.3v35H109v2H95.3v51.5h17.5c1.7,0,1.8-2.2,1.8-2.2l0.9,0.3v3.8H88
			l-0.3-0.8c0,0,2.2-0.1,2.2-2v-50.6h-3.2v-2h3.2V341c0-1.8-2.2-1.8-2.2-1.8l0.3-0.9H115.6z"/>
		<path d="M184.2,430.4v1.3c-42.5,0-39.6-36.1-51.6-36.1c-0.1,0-0.3,0-0.4,0c-1.2,0-2.9,0-4.2,0v32.3c0.1,1.6,2.1,1.7,2.1,1.7
			l-0.1,0.8h-9.3l-0.3-0.8c0,0,2.2-0.1,2.2-2v-86.5c0-1.8-2.2-2-2.2-2l0.3-0.8c10,0,9,0,11.6,0c25.7,0,26.2,49.5,5.1,56.5
			C151.8,399.6,153.4,430.4,184.2,430.4z M132.2,340.2c-2.5,0-1.6,0-4.2,0v53.6c1.3,0,2.9,0,4.2,0C151,393.8,151,340.2,132.2,340.2z
			 M172,414.5v-73.6c-0.1-1.6-2.2-1.7-2.2-1.7l0.3-0.8h9.3l0.1,0.8c0,0-2.1,0.1-2.1,2v73.3c0,1.8,2.1,2,2.1,2l-0.1,0.8h-2H172h-2
			l-0.3-0.8C169.7,416.5,172,416.3,172,414.5z"/>
		<path d="M232.8,402.5l4.6,5.9c-4.7,14-13.3,23.3-23.3,23.3c-14.9,0-27-21.2-27-47.4c0-26.2,12.1-47.4,27-47.4
			c10,0,15.5,5.4,21.3,18.4l-5.8,4.9l-0.9-1.2c3.6-5.9-1.6-19.9-13.7-19.9c-29,0-29,90.3,0,90.3c12,0,22.1-20,16.1-25.1L232.8,402.5
			z"/>
		<path d="M287,429.5l-0.1,0.9h-9l-0.3-0.9c0,0,2.1-0.4,1.8-1.8l-5.3-22.2h-25.1l-4.6,22.2c-0.4,1.7,1.6,1.8,1.6,1.8l-0.3,0.9h-5.1
			l-0.3-0.9c0,0,1.8,0,2.2-1.8l18.7-89.4h2.2l21.3,89.4C285.2,429.1,287,429.5,287,429.5z M273.9,403.6L261,348.8l-11.5,54.8H273.9z
			"/>
		<path d="M348.2,426.3l0.9,0.3v2v1.8h-31.1l-0.3-0.8c0,0,2.2-0.1,2.2-2V341c0-1.8-2.2-1.8-2.2-1.8l0.3-0.9h9.3l0.1,0.9
			c0,0-2.1,0-2.1,1.8v87.5h20.9C348.1,428.6,348.2,426.3,348.2,426.3z"/>
		<path d="M360.7,341v86.6c0,1.8,2.1,2,2.1,2l-0.1,0.8h-9.3l-0.3-0.8c0,0,2.2-0.1,2.2-2v-86.8c-0.1-1.7-2.2-1.7-2.2-1.7l0.3-0.9h9.3
			l0.1,0.9C362.8,339.2,360.7,339.2,360.7,341z"/>
		<path d="M421.4,341v86.8c0.1,1.7,2.2,1.8,2.2,1.8l-0.3,0.8h-9.3l-0.3-0.8c0,0,2.2-0.1,2.2-2v-78.9l-17.5,81.6h-6.7l-18.6-86.1
			v83.3c0,1.8,2.1,2,2.1,2l-0.3,0.8h-6.5l-0.3-0.8c0,0,2.2-0.1,2.2-2V341c0-1.8-2.2-1.8-2.2-1.8l0.3-0.9h8.3l19.6,89.1l19.1-89.1
			h7.8l0.3,0.9C423.7,339.2,421.4,339.2,421.4,341z"/>
		<path d="M475.9,429.5l-0.1,0.9h-9l-0.3-0.9c0,0,2.1-0.4,1.8-1.8l-5.3-22.2H438l-4.6,22.2c-0.4,1.7,1.6,1.8,1.6,1.8l-0.3,0.9h-5.1
			l-0.3-0.9c0,0,1.8,0,2.2-1.8l18.7-89.4h2.2l21.3,89.4C474.1,429.1,475.9,429.5,475.9,429.5z M462.8,403.6l-12.9-54.8l-11.5,54.8
			H462.8z"/>
	</g>
	<g>
		<path d="M220.5,447.5c0-0.1,0-0.3,0.1-0.4c0.1-0.1,0.2-0.1,0.4-0.1h5.1c0.7,0,1.3,0.1,1.9,0.4s1.1,0.6,1.6,1.1
			c0.4,0.4,0.8,1,1.1,1.6c0.3,0.6,0.4,1.3,0.4,1.9s-0.1,1.3-0.4,1.9c-0.3,0.6-0.6,1.1-1.1,1.6s-1,0.8-1.6,1.1
			c-0.6,0.3-1.2,0.4-1.9,0.4h-4.4v5.6c0,0.3-0.2,0.5-0.5,0.5H221c-0.3,0-0.5-0.2-0.5-0.5V447.5z M229.9,452c0-0.5-0.1-1-0.3-1.5
			s-0.5-0.9-0.8-1.2c-0.3-0.3-0.7-0.6-1.2-0.8c-0.5-0.2-0.9-0.3-1.5-0.3h-4.4v7.6h4.4c0.5,0,1-0.1,1.5-0.3s0.9-0.5,1.2-0.8
			c0.3-0.3,0.6-0.7,0.8-1.2S229.9,452.5,229.9,452z"/>
		<path d="M233.3,460.2c0.1-0.1,0.3-0.3,0.4-0.3c0.1-0.1,0.2-0.1,0.4-0.1c0.1,0,0.1,0,0.2,0.1c0.1,0.1,0.1,0.1,0.1,0.2
			c0.3,0.3,0.6,0.6,1,0.9c0.4,0.3,0.7,0.5,1.2,0.7c0.4,0.2,0.8,0.3,1.2,0.4s0.8,0.1,1.3,0.1c0.6,0,1.2-0.1,1.7-0.2
			c0.6-0.1,1.1-0.3,1.5-0.6s0.8-0.6,1.1-1.1c0.3-0.4,0.4-1,0.4-1.6c0-0.4-0.1-0.7-0.2-1s-0.3-0.5-0.6-0.7c-0.2-0.2-0.5-0.4-0.9-0.6
			c-0.3-0.2-0.7-0.3-1-0.4c-0.4-0.1-0.7-0.2-1.1-0.3c-0.4-0.1-0.8-0.2-1.1-0.3c-0.9-0.2-1.7-0.4-2.3-0.7c-0.7-0.3-1.2-0.5-1.7-0.9
			c-0.4-0.3-0.8-0.7-1-1.1s-0.3-0.9-0.3-1.5c0-0.7,0.1-1.3,0.4-1.8c0.3-0.5,0.6-1,1.1-1.4c0.5-0.4,1.1-0.7,1.7-0.9
			c0.7-0.2,1.4-0.3,2.3-0.3c0.9,0,1.8,0.2,2.7,0.5c0.8,0.3,1.6,0.8,2.2,1.5c0.1,0.1,0.2,0.2,0.2,0.2c0,0.1,0.1,0.1,0.1,0.2
			s0,0.1-0.1,0.2c-0.1,0.1-0.2,0.2-0.3,0.3c-0.1,0.1-0.1,0.1-0.2,0.1c0,0-0.1,0.1-0.1,0.1c-0.1,0-0.2-0.1-0.4-0.2
			c-0.3-0.2-0.5-0.4-0.8-0.6c-0.3-0.2-0.6-0.4-0.9-0.5c-0.3-0.2-0.7-0.3-1.1-0.4c-0.4-0.1-0.8-0.1-1.3-0.1c-0.7,0-1.3,0.1-1.8,0.2
			c-0.5,0.2-1,0.4-1.3,0.7c-0.4,0.3-0.6,0.6-0.8,1s-0.3,0.8-0.3,1.2c0,0.3,0.1,0.6,0.2,0.9s0.3,0.5,0.5,0.7c0.2,0.2,0.4,0.4,0.7,0.5
			c0.3,0.1,0.6,0.3,0.9,0.4c0.3,0.1,0.7,0.2,1,0.3c0.4,0.1,0.7,0.2,1.1,0.3c0.4,0.1,0.9,0.2,1.3,0.3c0.4,0.1,0.9,0.2,1.3,0.4
			c0.4,0.2,0.8,0.3,1.2,0.5c0.4,0.2,0.7,0.5,1,0.7c0.3,0.3,0.5,0.6,0.7,1c0.2,0.4,0.3,0.8,0.3,1.3c0,0.8-0.2,1.5-0.5,2.1
			c-0.3,0.6-0.7,1.1-1.3,1.5c-0.5,0.4-1.2,0.7-1.9,0.9s-1.5,0.3-2.4,0.3c-0.5,0-1.1,0-1.6-0.1c-0.5-0.1-1-0.3-1.5-0.5
			c-0.5-0.2-0.9-0.5-1.4-0.8s-0.8-0.7-1.2-1.2c-0.1-0.1-0.1-0.1-0.1-0.2c0,0,0-0.1,0-0.2C233.2,460.3,233.2,460.2,233.3,460.2z"/>
		<path d="M248,447.4c0-0.1,0-0.2,0.1-0.3c0.1-0.1,0.2-0.1,0.3-0.1h0.6c0.1,0,0.2,0,0.3,0.1c0.1,0.1,0.1,0.2,0.1,0.3v15.3
			c0,0.3-0.1,0.4-0.4,0.4h-0.6c-0.3,0-0.4-0.1-0.4-0.4V447.4z"/>
		<path d="M265.5,448.6c0.2,0.1,0.2,0.2,0.2,0.3c0,0.1,0,0.2-0.1,0.2l-0.3,0.4c-0.1,0.1-0.1,0.1-0.1,0.1s-0.1,0.1-0.2,0.1
			c-0.1,0-0.3-0.1-0.4-0.2c-0.6-0.5-1.3-0.8-2-1.1c-0.7-0.3-1.4-0.4-2.2-0.4c-0.7,0-1.3,0.1-1.9,0.3c-0.6,0.2-1.2,0.4-1.7,0.7
			s-1,0.7-1.4,1.1s-0.8,0.9-1.1,1.4c-0.3,0.5-0.5,1.1-0.7,1.7c-0.2,0.6-0.2,1.2-0.2,1.8c0,0.6,0.1,1.2,0.3,1.8s0.4,1.2,0.7,1.7
			c0.3,0.5,0.7,1,1.1,1.4c0.4,0.4,0.9,0.8,1.4,1.1c0.5,0.3,1.1,0.6,1.6,0.7c0.6,0.2,1.2,0.3,1.8,0.3c0.4,0,0.7,0,1.1-0.1
			c0.4-0.1,0.8-0.2,1.2-0.3s0.8-0.3,1.1-0.5c0.4-0.2,0.7-0.4,1-0.7c0.1-0.1,0.2-0.1,0.3-0.1c0.2,0,0.3,0.1,0.4,0.3l0.2,0.3
			c0,0.1,0.1,0.2,0.1,0.3c0,0.2-0.1,0.3-0.2,0.4c-0.7,0.5-1.5,1-2.3,1.3c-0.8,0.3-1.8,0.4-2.7,0.4c-0.7,0-1.5-0.1-2.2-0.3
			s-1.4-0.5-2-0.8c-0.6-0.4-1.2-0.8-1.7-1.3c-0.5-0.5-0.9-1.1-1.3-1.7c-0.4-0.6-0.6-1.3-0.8-2s-0.3-1.4-0.3-2.2
			c0-0.7,0.1-1.5,0.3-2.2c0.2-0.7,0.5-1.4,0.8-2c0.4-0.6,0.8-1.2,1.3-1.7c0.5-0.5,1.1-0.9,1.7-1.3c0.6-0.4,1.3-0.6,2-0.8
			c0.7-0.2,1.4-0.3,2.2-0.3c0.9,0,1.8,0.2,2.7,0.5C264,447.6,264.7,448,265.5,448.6z"/>
		<path d="M267.8,455.1c0-0.8,0.1-1.5,0.3-2.2c0.2-0.7,0.5-1.4,0.8-2s0.8-1.2,1.3-1.7c0.5-0.5,1.1-0.9,1.7-1.3
			c0.6-0.4,1.3-0.6,2-0.8c0.7-0.2,1.4-0.3,2.2-0.3c0.7,0,1.5,0.1,2.2,0.3c0.7,0.2,1.4,0.5,2,0.8c0.6,0.4,1.2,0.8,1.7,1.3
			c0.5,0.5,0.9,1.1,1.3,1.7c0.4,0.6,0.6,1.3,0.8,2c0.2,0.7,0.3,1.4,0.3,2.2c0,0.8-0.1,1.5-0.3,2.2c-0.2,0.7-0.5,1.4-0.8,2
			c-0.4,0.6-0.8,1.2-1.3,1.7c-0.5,0.5-1.1,0.9-1.7,1.3c-0.6,0.4-1.3,0.6-2,0.8c-0.7,0.2-1.4,0.3-2.2,0.3c-0.8,0-1.5-0.1-2.2-0.3
			c-0.7-0.2-1.4-0.5-2-0.8c-0.6-0.4-1.2-0.8-1.7-1.3s-0.9-1.1-1.3-1.7s-0.6-1.3-0.8-2C267.9,456.5,267.8,455.8,267.8,455.1z
			 M269.1,455c0,1,0.2,1.9,0.5,2.7c0.4,0.8,0.9,1.6,1.5,2.2c0.6,0.6,1.4,1.1,2.2,1.5c0.8,0.4,1.7,0.5,2.7,0.5c0.6,0,1.3-0.1,1.8-0.2
			c0.6-0.2,1.1-0.4,1.7-0.7c0.5-0.3,1-0.7,1.4-1.1c0.4-0.4,0.8-0.9,1.1-1.4c0.3-0.5,0.5-1.1,0.7-1.7c0.2-0.6,0.2-1.2,0.2-1.9
			c0-1-0.2-1.9-0.5-2.7c-0.4-0.8-0.9-1.6-1.5-2.2c-0.6-0.6-1.4-1.1-2.2-1.5c-0.8-0.4-1.7-0.6-2.7-0.6c-0.6,0-1.3,0.1-1.9,0.2
			c-0.6,0.2-1.1,0.4-1.7,0.7c-0.5,0.3-1,0.7-1.4,1.1c-0.4,0.4-0.8,0.9-1.1,1.4c-0.3,0.5-0.5,1.1-0.7,1.7S269.1,454.4,269.1,455z
			 M276.8,442.4c0.1-0.3,0.3-0.4,0.6-0.4h0.5c0.3,0,0.3,0.1,0.2,0.4l-1.1,2.5c-0.1,0.2-0.2,0.3-0.2,0.3c-0.1,0.1-0.2,0.1-0.3,0.1
			H276c-0.3,0-0.3-0.1-0.2-0.4L276.8,442.4z"/>
		<path d="M297,461.7c0.1,0,0.2,0,0.3,0.1s0.1,0.2,0.1,0.3v0.6c0,0.1,0,0.2-0.1,0.3c-0.1,0.1-0.2,0.1-0.3,0.1h-9.4
			c-0.3,0-0.4-0.1-0.4-0.4v-15.3c0-0.1,0-0.2,0.1-0.3c0.1-0.1,0.2-0.1,0.3-0.1h0.6c0.1,0,0.2,0,0.3,0.1s0.1,0.2,0.1,0.3v14.3H297z"
			/>
		<path d="M299,455.1c0-0.8,0.1-1.5,0.3-2.2c0.2-0.7,0.5-1.4,0.8-2s0.8-1.2,1.3-1.7c0.5-0.5,1.1-0.9,1.7-1.3c0.6-0.4,1.3-0.6,2-0.8
			c0.7-0.2,1.4-0.3,2.2-0.3c0.7,0,1.5,0.1,2.2,0.3c0.7,0.2,1.4,0.5,2,0.8c0.6,0.4,1.2,0.8,1.7,1.3c0.5,0.5,0.9,1.1,1.3,1.7
			c0.4,0.6,0.6,1.3,0.8,2c0.2,0.7,0.3,1.4,0.3,2.2c0,0.8-0.1,1.5-0.3,2.2c-0.2,0.7-0.5,1.4-0.8,2c-0.4,0.6-0.8,1.2-1.3,1.7
			c-0.5,0.5-1.1,0.9-1.7,1.3c-0.6,0.4-1.3,0.6-2,0.8c-0.7,0.2-1.4,0.3-2.2,0.3c-0.8,0-1.5-0.1-2.2-0.3c-0.7-0.2-1.4-0.5-2-0.8
			c-0.6-0.4-1.2-0.8-1.7-1.3s-0.9-1.1-1.3-1.7s-0.6-1.3-0.8-2C299.1,456.5,299,455.8,299,455.1z M300.2,455c0,1,0.2,1.9,0.5,2.7
			c0.4,0.8,0.9,1.6,1.5,2.2c0.6,0.6,1.4,1.1,2.2,1.5c0.8,0.4,1.7,0.5,2.7,0.5c0.6,0,1.3-0.1,1.8-0.2c0.6-0.2,1.1-0.4,1.7-0.7
			c0.5-0.3,1-0.7,1.4-1.1c0.4-0.4,0.8-0.9,1.1-1.4c0.3-0.5,0.5-1.1,0.7-1.7c0.2-0.6,0.2-1.2,0.2-1.9c0-1-0.2-1.9-0.5-2.7
			c-0.4-0.8-0.9-1.6-1.5-2.2c-0.6-0.6-1.4-1.1-2.2-1.5c-0.8-0.4-1.7-0.6-2.7-0.6c-0.6,0-1.3,0.1-1.9,0.2c-0.6,0.2-1.1,0.4-1.7,0.7
			c-0.5,0.3-1,0.7-1.4,1.1c-0.4,0.4-0.8,0.9-1.1,1.4c-0.3,0.5-0.5,1.1-0.7,1.7S300.2,454.4,300.2,455z"/>
		<path d="M325.9,448.1c-0.7,0-1.3,0.1-1.9,0.3s-1.2,0.4-1.7,0.7s-1,0.7-1.4,1.1c-0.4,0.4-0.8,0.9-1.1,1.4c-0.3,0.5-0.5,1.1-0.7,1.7
			c-0.2,0.6-0.2,1.2-0.2,1.8c0,0.6,0.1,1.3,0.3,1.9c0.2,0.6,0.4,1.1,0.7,1.7s0.7,1,1.1,1.4s0.9,0.8,1.4,1.1c0.5,0.3,1.1,0.5,1.7,0.7
			c0.6,0.2,1.2,0.2,1.8,0.2c0.8,0,1.6-0.1,2.3-0.4c0.7-0.3,1.3-0.6,1.8-0.9v-4.3c0-0.3,0.1-0.4,0.4-0.4h0.4c0.1,0,0.2,0,0.3,0.1
			s0.1,0.2,0.1,0.3v4.8c0,0.1,0,0.1-0.1,0.2c0,0.1-0.1,0.1-0.2,0.2c-0.7,0.5-1.5,0.9-2.3,1.2c-0.8,0.3-1.7,0.5-2.7,0.5
			c-0.8,0-1.5-0.1-2.2-0.3c-0.7-0.2-1.4-0.5-2-0.8c-0.6-0.4-1.2-0.8-1.7-1.3c-0.5-0.5-0.9-1-1.3-1.7s-0.6-1.3-0.8-2
			c-0.2-0.7-0.3-1.4-0.3-2.2c0-0.7,0.1-1.5,0.3-2.2c0.2-0.7,0.5-1.4,0.8-2c0.4-0.6,0.8-1.2,1.3-1.7s1-0.9,1.7-1.3
			c0.6-0.4,1.3-0.6,2-0.8c0.7-0.2,1.4-0.3,2.2-0.3c1.1,0,2.2,0.2,3.2,0.6c0.2,0.1,0.4,0.2,0.6,0.3s0.5,0.3,0.7,0.4s0.4,0.3,0.6,0.4
			c0.2,0.1,0.2,0.2,0.2,0.4c0,0.1,0,0.2-0.1,0.2l-0.3,0.4c-0.1,0.1-0.1,0.1-0.1,0.1c0,0-0.1,0.1-0.2,0.1c-0.1,0-0.2-0.1-0.4-0.2
			c-0.6-0.5-1.3-0.8-2-1S326.7,448.1,325.9,448.1z"/>
		<path d="M333.4,462.7c0.1-0.2,0.1-0.3,0.2-0.5c0.1-0.1,0.1-0.3,0.2-0.4l6.1-14.5c0-0.1,0.1-0.2,0.1-0.2s0.1-0.1,0.2-0.1h0h0.4h0
			c0.1,0,0.2,0,0.3,0.1s0.1,0.1,0.1,0.2l6.3,15.3c0,0,0,0,0,0.1c0,0.1,0,0.1,0,0.1c0,0.2-0.1,0.3-0.3,0.3h-0.6c0,0,0,0,0,0
			c0,0,0,0,0,0c-0.2,0-0.3-0.1-0.4-0.3l-1.5-3.7h-8.2c-0.3,0.7-0.5,1.3-0.8,2c-0.3,0.6-0.5,1.2-0.7,1.7c-0.1,0.2-0.2,0.3-0.4,0.3
			c0,0-0.1,0-0.1,0h-0.6C333.5,463,333.4,462.9,333.4,462.7C333.4,462.7,333.4,462.7,333.4,462.7
			C333.4,462.7,333.4,462.7,333.4,462.7z M336.9,457.7h7.1l-3.5-8.6L336.9,457.7z"/>
	</g>
	<g>
		<g>
			<path d="M362.9,170.6c-2.8-9.1-7.8-17.2-14.1-22.8c-5.5-4.9-11.9-7.4-19-7.4c-13.1,0-26.4,8.5-35.2,15.7
				c-2.1,1.7-4.2,3.6-6.2,5.6c-1.3,1.3-3.1,2.1-5,2.1c-1.9,0-3.7-0.7-5-2.1c-2-2-4.1-3.8-6.2-5.6c-8.8-7.2-22.1-15.7-35.2-15.7
				c-7,0-13.4,2.5-19,7.4c-6.3,5.6-11.3,13.7-14.1,22.8c-3.2,10.4-3.6,22.3-1.2,34.2c4.7,23,22.4,58.4,79.6,96.7c0,0,0,0,0,0l0,0
				c0.1,0,0.1,0.1,0.2,0.1c0,0,0,0,0.1,0v0c0,0,0,0,0,0c0.2,0.1,0.3,0.1,0.5,0.1h0c0,0,0,0,0,0h0h0h0c0,0,0,0,0,0l0.1,0
				c0.2,0,0.3,0,0.5-0.1c0,0,0,0,0,0l0,0c0,0,0,0,0,0c0.1,0,0.1-0.1,0.2-0.1l0,0c0,0,0,0,0,0c57.2-38.3,74.9-73.7,79.6-96.7
				C366.5,192.9,366.1,181,362.9,170.6z M360.9,204.2c-0.3,1.6-0.7,3.2-1.1,4.7c0,0.1,0,0.1,0,0.2l-3.4,10.1c0,0.1,0,0.1-0.1,0.2
				c-8.9,22-26.8,43.8-53.2,64.7c-0.6,0.5-1.3,0.7-2,0.7c-1.1,0-2.2-0.6-2.8-1.5c-0.6-0.9-0.7-2.1-0.2-3.1c1.9-4.1,3.6-8.4,5-12.8
				c0-0.1,0.1-0.1,0.1-0.2c0,0,0.1-0.1,0.1-0.2c7.8-16.9,20.6-38.9,37.5-48l0.1,0c0.2-0.1,0.3-0.2,0.5-0.2c0.5-0.2,1-0.8,0.9-1.6
				c-0.1-0.7-0.7-1.3-1.4-1.4c-0.1,0-0.1,0-0.2,0c-0.4,0-0.8,0.2-1,0.3c-0.1,0.1-0.2,0.2-0.4,0.2c-8.8,4.9-17.3,13.4-25.4,25.3
				c-0.6,0.9-1.6,1.4-2.7,1.4c-0.9,0-1.8-0.4-2.4-1c-0.6-0.6-1-1.5-0.9-2.4c0.5-13-1.3-25.9-5.3-38.3c-1.9-5.8-4.3-11.5-7.2-16.9
				c-0.3-0.5-0.7-0.6-1-0.6c-0.2,0-0.7,0.1-1,0.6c-0.2,0.4-0.4,0.8-0.6,1.2c-0.1,0.3-0.1,0.7,0,1c2.6,5,4.9,10.3,6.6,15.7
				c1.7,5.1,3,10.5,3.9,15.9c0,0.1,0,0.1,0,0.2l1.3,12.8c0,0.1,0,0.1,0,0.2c0.3,8.9-0.5,17.9-2.4,26.5c-0.7,2.9-1.4,5.8-2.3,8.6
				c0,0.1,0,0.1-0.1,0.2s-0.1,0.2-0.1,0.2c-2.3,5-4.5,10.2-6.5,15.5c0,0.1,0,0.1-0.1,0.2c0,0-0.1,0.1-0.1,0.2
				c-2.1,3.9-4.4,7.8-7,11.4c-0.6,0.9-1.6,1.4-2.7,1.4s-2.1-0.5-2.7-1.4c-3.5-4.9-6.5-10-9-15.4c0,0,0,0,0-0.1c0,0,0-0.1,0-0.1
				c-1-2.6-2.2-5.3-3.3-7.8c0,0,0-0.1,0-0.1c0,0,0-0.1,0-0.1c-1.5-4.1-2.8-8.4-3.7-12.7c-1.9-8.6-2.7-17.5-2.4-26.5
				c0.1-1.8,1.5-3.2,3.3-3.2c0.9,0,1.9,0.4,2.5,1.1c0.1,0.1,0.2,0.3,0.3,0.4c0.1,0.2,1,1.6,6.5,9.3c0,0,0,0.1,0.1,0.1
				c0,0,0,0.1,0.1,0.1c0,0,0,0.1,0.1,0.1l0,0.1c0.2,0.3,0.5,0.4,0.7,0.4c0,0,0.1,0,0.2,0c0.2,0,0.3,0.1,0.5,0.1c1,0,1.8-0.8,1.8-1.8
				c0-0.1,0-0.2,0-0.2c0-0.1,0-0.2,0-0.2c0-0.2-0.1-0.4-0.2-0.6c-4.2-6.1-8.7-11.5-13.4-16.1c-0.8-0.8-1.2-1.8-1-2.9
				c0.9-5.4,2.2-10.7,3.9-15.8c0.4-1.1,0.7-2.2,1.1-3.3c0.2-0.5,0-1.1-0.5-1.3c-0.3-0.2-0.7-0.3-1-0.5c-0.1-0.1-0.3-0.1-0.4-0.1
				c-0.4,0-0.8,0.2-1,0.7c-0.4,1.2-0.8,2.3-1.2,3.5c-4.1,12.6-5.9,25.7-5.3,38.9c0,0.9-0.3,1.8-0.9,2.4c-0.6,0.6-1.5,1-2.4,1
				c-1.1,0-2.1-0.5-2.7-1.5c-7.5-11.1-15.3-19.4-23.4-24.5c-0.2-0.1-0.4-0.2-0.6-0.2c-0.5,0-1.1,0.3-1.1,1.1c0,0.3,0,0.6,0,1
				c0,0.4,0.2,0.8,0.5,0.9c16.6,10.5,29,33.1,36.6,50.3c0,0,0,0.1,0,0.1c0,0,0,0.1,0,0.1c1.1,3.1,2.4,6.1,3.7,9
				c0,0.1,0.1,0.2,0.1,0.3c0.4,1,0.2,2.1-0.4,3c-0.6,0.9-1.6,1.4-2.7,1.4c-0.7,0-1.5-0.2-2-0.7c-26.4-20.9-44.3-42.6-53.2-64.6
				l-0.1-0.2c0-0.1,0-0.1-0.1-0.2l-3.3-9.9c0-0.1,0-0.1-0.1-0.2c-0.4-1.6-0.8-3.2-1.1-4.8c-2.3-11.4-2-22.7,1.1-32.6
				c0.5-1.5,1-3,1.6-4.5c0.5-1.2,1.7-2,3-2c1.5,0,2.8,1,3.2,2.4c0.9,3.3,2.4,6.9,4.4,10.6c1.4,2.7,3.1,5.5,5.1,8.3
				c0.3,0.5,0.8,0.5,1,0.5c0.2,0,0.7-0.1,0.9-0.5c0.5-1,0.5-2.2-0.1-3.2c-1.5-2.3-2.8-4.5-4-6.7c-5.8-10.8-6.8-19.1-3.1-24.7
				c0.3-0.5,0.7-1,1.1-1.4c0,0,0.1-0.1,0.1-0.1c0,0,0.1-0.1,0.2-0.2c4.9-4.3,10.5-6.4,16.9-6.4c9.6,0,20.7,5,32.9,14.9
				c3.3,2.7,6.4,5.6,9.3,8.9l3.5,3.5c0.3,0.3,0.6,0.3,0.8,0.3c0.2,0,0.6-0.1,0.9-0.4l2.6-3.3c0,0,0.1-0.1,0.1-0.1
				c2.9-3.2,6.1-6.2,9.3-8.9c12.2-9.9,23.2-14.9,32.9-14.9c6.3,0,12,2.2,16.9,6.4c0,0,0.1,0.1,0.1,0.1c0,0,0.1,0.1,0.2,0.2
				c0.4,0.4,0.8,0.9,1.1,1.4c3.7,5.6,2.7,13.9-3.1,24.7c-4.8,9-12.7,19.1-21.7,27.7c-2,1.9-3.9,3.6-5.8,5.1
				c-0.3,0.2-0.5,0.7-0.4,1.1c0.1,0.4,0.2,0.8,0.2,1.1c0.1,0.6,0.6,0.9,1.1,0.9c0.2,0,0.5-0.1,0.7-0.2c2.1-1.7,4.2-3.6,6.4-5.6
				c9.2-8.8,17.4-19.2,22.3-28.5c2-3.7,3.5-7.3,4.4-10.6c0.4-1.4,1.7-2.4,3.2-2.4c1.3,0,2.5,0.8,3,2c0.6,1.5,1.1,3,1.6,4.5
				C362.9,181.5,363.2,192.8,360.9,204.2z"/>
		</g>
		<g>
			<path d="M283.4,141c5.8,0,11.3-2.3,15.4-6.4c4.1-4.1,6.4-9.6,6.4-15.4c0-5.8-2.3-11.3-6.4-15.4c-4.1-4.1-9.6-6.4-15.4-6.4
				c-5.8,0-11.3,2.3-15.4,6.4c-4.1,4.1-6.4,9.6-6.4,15.4c0,5.8,2.3,11.3,6.4,15.4C272.2,138.8,277.6,141,283.4,141z M270.4,106.2
				c3.5-3.5,8.1-5.4,13.1-5.4c4.9,0,9.6,1.9,13.1,5.4s5.4,8.1,5.4,13.1c0,4.9-1.9,9.6-5.4,13.1s-8.1,5.4-13.1,5.4
				c-4.9,0-9.6-1.9-13.1-5.4s-5.4-8.1-5.4-13.1C264.9,114.3,266.9,109.7,270.4,106.2z"/>
		</g>
	</g>
</g>
</svg>
