<svg xmlns="http://www.w3.org/2000/svg" viewBox="0 0 800 800">
  <g id="Objects">
    <g>
      <g>
        <path d="M241.76,508c-2.27,5.25-7.1,7.24-12.92,7.24h-3.4c-8.94,0-15.19-3.69-15.19-16V417.31c0-1.13,6.1-3.83,12.92-3.83,9.36,0,20.29,5,20.29,24.7v12.63c4-5.54,11.07-8.94,19-8.94,19.87,0,32.22,14.19,32.22,37.18,0,22-12.35,37.61-32.08,37.61A20.61,20.61,0,0,1,243,503.74,18.8,18.8,0,0,1,241.76,508Zm11.07-40.59a10.46,10.46,0,0,0-9.37,5.25v9.65c0,5.82,3.55,8.8,9.37,8.8,6.38,0,10.64-4.68,10.64-11.78C263.47,471.67,259.5,467.41,252.83,467.41Z"/>
        <path d="M334,508c-2.27,5.25-7.1,7.24-12.92,7.24h-3.4c-8.94,0-15.19-3.69-15.19-16V417.31c0-1.13,6.1-3.83,12.92-3.83,9.36,0,20.29,5,20.29,24.7v12.63c4-5.54,11.07-8.94,19-8.94,19.87,0,32.21,14.19,32.21,37.18,0,22-12.34,37.61-32.07,37.61a20.6,20.6,0,0,1-19.58-12.92A18.8,18.8,0,0,1,334,508Zm11.07-40.59a10.45,10.45,0,0,0-9.37,5.25v9.65c0,5.82,3.55,8.8,9.37,8.8,6.38,0,10.64-4.68,10.64-11.78C355.72,471.67,351.75,467.41,345.08,467.41Z"/>
        <path d="M391.77,502.61c0-7.95,1.7-9.65,5.39-13.48l20.72-21.29H405c-8,0-12.21-3.69-12.21-11.64v-1.13c0-7.53,4.26-11.78,12.21-11.78h42.57c7.95,0,11.64,5.53,11.64,10.64v1.14c0,7.94-1.56,9.65-5.39,13.48l-21.57,21.29h16.46c7.95,0,12.06,3.69,12.06,11.63v1.14c0,7.66-4.11,11.78-12.06,11.78H403.27c-7.95,0-11.5-5.54-11.5-10.65Z"/>
        <path d="M484.44,408.09c10.51,0,17.46,5.82,17.46,15s-6.53,15.05-17.17,15.05-17.46-5.82-17.46-15.05C467.27,414.05,473.8,408.09,484.44,408.09ZM468,458.47c0-11.92,6.39-16,14.9-16h3.41c8.94,0,14.9,3.69,14.9,16V499.2c0,11.92-6.1,16-14.62,16h-3.4c-8.94,0-15.19-3.69-15.19-16Z"/>
        <path d="M590.6,469V499.2c0,11.92-6.1,16-14.62,16h-3.4c-8.94,0-15.19-3.69-15.19-16V475.08c0-4-2.27-6.53-6.1-6.53a9.63,9.63,0,0,0-6.81,2.69v28c0,12.07-6.11,16-14.62,16h-3.41c-8.94,0-15.18-3.69-15.18-16V446.27c0-1.14,6.1-3.84,12.91-3.84,8.66,0,15.61,4.26,18.59,13.06,5.11-7.8,11.92-13.62,23.42-13.62C584.64,441.87,590.6,455.49,590.6,469Z"/>
      </g>
      <g>
        <path d="M296.31,554.46v12.61c0,1.8-.9,2.35-2.2,2.35h-.5c-1.36,0-2.26-.55-2.26-2.35v-12c0-4-1.75-6.16-5.3-6.16a7.05,7.05,0,0,0-6.11,4v14.16c0,1.8-.9,2.35-2.2,2.35h-.5c-1.3,0-2.25-.55-2.25-2.35V555.26c0-4.25-1.75-6.36-5.31-6.36a7,7,0,0,0-6.05,4v14.16c0,1.8-1,2.35-2.21,2.35h-.55c-1.3,0-2.2-.55-2.2-2.35V545.45a2.46,2.46,0,0,1,1.8-.55c1.4,0,2.91.6,3.11,3.7a8.93,8.93,0,0,1,7.45-4.05c3.91,0,6.61,1.85,7.86,5.05a9.47,9.47,0,0,1,8.36-5.05C293.36,544.55,296.31,548.25,296.31,554.46Z"/>
        <path d="M313.37,544.55c7.36,0,12.56,5.3,12.56,12.71s-5.2,12.61-12.61,12.61-12.61-5.25-12.61-12.71S305.91,544.55,313.37,544.55Zm-.05,4.05c-4.6,0-8.06,3.61-8.06,8.56s3.46,8.66,8.06,8.66,8-3.65,8-8.56S318,548.6,313.32,548.6Z"/>
        <path d="M329.13,557.21c0-7.61,4.76-12.66,11.42-12.66a9.71,9.71,0,0,1,8.25,4V535.39a2.61,2.61,0,0,1,1.81-.55c1.55,0,3.15.8,3.15,4.25v28c0,1.8-.9,2.35-2.2,2.35h-.5c-1.3,0-2.21-.55-2.21-2.35v-1.85a9.62,9.62,0,0,1-8.45,4.65C333.94,569.87,329.13,564.82,329.13,557.21Zm19.72-3.6a7.51,7.51,0,0,0-7.4-5c-4.51,0-7.51,3.41-7.51,8.56s3.1,8.56,7.41,8.56a7.24,7.24,0,0,0,7.5-7.06Z"/>
        <path d="M374.63,554.76h.65v-.5c0-3.65-2.1-5.66-6-5.66a7.27,7.27,0,0,0-6.9,4.11s-3.06,0-3.06-2.4a4.37,4.37,0,0,1,1.65-3c1.66-1.5,4.56-2.75,8.66-2.75,6.81,0,10.51,3.5,10.51,9.61v14.76c0,.25-.9.55-1.8.55a2.68,2.68,0,0,1-2.85-2.2,7.44,7.44,0,0,1-.2-1.65,10.42,10.42,0,0,1-8.66,4.15c-5.15,0-8.21-2.75-8.21-6.85C358.46,557.36,363.77,555,374.63,554.76Zm.65,3.1-1.35,0c-7,.25-10.61,1.55-10.61,4.81,0,2.15,1.7,3.5,4.55,3.5,4.31,0,7.41-2.7,7.41-6.51Z"/>
        <path d="M397.35,534.54a2.88,2.88,0,1,1-.05,5.76,2.88,2.88,0,1,1,.05-5.76Zm-2.6,12.76c0-1.8.95-2.4,2.25-2.4h.5c1.3,0,2.2.55,2.2,2.4v19.77c0,1.8-.9,2.35-2.2,2.35H397c-1.3,0-2.25-.55-2.25-2.35Z"/>
        <path d="M428.28,554.86v12.21c0,1.8-.95,2.35-2.21,2.35h-.55c-1.3,0-2.2-.55-2.2-2.35V555.46c0-4.05-2.05-6.56-5.55-6.56a7.28,7.28,0,0,0-6.76,4.21v14c0,1.8-.95,2.35-2.2,2.35h-.55c-1.3,0-2.21-.55-2.21-2.35V545.45a2.49,2.49,0,0,1,1.81-.55c1.35,0,3,.7,3.1,3.9a9.33,9.33,0,0,1,8-4.25C425.32,544.55,428.28,548.9,428.28,554.86Z"/>
        <path d="M436.48,549.2h-2.8c-1.6,0-2.2-.65-2.2-1.9V547c0-1.2.6-1.8,2.2-1.8h2.8v-1.8c0-6.06,2.86-8.86,7.66-8.86a7.42,7.42,0,0,1,4.11,1,2.65,2.65,0,0,1,1.3,2.25,2.31,2.31,0,0,1-1.21,2.16,5.36,5.36,0,0,0-3.6-1.41c-2.4,0-3.45,1.51-3.45,4.91v1.75h4c1.6,0,2.2.65,2.2,1.85v.35c0,1.2-.6,1.85-2.2,1.85h-3.95v17.87c0,1.8-.85,2.35-2.15,2.35h-.5c-1.31,0-2.26-.55-2.26-2.35Z"/>
        <path d="M466.11,554.76h.65v-.5c0-3.65-2.1-5.66-5.95-5.66a7.28,7.28,0,0,0-6.91,4.11s-3,0-3-2.4a4.37,4.37,0,0,1,1.65-3c1.65-1.5,4.55-2.75,8.66-2.75,6.8,0,10.51,3.5,10.51,9.61v14.76c0,.25-.9.55-1.8.55a2.69,2.69,0,0,1-2.86-2.2,7.44,7.44,0,0,1-.2-1.65,10.4,10.4,0,0,1-8.66,4.15c-5.15,0-8.2-2.75-8.2-6.85C450,557.36,455.25,555,466.11,554.76Zm.65,3.1-1.35,0c-7,.25-10.61,1.55-10.61,4.81,0,2.15,1.7,3.5,4.55,3.5,4.31,0,7.41-2.7,7.41-6.51Z"/>
        <path d="M499.74,554.86v12.21c0,1.8-.95,2.35-2.2,2.35H497c-1.3,0-2.2-.55-2.2-2.35V555.46c0-4.05-2.05-6.56-5.56-6.56a7.28,7.28,0,0,0-6.75,4.21v14c0,1.8-1,2.35-2.21,2.35h-.55c-1.3,0-2.2-.55-2.2-2.35V545.45a2.46,2.46,0,0,1,1.8-.55c1.35,0,3,.7,3.11,3.9a9.33,9.33,0,0,1,8-4.25C496.79,544.55,499.74,548.9,499.74,554.86Z"/>
        <path d="M507.4,561.92V549.2h-1.75c-1.55,0-2.15-.65-2.15-1.85V547c0-1.2.6-1.85,2.15-1.85h1.75v-3.7c0-1.7.85-2.36,2.2-2.36h.5c1.3,0,2.15.5,2.15,2.36v3.7h5.46c1.55,0,2.1.6,2.1,1.8v.35c0,1.25-.6,1.9-2.15,1.9H512.2v12.17c0,3,.85,4.45,3.21,4.45a4.07,4.07,0,0,0,3.4-1.7c.15-.15,1.4.55,1.4,2.1a3,3,0,0,1-1.05,2.2,6.76,6.76,0,0,1-4.55,1.45C509.65,569.87,507.4,567.12,507.4,561.92Z"/>
        <path d="M527,534.54a2.88,2.88,0,1,1-.05,5.76,2.88,2.88,0,1,1,.05-5.76Zm-2.61,12.76c0-1.8.95-2.4,2.26-2.4h.5c1.3,0,2.2.55,2.2,2.4v19.77c0,1.8-.9,2.35-2.2,2.35h-.5c-1.31,0-2.26-.55-2.26-2.35Z"/>
        <path d="M536.12,567.07V535.39a2.57,2.57,0,0,1,1.8-.55c1.56,0,3.16.8,3.16,4.25v28c0,1.8-.9,2.35-2.2,2.35h-.5C537.07,569.42,536.12,568.87,536.12,567.07Z"/>
      </g>
      <g>
        <g>
          <path d="M361.32,252.31a66.38,66.38,0,0,0-11.7,1.06c-.2-8.6-3.7-25.77-27.38-32.19C290.18,212.49,270.41,239.24,272,268c1,19.21-15.71,22.34-23.38,14.82,0,0,1,10.22,14.14,17.24,11.19,6,34.31,7.35,41.21-30.24,3.21-17.48,20.78-26.44,29.21-11.21a66,66,0,1,0,28.17-6.34Zm0,123.24a57.23,57.23,0,0,1-54.76-73.89c3.16-3.45,11.33-9.73,30-12l4.34-14.32,2.93,13.36S388.11,279,416.47,303a57.22,57.22,0,0,1-55.15,72.54Z"/>
          <path d="M361.32,363.26c16.34,0,29.9-12.33,32.55-27.45H328.78C331.43,350.93,345,363.26,361.32,363.26Z"/>
          <path d="M340.94,319.27a7.65,7.65,0,1,0-7.65-7.64A7.64,7.64,0,0,0,340.94,319.27Z"/>
          <circle cx="382.31" cy="311.63" r="7.64" transform="translate(-108.38 361.61) rotate(-45)"/>
        </g>
        <g>
          <path d="M515.29,259.49c2.43-5.05,9.13-7.49,9.13-7.49-5.43-1.55-9.35-.2-11.94,1.59.77-6-.35-14.51-10.27-20.42,0,0,8.51,10.56,1.51,21.75a66.08,66.08,0,1,0,11.57,4.57ZM485.42,375.55a57.22,57.22,0,0,1-55.62-70.74c14.53-2.5,57.21-11.76,76.61-36.63,0,0,11.87,30.26,35.73,42.47a58.54,58.54,0,0,1,.52,7.66A57.3,57.3,0,0,1,485.42,375.55Z"/>
          <path d="M485.42,363.26c16.34,0,29.9-12.33,32.54-27.45H452.88C455.53,350.93,469.09,363.26,485.42,363.26Z"/>
          <circle cx="464.74" cy="311.63" r="7.64"/>
          <circle cx="506.11" cy="311.63" r="7.64"/>
        </g>
      </g>
    </g>
  </g>
</svg>
