<svg id="Layer_1" data-name="Layer 1" xmlns="http://www.w3.org/2000/svg" viewBox="0 0 566.93 566.93"><defs><style>.cls-1{fill:none;stroke:#000;stroke-miterlimit:10;}</style></defs><path d="M525.52,289.43,280.65,153.58a4,4,0,0,0-3.93,0L41.35,289.47a4.68,4.68,0,0,0-2.1,5.1A4.29,4.29,0,0,0,43.34,298H323.06v-9.07H60.11l218.65-126.2,227.47,126.2h-176V298h193.4a4.31,4.31,0,0,0,4.1-3.47A4.68,4.68,0,0,0,525.52,289.43Z"/><path d="M61,356.92a24,24,0,0,1-7.39-1,11.39,11.39,0,0,1-5.42-3.83,19.21,19.21,0,0,1-3.35-7.95,64.59,64.59,0,0,1-1.13-13.44,59,59,0,0,1,1.19-13.1,19.86,19.86,0,0,1,3.45-7.91,11.93,11.93,0,0,1,5.49-3.93,22.32,22.32,0,0,1,7.29-1.11,45.56,45.56,0,0,1,6,.38c1.88.26,3.56.56,5.07.9A25.53,25.53,0,0,1,76.06,307v8c-.78-.19-1.82-.37-3.13-.56s-2.81-.33-4.49-.45-3.44-.17-5.29-.17a14.13,14.13,0,0,0-4.61.66,5.8,5.8,0,0,0-3,2.43,13.76,13.76,0,0,0-1.67,5.1,55.05,55.05,0,0,0-.55,8.69,61.23,61.23,0,0,0,.48,8.47,14.23,14.23,0,0,0,1.58,5.18,5.87,5.87,0,0,0,3,2.57,13.71,13.71,0,0,0,4.81.73q4.91,0,8-.21c2-.14,3.69-.3,4.94-.49v7.92a27.94,27.94,0,0,1-4,1.08,47,47,0,0,1-5,.69Q64.38,356.92,61,356.92Z"/><path d="M100.58,356.92a32.69,32.69,0,0,1-8.58-1,12.59,12.59,0,0,1-6.16-3.75,17.71,17.71,0,0,1-3.72-7.89,60,60,0,0,1-1.22-13.4,58.69,58.69,0,0,1,1.26-13.45,18.46,18.46,0,0,1,3.71-7.95A12.6,12.6,0,0,1,92,305.65a35.91,35.91,0,0,1,17.16,0,12.63,12.63,0,0,1,6.14,3.82,18.22,18.22,0,0,1,3.67,7.95,60.08,60.08,0,0,1,1.23,13.45,59.35,59.35,0,0,1-1.23,13.4,17.91,17.91,0,0,1-3.67,7.89,12.44,12.44,0,0,1-6.14,3.75A32.69,32.69,0,0,1,100.58,356.92Zm0-9.24a14.28,14.28,0,0,0,4.84-.7,5.94,5.94,0,0,0,3.07-2.46,13.39,13.39,0,0,0,1.64-5.07,56.73,56.73,0,0,0,.52-8.58,59.73,59.73,0,0,0-.52-8.89,13.43,13.43,0,0,0-1.64-5.11,5.64,5.64,0,0,0-3.07-2.4,16.18,16.18,0,0,0-4.84-.62,15.68,15.68,0,0,0-4.71.62,5.92,5.92,0,0,0-3.13,2.4A12.83,12.83,0,0,0,91,322a56.54,56.54,0,0,0-.55,8.89,61.87,61.87,0,0,0,.48,8.58,12.71,12.71,0,0,0,1.65,5.07A6,6,0,0,0,95.71,347,14.58,14.58,0,0,0,100.58,347.68Z"/><path d="M127.56,356.5V305.09h7.68l20,33.9v-33.9h9.55V356.5h-7.68l-19.94-33.9v33.9Z"/><path d="M187.06,356.92c-1.25,0-2.53,0-3.84-.11s-2.65-.18-4-.34-2.64-.35-3.84-.56a32,32,0,0,1-3.29-.73v-8.13c1.29.14,2.75.26,4.38.35s3.34.16,5.1.21,3.44.07,5,.07a17.32,17.32,0,0,0,4.22-.45,5.15,5.15,0,0,0,2.75-1.6,4.77,4.77,0,0,0,1-3.16v-1.88a4.7,4.7,0,0,0-1.25-3.51,5,5,0,0,0-3.59-1.21h-4.06q-6.84,0-10.49-3.23t-3.65-11v-2.5q0-7.5,4-11t11.42-3.47a48.51,48.51,0,0,1,5.26.28c1.74.18,3.42.4,5,.66s3,.52,4.16.8v8.12q-3-.21-6.61-.41t-6.74-.21a15.39,15.39,0,0,0-3.91.45,4.51,4.51,0,0,0-2.61,1.7,5.92,5.92,0,0,0-.91,3.54V321a4.8,4.8,0,0,0,1.42,3.89,6.43,6.43,0,0,0,4.2,1.18h4.71a13.52,13.52,0,0,1,7.13,1.71,10.56,10.56,0,0,1,4.2,4.69,16,16,0,0,1,1.38,6.8v2.92q0,6-2.09,9.24a10.41,10.41,0,0,1-5.81,4.34A29.68,29.68,0,0,1,187.06,356.92Z"/><path d="M220.68,356.5V314.33h-13.1v-9.24H243.4v9.24H230.23V356.5Z"/><path d="M248.56,356.5V305.09h19.75a18.73,18.73,0,0,1,5.29.73,10.55,10.55,0,0,1,4.32,2.54,12.16,12.16,0,0,1,2.94,5,26.42,26.42,0,0,1,1.06,8.2,24.46,24.46,0,0,1-.64,6,13.35,13.35,0,0,1-1.71,4.1,9.81,9.81,0,0,1-2.42,2.57,15.67,15.67,0,0,1-2.78,1.6l8.91,20.63h-9.75l-7.68-19c-.51,0-1.1,0-1.77,0s-1.35,0-2,0H260c-.69,0-1.31,0-1.87-.07V356.5Zm9.55-27.3h8.52a7,7,0,0,0,2.32-.35,4.17,4.17,0,0,0,1.81-1.21,6,6,0,0,0,1.19-2.33,13.85,13.85,0,0,0,.42-3.75A12.87,12.87,0,0,0,272,318a5.32,5.32,0,0,0-1.19-2.22,4.22,4.22,0,0,0-1.81-1.11,7.93,7.93,0,0,0-2.32-.32h-8.52Z"/><path d="M307,356.85a35.66,35.66,0,0,1-7.36-.73,15.65,15.65,0,0,1-6-2.57,11.85,11.85,0,0,1-3.94-5.14,22.07,22.07,0,0,1-1.39-8.44V305.09h9.56V339.9a8.29,8.29,0,0,0,1.06,4.51,6.08,6.08,0,0,0,3.1,2.43,14,14,0,0,0,4.94.77,13.86,13.86,0,0,0,4.87-.77,6.12,6.12,0,0,0,3.1-2.43,8.29,8.29,0,0,0,1.06-4.51V305.09h9.62V340a21.65,21.65,0,0,1-1.42,8.44,12.16,12.16,0,0,1-3.94,5.14,15.4,15.4,0,0,1-5.9,2.57A35.61,35.61,0,0,1,307,356.85Z"/><path d="M389.31,356.92a32.82,32.82,0,0,1-8.59-1,12.63,12.63,0,0,1-6.16-3.75,17.7,17.7,0,0,1-3.71-7.89,59.35,59.35,0,0,1-1.23-13.4,58.69,58.69,0,0,1,1.26-13.45,18.58,18.58,0,0,1,3.71-7.95,12.64,12.64,0,0,1,6.13-3.82,36,36,0,0,1,17.17,0,12.6,12.6,0,0,1,6.13,3.82,18.23,18.23,0,0,1,3.68,7.95,60.08,60.08,0,0,1,1.23,13.45,59.35,59.35,0,0,1-1.23,13.4,17.91,17.91,0,0,1-3.68,7.89,12.41,12.41,0,0,1-6.13,3.75A32.69,32.69,0,0,1,389.31,356.92Zm0-9.24a14.32,14.32,0,0,0,4.84-.7,5.88,5.88,0,0,0,3.06-2.46,13.38,13.38,0,0,0,1.65-5.07,58.28,58.28,0,0,0,.51-8.58,61.35,61.35,0,0,0-.51-8.89,13.42,13.42,0,0,0-1.65-5.11,5.59,5.59,0,0,0-3.06-2.4,16.23,16.23,0,0,0-4.84-.62,15.68,15.68,0,0,0-4.71.62,5.88,5.88,0,0,0-3.13,2.4,13,13,0,0,0-1.75,5.11,58,58,0,0,0-.54,8.89,61.87,61.87,0,0,0,.48,8.58,12.72,12.72,0,0,0,1.64,5.07,6.06,6.06,0,0,0,3.14,2.46A14.54,14.54,0,0,0,389.31,347.68Z"/><path d="M425.64,356.5V314.33h-13.1v-9.24h35.82v9.24H435.19V356.5Z"/><path d="M447.26,356.5l15-51.41H474.3l15,51.41h-9.94l-3-10.77H460l-3,10.77Zm15-20H474l-5.87-22.57Z"/><path d="M505.79,356.5a14.19,14.19,0,0,1-6.22-1.22,7.84,7.84,0,0,1-3.81-3.89,16.66,16.66,0,0,1-1.26-7.05V305.09h9.55v37.59a5.78,5.78,0,0,0,.55,2.71,2.91,2.91,0,0,0,1.52,1.42,6,6,0,0,0,2.19.38h15.1v9.31Z"/><path d="M343.3,356.5V298.1H330.19v-9.24H523.41a4.46,4.46,0,0,1,4.29,4.62h0a4.46,4.46,0,0,1-4.29,4.62H352.85v58.4Z"/><path d="M124.26,406.72l2.08-19.49h2.47l4.64,16.27L138,387.23h2.49l2.12,19.49h-2.39l-1.78-16.24.42.06-4.3,16.18h-2.29l-4.37-16.18.44,0-1.7,16.21Z"/><path d="M144.66,406.72l6.07-19.49h3.16L160,406.72h-2.6l-1.6-5.1h-7l-1.58,5.1Zm4.74-7.51h5.75l-2.86-9.65Z"/><path d="M165.28,406.72V389.61h-5.44v-2.38H173.2v2.38h-5.43v17.11Z"/><path d="M179.2,406.83a7.69,7.69,0,0,1-1.31-.12,3.87,3.87,0,0,1-1.32-.5,2.77,2.77,0,0,1-1-1.18,4.75,4.75,0,0,1-.4-2.14V391.3a5.09,5.09,0,0,1,.33-1.95,3.42,3.42,0,0,1,.88-1.26,3.23,3.23,0,0,1,1.22-.66,4.91,4.91,0,0,1,1.35-.2l2.95.07,2.51.09,2.22.11v2.19h-7a2,2,0,0,0-1.44.5,2.17,2.17,0,0,0-.51,1.59v4.05l7.85.16v2.06l-7.85.18v4a2.52,2.52,0,0,0,.28,1.34,1.41,1.41,0,0,0,.74.61,2.84,2.84,0,0,0,1,.16h7v2.2l-2.4.14-2.53.11C180.83,406.81,180,406.83,179.2,406.83Z"/><path d="M189.72,406.72V387.23H197a6.89,6.89,0,0,1,1.82.24,3.88,3.88,0,0,1,1.57.87,4.25,4.25,0,0,1,1.08,1.79,9.5,9.5,0,0,1,.4,3,8.93,8.93,0,0,1-.3,2.51,4.68,4.68,0,0,1-.78,1.6,3.29,3.29,0,0,1-1.06.9,5.75,5.75,0,0,1-1.15.46l3.63,8.12h-2.52L196.34,399h-2c-.38,0-.76,0-1.13,0l-1,0v7.83Zm2.49-9.89h4.4a4,4,0,0,0,1.08-.14,2,2,0,0,0,.88-.56,2.79,2.79,0,0,0,.61-1.14,6.76,6.76,0,0,0,.22-1.86,6.3,6.3,0,0,0-.22-1.8,2.52,2.52,0,0,0-.62-1.06,2.16,2.16,0,0,0-.89-.51,3.62,3.62,0,0,0-1.06-.15h-4.4Z"/><path d="M204.88,406.72V387.23h2.49v19.49Z"/><path d="M209.89,406.72,216,387.23h3.16l6.07,19.49h-2.59l-1.61-5.1h-7l-1.58,5.1Zm4.74-7.51h5.76l-2.87-9.65Z"/><path d="M227.72,406.72V387.23h2.49v19.49Z"/><path d="M239.08,406.88c-.4,0-.85,0-1.35,0l-1.53-.12-1.48-.16a7.75,7.75,0,0,1-1.2-.21v-2.06l1.54.1c.6,0,1.25.07,1.93.08l2,0a7.81,7.81,0,0,0,1.89-.21,2.43,2.43,0,0,0,1.3-.79,2.47,2.47,0,0,0,.49-1.64v-1.14a2.57,2.57,0,0,0-.61-1.83,2.44,2.44,0,0,0-1.84-.63h-1.85a5.49,5.49,0,0,1-3.67-1.11q-1.29-1.11-1.29-3.81v-1.06a5,5,0,0,1,1.42-4,6,6,0,0,1,4-1.21,17.62,17.62,0,0,1,1.86.1c.65.06,1.3.13,1.92.22s1.14.18,1.56.27v2.06l-2.48-.17c-.92-.07-1.78-.1-2.58-.1a5.65,5.65,0,0,0-1.8.26,2.14,2.14,0,0,0-1.16.88,3.34,3.34,0,0,0-.4,1.8v.79a2.43,2.43,0,0,0,.71,2,3.21,3.21,0,0,0,2,.55h2a4.83,4.83,0,0,1,2.56.61,3.74,3.74,0,0,1,1.49,1.66,5.64,5.64,0,0,1,.5,2.41v1.38a5.47,5.47,0,0,1-.79,3.17,4,4,0,0,1-2.13,1.52A10.43,10.43,0,0,1,239.08,406.88Z"/><path d="M254.75,406.72V387.23h7.36a5.68,5.68,0,0,1,2.86.66,5,5,0,0,1,1.88,1.92,9.63,9.63,0,0,1,1,3.07,24.16,24.16,0,0,1,.32,4.11,18,18,0,0,1-.68,5.29,6.77,6.77,0,0,1-2,3.3,5.06,5.06,0,0,1-3.38,1.14Zm2.5-2.38h4.64a2.9,2.9,0,0,0,2.2-.88,5.49,5.49,0,0,0,1.23-2.54,17.23,17.23,0,0,0,.4-3.93,22.72,22.72,0,0,0-.23-3.5,6.76,6.76,0,0,0-.69-2.28,2.89,2.89,0,0,0-1.19-1.23,3.86,3.86,0,0,0-1.72-.37h-4.64Z"/><path d="M275.42,406.83a7.69,7.69,0,0,1-1.31-.12,3.87,3.87,0,0,1-1.32-.5,2.86,2.86,0,0,1-1-1.18,4.9,4.9,0,0,1-.39-2.14V391.3a5.09,5.09,0,0,1,.33-1.95,3.42,3.42,0,0,1,.88-1.26,3.23,3.23,0,0,1,1.22-.66,4.85,4.85,0,0,1,1.35-.2l3,.07,2.5.09,2.23.11v2.19h-7a2,2,0,0,0-1.43.5,2.17,2.17,0,0,0-.52,1.59v4.05l7.86.16v2.06l-7.86.18v4a2.52,2.52,0,0,0,.29,1.34,1.37,1.37,0,0,0,.74.61,2.82,2.82,0,0,0,1,.16h7v2.2l-2.4.14-2.53.11C277.05,406.81,276.23,406.83,275.42,406.83Z"/><path d="M298.53,406.88a9,9,0,0,1-2.84-.4,4.08,4.08,0,0,1-2-1.44,7,7,0,0,1-1.21-3,26.38,26.38,0,0,1-.4-5.12,24.45,24.45,0,0,1,.41-4.89,7.55,7.55,0,0,1,1.23-3,4.3,4.3,0,0,1,2.06-1.5,8.66,8.66,0,0,1,2.87-.43,17.69,17.69,0,0,1,1.89.11c.65.07,1.27.16,1.87.28a16.27,16.27,0,0,1,1.62.38v2c-.29-.05-.7-.11-1.21-.17s-1.08-.12-1.73-.16-1.31-.07-2-.07a6.2,6.2,0,0,0-2.1.31,2.75,2.75,0,0,0-1.4,1.11,5.62,5.62,0,0,0-.79,2.27,23.11,23.11,0,0,0-.25,3.8,26.45,26.45,0,0,0,.23,3.84,5.94,5.94,0,0,0,.76,2.3,2.66,2.66,0,0,0,1.38,1.12,6.63,6.63,0,0,0,2.15.3c1.23,0,2.25,0,3-.11s1.43-.14,1.92-.21v2c-.49.12-1,.24-1.63.34a17.46,17.46,0,0,1-1.86.24C299.87,406.85,299.2,406.88,298.53,406.88Z"/><path d="M313.34,406.88a11.71,11.71,0,0,1-3.12-.37,4.61,4.61,0,0,1-2.25-1.38,6.47,6.47,0,0,1-1.34-3,29.52,29.52,0,0,1,0-10.27,6.78,6.78,0,0,1,1.36-3,4.59,4.59,0,0,1,2.24-1.42,11.15,11.15,0,0,1,3.11-.39,11.52,11.52,0,0,1,3.18.39,4.48,4.48,0,0,1,2.23,1.42,7,7,0,0,1,1.33,3,29.52,29.52,0,0,1,0,10.27,6.47,6.47,0,0,1-1.34,3,4.61,4.61,0,0,1-2.25,1.38A11.79,11.79,0,0,1,313.34,406.88Zm0-2.38a7.31,7.31,0,0,0,2.19-.29,2.85,2.85,0,0,0,1.46-1.07,5.54,5.54,0,0,0,.8-2.25A24.61,24.61,0,0,0,318,397a25.16,25.16,0,0,0-.26-4,5.62,5.62,0,0,0-.81-2.27,2.59,2.59,0,0,0-1.44-1,7.7,7.7,0,0,0-2.19-.27,7.21,7.21,0,0,0-2.09.27,2.71,2.71,0,0,0-1.46,1,5.58,5.58,0,0,0-.85,2.27,22.56,22.56,0,0,0-.29,4,24.79,24.79,0,0,0,.24,3.85,5.27,5.27,0,0,0,.79,2.25,2.81,2.81,0,0,0,1.46,1.07A7.29,7.29,0,0,0,313.34,404.5Z"/><path d="M323.94,406.72V387.23h2l8.91,14.94V387.23h2.47v19.49h-2l-8.91-14.94v14.94Z"/><path d="M345.94,406.88c-.4,0-.85,0-1.35,0l-1.53-.12-1.48-.16a7.75,7.75,0,0,1-1.2-.21v-2.06l1.54.1c.6,0,1.25.07,1.93.08l2,0a7.66,7.66,0,0,0,1.88-.21,2.43,2.43,0,0,0,1.31-.79,2.47,2.47,0,0,0,.49-1.64v-1.14a2.57,2.57,0,0,0-.61-1.83,2.44,2.44,0,0,0-1.84-.63h-1.85a5.49,5.49,0,0,1-3.67-1.11q-1.29-1.11-1.29-3.81v-1.06a5,5,0,0,1,1.42-4,6,6,0,0,1,4-1.21,17.3,17.3,0,0,1,1.85.1c.66.06,1.31.13,1.93.22s1.15.18,1.56.27v2.06l-2.49-.17c-.91-.07-1.77-.1-2.58-.1a5.52,5.52,0,0,0-1.78.26,2.09,2.09,0,0,0-1.17.88,3.34,3.34,0,0,0-.4,1.8v.79a2.43,2.43,0,0,0,.71,2,3.21,3.21,0,0,0,2,.55h2a4.83,4.83,0,0,1,2.56.61,3.8,3.8,0,0,1,1.49,1.66,5.64,5.64,0,0,1,.5,2.41v1.38a5.47,5.47,0,0,1-.79,3.17,4,4,0,0,1-2.13,1.52A10.43,10.43,0,0,1,345.94,406.88Z"/><path d="M359.07,406.72V389.61h-5.43v-2.38H367v2.38h-5.44v17.11Z"/><path d="M369.19,406.72V387.23h7.29a6.81,6.81,0,0,1,1.81.24,3.75,3.75,0,0,1,1.57.87,4.36,4.36,0,0,1,1.09,1.79,9.53,9.53,0,0,1,.39,3,9.36,9.36,0,0,1-.29,2.51,4.68,4.68,0,0,1-.78,1.6,3.4,3.4,0,0,1-1.06.9,5.75,5.75,0,0,1-1.15.46l3.63,8.12h-2.52L375.81,399h-2q-.58,0-1.14,0l-1,0v7.83Zm2.5-9.89h4.39a4.11,4.11,0,0,0,1.09-.14,2,2,0,0,0,.88-.56,2.91,2.91,0,0,0,.6-1.14,6.4,6.4,0,0,0,.22-1.86,6,6,0,0,0-.22-1.8,2.42,2.42,0,0,0-.62-1.06,2.16,2.16,0,0,0-.89-.51,3.62,3.62,0,0,0-1.06-.15h-4.39Z"/><path d="M390.92,406.88a12.5,12.5,0,0,1-2.76-.29,5.81,5.81,0,0,1-2.18-1,4.47,4.47,0,0,1-1.39-1.92,8.42,8.42,0,0,1-.48-3.07V387.23h2.49v13.36a4.51,4.51,0,0,0,.51,2.34,2.8,2.8,0,0,0,1.48,1.19,7,7,0,0,0,2.33.35,7.12,7.12,0,0,0,2.36-.35,2.84,2.84,0,0,0,1.48-1.19,4.51,4.51,0,0,0,.51-2.34V387.23h2.49v13.38a8.19,8.19,0,0,1-.49,3.07,4.57,4.57,0,0,1-1.4,1.92,5.65,5.65,0,0,1-2.16,1A12.65,12.65,0,0,1,390.92,406.88Z"/><path d="M407.14,406.88a9,9,0,0,1-2.84-.4,4.12,4.12,0,0,1-2-1.44,7.15,7.15,0,0,1-1.21-3,26.38,26.38,0,0,1-.4-5.12,24.45,24.45,0,0,1,.41-4.89,7.41,7.41,0,0,1,1.24-3,4.26,4.26,0,0,1,2.06-1.5,8.56,8.56,0,0,1,2.86-.43,17.69,17.69,0,0,1,1.89.11c.65.07,1.28.16,1.88.28a16.27,16.27,0,0,1,1.62.38v2c-.3-.05-.71-.11-1.22-.17s-1.08-.12-1.72-.16-1.31-.07-2-.07a6.12,6.12,0,0,0-2.1.31,2.74,2.74,0,0,0-1.41,1.11,5.77,5.77,0,0,0-.79,2.27,23.11,23.11,0,0,0-.25,3.8,24.92,24.92,0,0,0,.24,3.84,6,6,0,0,0,.75,2.3,2.74,2.74,0,0,0,1.38,1.12,6.63,6.63,0,0,0,2.15.3c1.24,0,2.25,0,3-.11s1.43-.14,1.93-.21v2c-.5.12-1,.24-1.64.34a17.46,17.46,0,0,1-1.86.24C408.48,406.85,407.82,406.88,407.14,406.88Zm-1.33,4.92v-1.09l.52-.08a1.72,1.72,0,0,0,.94-.31,1,1,0,0,0,.32-.77,1.05,1.05,0,0,0-.29-.73,1.89,1.89,0,0,0-1.19-.38l1-.32a2.39,2.39,0,0,1,1.52.42,1.56,1.56,0,0,1,.53,1.3,1.75,1.75,0,0,1-.63,1.44,2.75,2.75,0,0,1-1.81.52Zm.3-3.36,1.28-2.12h1.14l-1.26,2.12Z"/><path d="M414.4,406.72l6.07-19.49h3.17l6.07,19.49h-2.59l-1.61-5.1h-7l-1.58,5.1Zm3.26-21.18a4.24,4.24,0,0,1,.39-1.79,2.23,2.23,0,0,1,.89-.93,2.36,2.36,0,0,1,1.14-.29,2.65,2.65,0,0,1,1.11.22,6.61,6.61,0,0,1,.94.52c.3.19.58.36.85.51a1.81,1.81,0,0,0,.88.23,1.3,1.3,0,0,0,1-.4,1.64,1.64,0,0,0,.39-1.19h1.25a3.84,3.84,0,0,1-.67,2.3,2.13,2.13,0,0,1-1.77.79,2.52,2.52,0,0,1-1.06-.22,6.78,6.78,0,0,1-1-.53c-.31-.2-.6-.38-.89-.53a1.88,1.88,0,0,0-.88-.22,1.22,1.22,0,0,0-.92.38,1.65,1.65,0,0,0-.41,1.15Zm1.48,13.67h5.75L422,389.56Z"/><path d="M438.7,406.88a11.74,11.74,0,0,1-3.13-.37,4.62,4.62,0,0,1-2.24-1.38,6.48,6.48,0,0,1-1.35-3,30.18,30.18,0,0,1,0-10.27,6.9,6.9,0,0,1,1.36-3,4.62,4.62,0,0,1,2.25-1.42,11.05,11.05,0,0,1,3.11-.39,11.5,11.5,0,0,1,3.17.39,4.43,4.43,0,0,1,2.23,1.42,7,7,0,0,1,1.34,3,30.18,30.18,0,0,1,0,10.27,6.58,6.58,0,0,1-1.35,3,4.61,4.61,0,0,1-2.25,1.38A11.71,11.71,0,0,1,438.7,406.88Zm0-2.38a7.28,7.28,0,0,0,2.18-.29,2.85,2.85,0,0,0,1.46-1.07,5.4,5.4,0,0,0,.8-2.25,24.61,24.61,0,0,0,.25-3.85,25.16,25.16,0,0,0-.26-4,5.62,5.62,0,0,0-.8-2.27,2.65,2.65,0,0,0-1.45-1,7.68,7.68,0,0,0-2.18-.27,7.24,7.24,0,0,0-2.1.27,2.74,2.74,0,0,0-1.46,1,5.58,5.58,0,0,0-.85,2.27,22.71,22.71,0,0,0-.28,4,25,25,0,0,0,.23,3.85,5.4,5.4,0,0,0,.79,2.25,2.85,2.85,0,0,0,1.46,1.07A7.36,7.36,0,0,0,438.7,404.5Z"/><line class="cls-1" x1="80.9" y1="369.68" x2="489.27" y2="369.68"/><path d="M405.89,262.45a2.14,2.14,0,0,1-2.05,1.73H163.08a2.15,2.15,0,0,1-2-1.72,2.33,2.33,0,0,1,1.06-2.55l118-68.12a2,2,0,0,1,2,0l122.76,68.09A2.37,2.37,0,0,1,405.89,262.45Z"/></svg>